<?xml version="1.0" encoding="UTF-8"?>
<svg id="Layer_2" data-name="Layer 2" xmlns="http://www.w3.org/2000/svg" viewBox="0 0 160.83 160.91">
  <defs>
    <style>
      .cls-1, .cls-2 {
        fill: #fff;
      }

      .cls-1, .cls-3 {
        fill-rule: evenodd;
      }

      .cls-4 {
        stroke: #fff;
        stroke-width: 1.23px;
      }

      .cls-4, .cls-5, .cls-6, .cls-7 {
        fill: none;
        stroke-miterlimit: 10;
      }

      .cls-5 {
        stroke-width: .62px;
      }

      .cls-5, .cls-6, .cls-7 {
        stroke: #295caa;
      }

      .cls-6 {
        stroke-width: 4.83px;
      }

      .cls-7 {
        stroke-width: 3.02px;
      }

      .cls-3 {
        fill: #295caa;
      }
    </style>
  </defs>
  <g id="Layer_1-2" data-name="Layer 1">
    <g id="surface1">
      <path class="cls-2" d="M80.41,2.36C37.3,2.36,2.41,37.32,2.41,80.36s34.89,78.08,78,78.08,78-34.97,78-78.08S123.45,2.36,80.41,2.36Z"/>
      <path class="cls-7" d="M80.26,134.21c29.59,0,53.56-23.97,53.56-53.55s-23.97-53.56-53.56-53.56-53.48,23.97-53.48,53.56,23.97,53.55,53.48,53.55Z"/>
      <path class="cls-1" d="M53.75,30.73l2.69,5.3h46.6l3.71-5.3s-21.36-15.03-53,0"/>
      <path class="cls-3" d="M129.31,76.93s-.39-4.67-1.34-7.83H32.32s-.63.79-1.27,7.83h98.25"/>
      <path class="cls-3" d="M30.89,79.78h98.57s-.08,9.73-2.38,15.66H33.19c-.32-.48-2.85-10.45-2.3-15.66"/>
      <path class="cls-3" d="M33.98,97.58h92.4s-5.86,20.88-31.01,29.82c0,0-15.35,5.77-32.75-.79,0,0-21.2-7.2-28.64-29.03"/>
      <path class="cls-3" d="M35.24,60.48h89.79s1.19,2.45,1.74,4.51H33.5s.55-1.9,1.74-4.51"/>
      <path class="cls-3" d="M39.83,52.41l80.77.08s1.5,2.21,2.21,3.56H37.54s1.27-2.13,2.29-3.64"/>
      <path class="cls-6" d="M80.41,158.5c43.04,0,78-34.97,78-78.08S123.45,2.41,80.41,2.41,2.41,37.38,2.41,80.41s34.89,78.08,78,78.08Z"/>
      <path class="cls-3" d="M46.95,44.34h66.46s2.21,1.98,2.93,2.93H43.95s1.82-2.06,3-2.93"/>
      <path class="cls-3" d="M21.24,38.25h19.54s-.71.79-.95,1.27h-19.22s0-.71.63-1.27"/>
      <path class="cls-5" d="M21.24,38.25h19.54s-.71.79-.95,1.27h-19.22s0-.71.63-1.27Z"/>
      <path class="cls-3" d="M57.63,38.25h44.93s1.5.63,2.29,1.27h-49.29s.48-.55,2.06-1.27"/>
      <path class="cls-5" d="M57.63,38.25h44.93s1.5.63,2.29,1.27h-49.29s.48-.55,2.06-1.27Z"/>
      <path class="cls-3" d="M119.1,38.25h20.02s.79.55,1.11,1.18h-19.54s-.71-.63-1.58-1.18"/>
      <path class="cls-5" d="M119.1,38.25h20.01s.79.55,1.11,1.18h-19.54s-.71-.63-1.58-1.18Z"/>
      <path class="cls-3" d="M22.35,63.01c1.58.39,3.16-.16,3.96-2.22.47-1.26.39-2.21.08-3-.32-.79-.87-1.34-1.66-1.58-1.03-.4-1.82-.32-2.53-.08-.63.24-1.27.71-2.14,1.34-.87.55-1.27.87-1.66,1.03-.4.24-.87.24-1.43.08-.32-.16-.63-.4-.79-.71-.24-.32-.32-.71-.16-1.27.32-.87,1.11-.95,1.82-.79l.79-2.29c-1.66-.39-3.24.16-4.11,2.53-.55,1.43-.32,2.45,0,3.25.39.87,1.11,1.42,1.82,1.74,1.03.39,1.9.24,2.53,0,.55-.24,1.11-.63,1.98-1.27.71-.55,1.11-.79,1.59-1.11.55-.32,1.11-.32,1.58-.16.32.16.55.32.71.55.08.32.16.71,0,1.11-.24.71-1.03.79-1.58.71l-.79,2.14"/>
      <path class="cls-3" d="M14.28,69.42l-3.4.16-.55,2.53,12.82-1.19.71-3.24-11.16-6.33-.55,2.53,3,1.5-.87,4.04ZM16.02,69.26l.63-3,2.69,1.34c.87.39,1.74.87,2.77,1.35v.07c-1.11,0-2.06.08-3.09.16l-3.01.08"/>
      <path class="cls-3" d="M10.09,76.85l5.46.24-.24,3.48,1.66.08.16-3.4,3.56.16-.24,4.51,1.58.08.4-6.96-12.18-.63-.16,2.45"/>
      <path class="cls-3" d="M17.21,85.64l3.4-.32.39,4.43,1.58-.16-.47-6.8-12.18.95.47,6.96,1.66-.16-.31-4.51,3.8-.32.31,3.32,1.59-.08-.24-3.32"/>
      <path class="cls-3" d="M24.48,98.53l-1.9-8.62-1.58.32.71,3.16-10.36,2.29.55,2.38,10.29-2.29.71,3.16,1.58-.39"/>
      <path class="cls-3" d="M28.05,107.63l-.95-2.45h-3.16c-1.11,0-2.21,0-3.4.08l-.08-.08c.95-.79,1.74-1.5,2.61-2.3l2.3-2.14-1.03-2.53-5.7,6.41-4.19,1.74.87,2.21,4.27-1.66,8.47.71"/>
      <path class="cls-3" d="M35.01,118.31l-5.07-7.28-1.34.87,1.9,2.69-8.78,6.01,1.43,1.98,8.7-6.01,1.82,2.61,1.35-.87"/>
      <path class="cls-3" d="M43,126.46l-1.74-1.74-3.56,3.64-4.19-4.11,3.64-3.64-1.74-1.74-8.62,8.7,1.74,1.74,3.88-3.96,4.11,4.11-3.88,3.96,1.74,1.74,8.62-8.7"/>
      <path class="cls-3" d="M44.98,136.5c1.42.55,3,.47,4.19-1.27,1.74-2.53.08-4.51-1.9-5.85l-3.16-2.14-6.88,10.12,1.98,1.35,2.69-3.96,1.03.71-.4,5.46,2.46,1.74v-6.17ZM42.76,133.42l2.45-3.48,1.11.79c1.42.95,1.58,1.98.79,3.09-.79,1.19-1.82,1.34-3,.55l-1.35-.95"/>
      <path class="cls-3" d="M49.32,138.24c-1.74,3.96,0,6.88,3.32,8.3,3.4,1.43,6.64.64,8.39-3.4,1.66-3.96,0-6.88-3.4-8.31-3.4-1.42-6.64-.63-8.31,3.32v.08ZM57,136.34c1.82.71,3.08,2.69,1.74,5.86-1.43,3.24-3.64,3.64-5.46,2.93-1.82-.79-3.01-2.77-1.66-5.93,1.34-3.16,3.56-3.64,5.38-2.93v.08"/>
      <path class="cls-3" d="M74.88,139.67l-2.3-.48-1.42,7.44c-.4,2.21-1.19,3.16-3.48,2.77-2.3-.39-2.69-1.66-2.3-3.88l1.35-7.36-2.3-.48-1.34,7.28c-.71,3.8.79,5.3,4.35,6.01,3.56.63,5.46-.32,6.17-4.12l1.27-7.2"/>
      <path class="cls-3" d="M87.61,145.52l-4.91.08v1.66l2.61-.08.08,2.53c-.55.39-1.58.71-2.85.71-2.29.08-3.88-1.5-3.96-4.67-.08-3.4,1.9-4.82,3.64-4.82,1.27-.08,1.98.47,2.69,1.74l2.45-.55c-1.19-1.82-3.09-2.85-5.22-2.77-3.56.08-6.17,2.05-6.09,6.48.16,3.96,2.21,6.33,6.33,6.25,2.45-.08,4.35-1.03,5.38-1.9l-.16-4.67"/>
      <path class="cls-3" d="M99.16,136.74l-2.37.55,1.18,4.98-5.61,1.34-1.27-4.98-2.37.63,2.93,11.87,2.38-.55-1.35-5.38,5.7-1.42,1.35,5.38,2.29-.55-2.85-11.87"/>
      <path class="cls-3" d="M108.74,137.85l-1.58-3.01,3.88-2.05-.79-1.43-6.01,3.16,5.7,10.84,6.17-3.25-.79-1.5-3.95,2.14-1.82-3.4,2.93-1.59-.79-1.42-2.93,1.5"/>
      <path class="cls-3" d="M122.66,137.53c3.72-2.85,3.72-5.7,1.34-8.78-2.45-3.16-5.3-3.64-8.86-.87l-3.72,2.93,7.44,9.65,3.8-2.93ZM119.81,137.69l-5.54-7.12,1.74-1.26c2.37-1.9,4.35-1.19,6.01,1.03,1.98,2.53,1.58,4.43-.48,6.01l-1.74,1.34"/>
      <path class="cls-3" d="M127.88,115.06l-1.59,1.82,5.78,4.82c1.74,1.5,2.14,2.69.63,4.43-1.5,1.82-2.77,1.5-4.43.08l-5.78-4.91-1.5,1.82,5.62,4.82c2.93,2.45,4.98,1.98,7.28-.79,2.45-2.85,2.53-4.91-.39-7.36l-5.62-4.75"/>
      <path class="cls-3" d="M139.43,111.5c1.03.79,1.74,2.05,1.03,3.32-.71,1.34-2.38,1.9-5.46.16-3.09-1.66-3.56-3.4-2.77-4.82.64-1.11,1.66-1.27,3.09-.87l1.03-2.21c-2.53-.79-4.43.24-5.54,2.29-.71,1.34-.95,2.69-.55,3.96.39,1.5,1.5,2.77,3.4,3.8,2.21,1.27,3.88,1.42,5.22,1.03,1.34-.32,2.37-1.34,3-2.53,1.11-1.98.87-4.43-1.03-6.17l-1.43,2.06"/>
      <path class="cls-3" d="M144.18,101.22l3.4.16.87-2.45-12.82-.24-1.03,3.09,10.29,7.59.87-2.45-2.85-1.9,1.27-3.8ZM142.52,101.14l-1.03,2.93-2.53-1.66c-.79-.55-1.58-1.11-2.53-1.66v-.08c1.11.08,2.05.16,3.09.24l3,.24"/>
      <path class="cls-3" d="M138.09,86.59l-1.42,8.78,1.66.23.47-3.16,10.52,1.74.32-2.45-10.45-1.66.55-3.25-1.66-.23"/>
      <path class="cls-3" d="M150.35,83.42l-12.18-.55-.08,2.45,12.18.55.08-2.45"/>
      <path class="cls-3" d="M144.57,80.65c4.35-.48,6.01-3.4,5.62-7.04-.4-3.64-2.69-6.09-7.04-5.62-4.35.48-6.01,3.4-5.62,7.04.48,3.64,2.69,6.09,7.04,5.62ZM139.12,74.8c-.16-1.9.87-3.96,4.35-4.35,3.4-.39,4.91,1.35,5.14,3.32.23,1.98-.87,3.95-4.27,4.35-3.48.39-4.98-1.34-5.22-3.25v-.08"/>
      <path class="cls-3" d="M143.39,56.52c-1.43,1.27-4.04,3.88-7.75,7.91l1.11,3.25,11.55-3.96-.71-2.14c-4.59,1.58-7.75,2.69-9.33,3.32v-.08c1.34-1.27,3.88-3.95,7.67-7.91l-1.11-3.32-11.55,4.04.79,2.14c4.59-1.58,7.68-2.69,9.26-3.32l.08.08"/>
      <path class="cls-4" d="M80.18,130.97c27.77,0,50.23-22.55,50.23-50.31s-22.47-50.23-50.23-50.23-50.24,22.46-50.24,50.23,22.47,50.31,50.24,50.31Z"/>
      <path class="cls-1" d="M53.2,49.09v60.68h55.69l-17.96-29.59,17.56-31.09h-55.3"/>
      <path class="cls-3" d="M104.15,108.1l-16.93-27.93,16.93-29.11h-49.21v57.04h49.21"/>
      <path class="cls-1" d="M56.84,105.49h17.09v-51.98h-17.09v51.98"/>
      <path class="cls-3" d="M64.99,23.85c-1.11-1.66-3.56-4.82-7.44-9.57l-6.17,1.89,4.75,15.9,4.04-1.27c-1.58-5.38-2.69-8.94-3.4-10.76h.16c1.11,1.58,3.56,4.82,7.44,9.49l6.17-1.82-4.75-15.9-4.11,1.27c1.66,5.3,2.77,8.94,3.4,10.76h-.08"/>
      <path class="cls-3" d="M79.94,23.77l.87,3.56,4.91-.24-5.54-16.38-6.33.32-4.03,16.77,4.9-.23.63-3.56,4.59-.23ZM78.99,20.45l-3.09.16.63-3.48c.16-1.03.32-2.06.47-3.48h.24c.32,1.35.55,2.38.87,3.4l.87,3.4"/>
      <path class="cls-3" d="M101.77,13.41l-4.43-.79-1.82,9.89c-.47,2.37-1.34,3.32-3.56,2.93-2.29-.39-2.69-1.74-2.29-4.04l1.82-9.89-4.43-.79-1.82,9.65c-.95,5.22,1.03,7.43,6.09,8.38,5.14.95,7.75-.55,8.7-5.61l1.74-9.73"/>
      <path class="cls-3" d="M102.64,31.6l5.54-15.66-4.27-1.5-5.54,15.66,4.27,1.5"/>
      <path class="cls-3" d="M105.81,29.23l.48.24.23-.48v.55l.48.24v-.63c.16,0,.32-.16.39-.24v-.32c-.08-.16-.16-.24-.47-.39l-.48-.24-.63,1.27ZM106.68,28.44l.08.08c.08,0,.16.08.16.16-.08.08-.16.16-.24.08h-.08l.08-.32ZM107.16,27.73c-.64-.32-1.43-.08-1.66.63-.32.63,0,1.35.63,1.66.63.32,1.43,0,1.66-.63.32-.63,0-1.34-.63-1.66ZM107,27.97c.55.24.71.79.47,1.27-.16.55-.71.71-1.18.48-.55-.16-.71-.71-.48-1.27.16-.47.71-.63,1.19-.47"/>
    </g>
  </g>
</svg>