<?xml version="1.0" encoding="UTF-8" standalone="no"?>
<!-- Created with Inkscape (http://www.inkscape.org/) -->

<svg
   xmlns:dc="http://purl.org/dc/elements/1.1/"
   xmlns:cc="http://creativecommons.org/ns#"
   xmlns:rdf="http://www.w3.org/1999/02/22-rdf-syntax-ns#"
   xmlns:svg="http://www.w3.org/2000/svg"
   xmlns="http://www.w3.org/2000/svg"
   version="1.1"
   width="560.3465"
   height="247.84644"
   id="svg2">
  <defs
     id="defs4" />
  <metadata
     id="metadata7">
    <rdf:RDF>
      <cc:Work
         rdf:about="">
        <dc:format>image/svg+xml</dc:format>
        <dc:type
           rdf:resource="http://purl.org/dc/dcmitype/StillImage" />
        <dc:title></dc:title>
      </cc:Work>
    </rdf:RDF>
  </metadata>
  <g
     transform="translate(-59.24728,-522.23245)"
     id="layer1">
    <g
       id="g3833"
       style="fill:#00007f;fill-opacity:1">
      <path
         d="m 169.04195,766.43882 c -4.72956,-7.27067 -16.74574,-14.36252 -39.42085,-23.26586 -6.72608,-2.64098 -15.09073,-6.23235 -18.58812,-7.98083 -17.027118,-8.51248 -33.509048,-22.77302 -41.561191,-35.95968 -14.524481,-23.78615 -13.536631,-57.0881 2.722643,-91.78449 3.108628,-6.63363 3.68802,-8.70963 2.8191,-10.10099 -1.757135,-2.81362 2.138436,-10.40974 6.982465,-13.61536 3.600366,-2.38261 4.204325,-3.41083 6.063359,-10.32268 3.105366,-11.54568 4.07307,-20.15391 4.094923,-36.42648 0.0109,-8.1125 0.267156,-14.75 0.569469,-14.75 1.758094,0 6.604374,3.4114 9.449262,6.65155 3.28337,3.73955 8.58746,14.0452 9.18621,17.84845 0.27852,1.76911 1.29615,2.05991 8.81487,2.51898 8.5761,0.52363 14.26445,2.48945 19.95238,6.89532 l 2.45239,1.89962 -4.45239,1.18653 c -6.03615,1.6086 -18.96746,8.20412 -25.28086,12.89431 -5.7506,4.27209 -15.679358,14.3803 -17.538258,17.85524 -1.53799,2.87503 -0.60301,4.64051 5.376508,10.15224 11.82388,10.89887 26.51021,12.97441 42.20203,5.96418 l 4.21179,-1.8816 -1.87751,-3.24241 c -4.95618,-8.55917 -6.44181,-22.67947 -3.44714,-32.76361 2.97251,-10.00952 10.53172,-19.45089 18.11894,-22.63034 4.35487,-1.82492 4.79318,-1.74362 6.75679,1.25322 1.64764,2.51462 1.62235,2.6903 -0.75554,5.25 -3.42583,3.68775 -6.10841,8.09238 -5.37514,8.82565 0.3382,0.3382 2.02203,0.7256 3.74185,0.86089 2.95638,0.23256 7.76957,3.46178 5.15983,3.46178 -0.65059,0 -0.93111,0.65616 -0.62336,1.45813 0.62955,1.6406 -3.60026,3.14804 -6.12007,2.1811 -2.87403,-1.10287 -1.69111,-3.63344 1.74776,-3.73891 3.00716,-0.0922 3.0632,-0.15234 0.75,-0.8044 -1.375,-0.38759 -3.5125,-0.51527 -4.75,-0.28374 -1.98196,0.37082 -2.25,1.02468 -2.25,5.48867 0,9.99433 6.03772,17.69915 13.86957,17.69915 8.25797,0 13.85853,-8.77362 13.24558,-20.75 -0.10157,-1.98459 -0.61648,-2.23447 -4.36515,-2.11836 -4.08327,0.12648 -4.12096,0.1559 -0.96065,0.75 1.80915,0.3401 3.27165,0.95586 3.25,1.36836 -0.0216,0.4125 -0.0394,1.2 -0.0394,1.75 0,0.55 -1.8,1 -4,1 -2.48017,0 -4.03787,0.47495 -4.09968,1.25 -0.0548,0.6875 -0.43417,0.125 -0.843,-1.25 -1.24634,-4.19178 1.34925,-6.98191 6.94268,-7.46306 0.825,-0.071 1.62162,-0.45052 1.77026,-0.84346 0.45036,-1.1905 -2.50064,-6.22406 -5.13594,-8.76045 -2.38635,-2.29678 -2.41797,-2.4907 -0.84132,-5.15975 2.09685,-3.54968 3.78131,-3.4905 9.55802,0.33583 10.43985,6.91508 15.70652,16.67105 16.40622,30.39089 0.44665,8.75795 -0.82684,14.81771 -5.20245,24.75539 -0.62974,1.43025 0.21975,2.20866 4.58615,4.2024 14.32713,6.54191 29.80182,4.08854 41.34929,-6.55555 7.19502,-6.63213 7.30335,-7.18887 2.58825,-13.30052 -8.9495,-11.6002 -22.59383,-21.19347 -37.94659,-26.68007 -7.34923,-2.62638 -7.2233,-2.92659 3.36811,-8.02937 4.92584,-2.37319 7.30357,-2.89084 13.28138,-2.89149 4.92625,-5.4e-4 7.42185,-0.4051 7.71564,-1.25079 3.16909,-9.12236 5.19849,-13.5064 7.87909,-17.0209 3.02861,-3.97077 8.90042,-8.7291 10.77177,-8.7291 0.46867,0 0.85212,6.49244 0.85212,14.42764 0,7.9352 0.47433,17.9477 1.05407,22.25 1.41917,10.53174 4.89325,23.32236 6.33464,23.32236 0.64328,0 2.83082,1.61354 4.8612,3.58564 3.74023,3.63287 5.4796,8.5167 4.44384,12.47746 -0.31085,1.18869 0.94224,5.25056 3.00423,9.73811 3.98924,8.68188 7.44463,18.34901 10.04156,28.09318 1.35253,5.07499 1.76046,10.54477 1.76046,23.60561 0,16.0505 -0.15959,17.47475 -2.85738,25.5 -1.57156,4.675 -3.48406,9.21043 -4.25,10.07874 -0.76594,0.86831 -1.39262,1.93616 -1.39262,2.37301 0,1.85979 -9.31454,13.62403 -14.83035,18.7307 -10.1517,9.39868 -29.81423,21.1104 -41.66965,24.81995 -17.839,5.58181 -38.41072,17.0844 -44.12237,24.67082 l -3.14192,4.17322 -2.36785,-3.64007 z m 0.52515,-37.78816 c 0.33385,-0.86998 0.63862,-3.90748 0.67728,-6.75 0.0386,-2.84251 0.41411,-6.04715 0.83436,-7.1214 0.64702,-1.65396 0.86605,-1.44331 1.42971,1.375 0.3661,1.8305 0.66564,5.53606 0.66564,8.23457 0,3.57621 0.43403,5.07294 1.60092,5.52072 2.47851,0.95109 3.33718,-1.6011 1.90468,-5.66122 -1.29245,-3.66319 -1.94832,-11.33892 -1.53941,-18.01588 0.19001,-3.10265 0.41463,-2.74957 1.97851,3.10997 1.93345,7.24419 2.69514,8.89003 4.11432,8.89003 1.48987,0 1.08173,-8.20649 -0.56518,-11.36431 -2.32027,-4.44891 -1.83869,-4.39055 3.00616,0.36431 4.78598,4.69708 5.40823,4.41795 3,-1.34576 -2.60996,-6.24652 -1.68058,-5.87186 5.4184,2.18429 6.94694,7.88361 11.58728,10.94887 14.74218,9.73822 1.32965,-0.51023 0.847,-1.07139 -2.23204,-2.59508 -2.1607,-1.06925 -5.66033,-3.37181 -7.77696,-5.11681 -4.08185,-3.36517 -11.65158,-12.42845 -11.65158,-13.9505 0,-0.49833 3.52146,1.70495 7.82547,4.89618 9.14318,6.77926 13.76333,9.00066 15.37269,7.3913 0.78253,-0.78253 -1.2633,-2.20167 -7.30563,-5.06772 -12.22351,-5.79797 -17.94804,-11.07554 -6.76965,-6.2411 8.13152,3.51673 9.42797,3.25223 2.04454,-0.41712 -4.03292,-2.00424 -7.1202,-3.85646 -6.86062,-4.11603 0.25957,-0.25958 3.26751,0.25244 6.68429,1.13782 3.41679,0.88538 6.95407,1.43808 7.86063,1.22822 0.90655,-0.20985 -0.37672,-0.93327 -2.85172,-1.6076 -2.475,-0.67432 -6.3,-1.84128 -8.5,-2.59323 l -4,-1.36719 8,-0.12813 8,-0.12813 -6.5,-3.35604 c -3.575,-1.84582 -7.75381,-4.67784 -9.28625,-6.29337 -4.0932,-4.31514 -6.62258,-11.76829 -6.17763,-18.20317 0.73715,-10.66072 9.00774,-19.06006 29.60618,-30.06708 11.37002,-6.0757 22.38471,-14.52191 31.09352,-23.84293 3.1547,-3.37647 6.3047,-6.14593 7,-6.15435 2.30748,-0.0279 3.84102,-1.62088 3.19106,-3.31464 -0.9972,-2.59867 -2.23417,-2.06389 -8.37363,3.62016 -3.22801,2.98857 -9.13769,6.95965 -13.58312,9.12734 -7.66364,3.73695 -8.09248,3.82438 -16.42788,3.34911 -6.60333,-0.3765 -9.74884,-1.09103 -13.76729,-3.12733 -2.86466,-1.45163 -5.70197,-2.63933 -6.30514,-2.63933 -1.9649,0 -9.72207,18.24282 -11.9061,28 -1.53153,6.84213 -2.32752,14.95235 -2.84509,28.98825 -0.62065,16.83127 -0.94007,19.53064 -2.3428,19.7991 -2.38609,0.45665 -2.98849,-2.01959 -3.59736,-14.78735 -0.80546,-16.89039 1.35994,-46.3631 4.2981,-58.5 2.818,-11.6406 3.02295,-16.19905 0.86673,-19.27749 -1.32874,-1.89704 -2.46366,-2.21791 -7.75,-2.19109 -5.50002,0.0279 -6.40571,0.32272 -8.09079,2.63364 -1.86992,2.56441 -1.8644,2.76374 0.37948,13.71858 3.67699,17.95133 3.8804,19.97409 4.53706,45.11636 0.69251,26.51472 0.0937,33 -3.04673,33 -1.87513,0 -2.00191,-0.96086 -2.57285,-19.5 -0.3303,-10.725 -1.15615,-22.425 -1.83524,-26 -1.82,-9.58127 -6.86618,-23.42294 -10.8161,-29.6686 l -1.37148,-2.1686 -6.53737,3.05921 c -7.43765,3.48049 -17.31613,4.68352 -23.8774,2.90784 -5.18566,-1.40339 -15.07428,-7.44742 -21.072698,-12.87985 -5.30364,-4.80321 -5.91664,-5.00147 -7.325352,-2.36927 -0.856215,1.59985 -0.581867,1.96566 1.837004,2.44944 1.823658,0.36473 6.387648,4.08384 12.724876,10.36927 9.72663,9.64712 15.5438,13.89551 30.37429,22.1829 17.75334,9.92071 24.2969,16.70882 25.65445,26.61325 1.47866,10.78798 -4.1026,20.13759 -15.52076,26.00007 l -6.63369,3.40597 7.5,0.0883 c 7.37081,0.0868 7.4438,0.11275 4.23729,1.50625 -1.7945,0.77987 -4.9445,1.71995 -7,2.08909 -2.05551,0.36913 -4.41229,1.07458 -5.23729,1.56766 -1.87492,1.12059 7.13783,0.10347 11.817,-1.33358 5.81751,-1.78666 4.48639,-0.18456 -2.72176,3.27586 -3.83991,1.84342 -6.86491,3.46843 -6.72222,3.61112 0.37643,0.37642 5.53606,-1.2537 9.87698,-3.12051 2.0625,-0.88698 3.75,-1.26787 3.75,-0.84643 0,1.27143 -11.8807,8.28672 -15.13677,8.93793 -2.86986,0.57398 -4.78796,2.73125 -3.53896,3.98025 0.9707,0.9707 9.66406,-3.74028 16.32941,-8.84899 3.49048,-2.67531 6.34632,-4.57447 6.34632,-4.22038 0,0.3541 -1.61568,2.84481 -3.5904,5.53492 -4.07382,5.54965 -10.03937,10.67634 -15.9096,13.67243 -2.95782,1.50964 -3.58898,2.20368 -2.42245,2.6638 3.51105,1.3849 8.93365,-2.51065 17.77612,-12.7702 4.62188,-5.36258 5.06932,-5.00823 2.18187,1.72791 -1.08046,2.5206 -1.75675,4.58291 -1.50288,4.58291 0.25387,0 2.26287,-1.62736 4.46446,-3.61636 2.20158,-1.989 3.99801,-3.4515 3.99206,-3.25 -0.006,0.2015 -0.59027,2.39136 -1.29848,4.86636 -1.33445,4.66355 -1.18653,9 0.307,9 1.14212,0 4.97504,-10.35258 5.10466,-13.78751 0.0925,-2.45139 0.18718,-2.37558 0.98352,0.78751 1.02389,4.06699 0.2122,12.85326 -1.6876,18.26761 -0.7271,2.07219 -1.06601,4.43469 -0.75315,5.25 0.75015,1.95485 2.98231,1.89565 3.74788,-0.0994 z m -23.12447,-91.81092 c -3.19193,-2.92518 -3.67983,-3.95082 -3.54058,-7.44279 0.19317,-4.8439 2.51106,-9.68687 5.36804,-11.21588 2.41937,-1.29481 3.65083,-0.56318 2.14978,1.27721 -0.57158,0.7008 -1.59995,3.16337 -2.28528,5.47238 -1.60223,5.39827 -0.0781,9.44794 4.65716,12.37451 1.86029,1.14972 3.38234,2.2787 3.38234,2.50884 0,0.23014 -1.35661,0.41844 -3.01469,0.41844 -2.03306,0 -4.22012,-1.1047 -6.71677,-3.39271 z m 41.23146,2.39271 c 0.33992,-0.55 1.18229,-1 1.87193,-1 0.68964,0 2.46308,-1.26212 3.94098,-2.80472 3.13045,-3.26749 3.55228,-8.18884 1.18709,-13.84952 -1.97619,-4.7297 -1.9719,-4.73759 1.47146,-2.70355 6.9811,4.12384 6.41746,16.03683 -0.93873,19.84086 -3.30144,1.70725 -8.48838,2.0632 -7.53273,0.51693 z m -44.66639,40.58604 c 5.15499,-2.66575 8.25843,-6.2415 9.7667,-11.25308 1.28509,-4.27002 1.26308,-5.35909 -0.20246,-10.01841 -0.90435,-2.87517 -2.48883,-5.9919 -3.52106,-6.92606 -1.03224,-0.93415 -1.87679,-2.23283 -1.87679,-2.88595 0,-1.29581 -4.90499,-4.90093 -21,-15.43479 -12.75858,-8.35022 -25.12954,-18.77433 -29.296478,-24.68602 -2.55957,-3.6313 -3.640813,-4.38173 -6.313317,-4.38173 -2.903099,0 -3.397092,0.45116 -4.952008,4.52265 -1.4425,3.77714 -1.625758,6.53822 -1.111725,16.75 1.573806,31.26526 15.24918,50.85183 38.673528,55.39021 7.79549,1.51034 15.65585,1.08359 19.83361,-1.07682 z m 76.49992,1.31108 c 14.39827,-2.14147 26.50663,-11.43034 33.12909,-25.41481 6.31933,-13.34434 9.36429,-36.96041 5.97927,-46.37384 -1.68017,-4.67239 -2.10546,-5.10847 -4.98205,-5.10847 -2.63263,0 -3.99842,1.01834 -8.38246,6.25 -5.3445,6.37783 -15.61139,15.21581 -24.57738,21.1568 -2.75,1.82219 -8.94312,5.84462 -13.76249,8.93873 -7.15846,4.59584 -9.50961,6.7724 -12.84382,11.89006 -3.88237,5.95904 -4.05849,6.56278 -3.61304,12.38511 0.58371,7.62932 3.23588,11.50447 10.17208,14.86263 5.72221,2.7704 8.4076,2.97149 18.8808,1.41379 z M 81.174088,596.29147 c 0,-1.17986 -1.950354,-2.442 -2.666667,-1.72569 -0.716312,0.71632 0.545824,2.66667 1.725684,2.66667 0.517541,0 0.940983,-0.42344 0.940983,-0.94098 z m 184.771062,-0.8722 c 0.24358,-0.73075 -0.21359,-0.95424 -1.1875,-0.58051 -0.87096,0.33422 -1.58356,1.04702 -1.58356,1.58401 0,1.31439 2.27278,0.49134 2.77106,-1.0035 z m -2.70532,-2.222 c 1.73397,-0.92799 2.78217,-3.96482 1.36852,-3.96482 -1.60537,0 -4.43426,2.25531 -4.43426,3.53518 0,1.73836 0.49163,1.80726 3.06574,0.42964 z M 84.174088,592.26763 c 0,-0.89105 -3.132473,-3.03518 -4.434259,-3.03518 -1.120426,0 -0.53721,2.84485 0.684259,3.33772 2.098803,0.84688 3.75,0.71367 3.75,-0.30254 z m 178.000002,-5.14217 c 0,-0.49116 -0.675,-0.89301 -1.5,-0.89301 -0.825,0 -1.5,0.66088 -1.5,1.46862 0,0.89459 0.58629,1.24363 1.5,0.89301 0.825,-0.31659 1.5,-0.97746 1.5,-1.46862 z m -177.000002,0.10699 c 0,-0.55 -0.701558,-1 -1.559017,-1 -0.857459,0 -1.280902,0.45 -0.940983,1 0.339919,0.55 1.041476,1 1.559017,1 0.517541,0 0.940983,-0.45 0.940983,-1 z M 246.26556,566.56797 c -3.77128,-7.25895 -5.48961,-8.1933 -3.03558,-1.65062 1.27538,3.40031 6.06855,10.52399 6.67381,9.91873 0.23793,-0.23793 -1.39928,-3.95858 -3.63823,-8.26811 z m -148.369078,4.38605 c 2.546068,-3.74024 4.624698,-9.18028 4.104308,-10.74145 -0.19477,-0.58432 -2.001998,2.33112 -4.016068,6.47874 -3.83191,7.89117 -3.87186,9.82096 -0.0882,4.26271 z m 16.277608,-4.26861 c 3.575,-1.79845 9.15667,-4.44192 12.40371,-5.87438 7.32331,-3.23075 6.68651,-4.40499 -1.09773,-2.02419 -7.66385,2.34398 -12.59197,4.82277 -19.52684,9.82175 -6.495368,4.68218 -7.643388,6.64435 -2.02914,3.46821 2.0625,-1.16682 6.675,-3.59295 10.25,-5.39139 z m 125.79904,3.27786 c -2.03553,-1.77695 -6.53553,-4.65532 -10,-6.39637 -6.64822,-3.34104 -16.83906,-6.70765 -16.74112,-5.53055 0.0598,0.71859 27.66099,14.81205 29.44208,15.03344 0.55,0.0684 -0.66543,-1.32958 -2.70096,-3.10652 z M 94.629902,564.68396 c 2.23081,-5.33908 3.90838,-19.38101 3.09407,-25.89857 -0.39316,-3.14673 -0.87931,-5.55685 -1.08033,-5.35582 -0.20103,0.20102 -0.63985,3.27641 -0.97515,6.83419 -1.62743,17.26801 -2.686011,26.4697 -3.127263,27.18366 -0.266846,0.43177 -0.239656,0.78503 0.06042,0.78503 0.300078,0 1.212791,-1.59682 2.028253,-3.54849 z m 155.866638,-8.20151 c -0.672,-6.4625 -1.25815,-14.45 -1.30254,-17.75 -0.0655,-4.8687 -0.28814,-5.64283 -1.18075,-4.10572 -1.67193,2.87911 -1.2885,18.24557 0.63868,25.59644 1.56381,5.96486 2.29213,8.00928 2.85331,8.00928 0.11722,0 -0.3367,-5.2875 -1.0087,-11.75 z m -78.32245,26.25 c 0,-0.825 -0.675,-1.5 -1.5,-1.5 -0.825,0 -1.5,-0.45 -1.5,-1 0,-0.55 1.575,-1 3.5,-1 1.925,0 3.5,0.45 3.5,1 0,0.55 -0.45,1 -1,1 -0.55,0 -1,0.675 -1,1.5 0,0.825 -0.45,1.5 -1,1.5 -0.55,0 -1,-0.675 -1,-1.5 z m -1,-6.5 c 0,-0.55 0.6375,-1 1.41667,-1 0.77916,0 1.64364,-0.5625 1.92105,-1.25 0.27741,-0.6875 0.53991,-0.2375 0.58333,1 0.0565,1.60965 -0.49025,2.25 -1.92105,2.25 -1.1,0 -2,-0.45 -2,-1 z"
         id="path3069"
         style="fill:#00007f;fill-opacity:1" />
      <path
         d="m 461.375,642.6875 -2.625,3.8125 0.21875,0.15625 3.375,-3.1875 -0.96875,-0.78125 z m -49.59375,4.1875 -0.8125,2.8125 0.28125,0.0625 c 0,0 0.24918,-0.64069 0.53125,-1.03125 0.21698,-0.28207 0.59387,-0.5408 1.375,-0.5625 1.17169,-0.0434 2.0625,-0.0625 2.0625,-0.0625 0,0 0.0625,2.73538 0.0625,3.625 0,0.75943 -0.01,1.59824 -0.0312,2.53125 -0.0434,1.51886 -0.20319,1.87677 -0.59375,2.09375 -0.41226,0.21698 -1.375,0.3125 -1.375,0.3125 l 0,0.28125 5.71875,0 0,-0.28125 c 0,0 -1.01828,-0.11722 -1.34375,-0.3125 -0.41226,-0.26038 -0.57205,-0.51239 -0.59375,-2.03125 0,-0.71603 -0.0312,-1.86557 -0.0312,-2.625 0,-0.91131 0.0312,-3.59375 0.0312,-3.59375 0,0 0.9993,0.0191 2.0625,0.0625 1.34527,0.0434 1.34375,0.3039 1.34375,0.78125 0,0.23868 -0.0937,0.875 -0.0937,0.875 l 0.25,0.0312 0.6875,-2.25 c 0.0515,0.005 0.7581,0.0719 1.21875,0.28125 0.54245,0.23868 0.63455,0.95413 0.65625,1.84375 0.0217,0.73773 0.0312,1.76486 0.0312,2.4375 0,0.58584 -0.0408,1.85425 -0.0625,2.375 -0.0217,0.62924 -0.0226,1.39069 -0.5,1.78125 -0.32547,0.26038 -1.4375,0.34375 -1.4375,0.34375 l 0,0.28125 5.75,0 0,-0.28125 c 0,0 -1.16498,-0.12677 -1.46875,-0.34375 -0.45566,-0.32547 -0.4783,-1.07736 -0.5,-1.75 -0.0217,-0.54245 -0.0312,-1.64682 -0.0312,-2.40625 0,-0.75943 -0.0122,-1.8421 0.0312,-2.40625 0.0651,-0.84622 0.0443,-1.40283 0.5,-1.75 0.28213,-0.21575 0.87343,-0.33322 1.1875,-0.375 0.30191,0.0282 0.73428,0.0957 1.0625,0.28125 0.47735,0.28207 0.83515,0.7927 1.3125,1.8125 1.47546,3.1462 2.21805,4.72785 3.28125,7.375 l 0.5,-0.0937 c 0.30377,-0.67264 2.28751,-4.95002 3.4375,-7.25 0.60754,-1.19339 0.96015,-1.56168 1.4375,-1.84375 0.3246,-0.19181 0.68594,-0.25519 0.9375,-0.28125 0.26657,0.0353 0.64982,0.10503 0.96875,0.25 0.54245,0.23868 0.6033,0.95413 0.625,1.84375 0.0217,0.73773 0.0312,1.76486 0.0312,2.4375 0,0.58584 -0.01,1.85425 -0.0312,2.375 -0.0217,0.62924 -0.0539,1.39069 -0.53125,1.78125 -0.32547,0.26038 -1.4375,0.34375 -1.4375,0.34375 l 0,0.28125 5.75,0 0,-0.28125 c 0,0 -1.16498,-0.12677 -1.46875,-0.34375 -0.45566,-0.32547 -0.4783,-1.07736 -0.5,-1.75 -0.0217,-0.54245 -0.0312,-1.64682 -0.0312,-2.40625 0,-0.75943 0.0191,-1.8421 0.0625,-2.40625 0.0651,-0.84622 0.0443,-1.40283 0.5,-1.75 0.36887,-0.28207 1.4375,-0.40625 1.4375,-0.40625 l 0,-0.28125 -5.09375,0 -0.59375,0 -3.65625,0 0,0.28125 c 0.30377,0.0434 1.09375,0.0557 1.09375,0.75 0,0.28207 -0.10507,0.68326 -0.34375,1.3125 -1.0415,2.62545 -2.1875,4.9375 -2.1875,4.9375 0,0 -1.17465,-2.28776 -2.28125,-5 -0.21698,-0.52075 -0.375,-0.93668 -0.375,-1.21875 0,-0.67264 0.72052,-0.73785 0.9375,-0.78125 l 0,-0.28125 -4.5625,0 -0.625,0 -4.96875,0 0.125,-0.375 -0.25,-0.0312 c -0.30377,0.49905 -0.71546,0.50955 -1.84375,0.53125 -1.21509,0.0217 -2.06262,0.0312 -2.84375,0.0312 -0.95471,0 -1.82053,-0.01 -3.1875,-0.0312 -1.36697,-0.0217 -1.27866,-0.33597 -1.34375,-0.53125 l -0.25,-0.0312 z m 32.9375,0 -0.8125,2.8125 0.28125,0.0625 c 0,0 0.24918,-0.64069 0.53125,-1.03125 0.21698,-0.28207 0.59387,-0.5408 1.375,-0.5625 1.17169,-0.0434 2.0625,-0.0625 2.0625,-0.0625 0,0 0.0312,2.73538 0.0312,3.625 0,0.75943 0.0217,1.59824 0,2.53125 -0.0434,1.51886 -0.20319,1.87677 -0.59375,2.09375 -0.41226,0.21698 -1.375,0.3125 -1.375,0.3125 l 0,0.28125 5.71875,0 0,-0.28125 c 0,0 -1.01828,-0.11722 -1.34375,-0.3125 -0.41226,-0.26038 -0.6033,-0.51239 -0.625,-2.03125 0,-0.71603 0,-1.86557 0,-2.625 0,-0.91131 0.0312,-3.59375 0.0312,-3.59375 0,0 0.96805,0.0191 2.03125,0.0625 1.34527,0.0434 1.34375,0.3039 1.34375,0.78125 0,0.23868 -0.0625,0.875 -0.0625,0.875 l 0.25,0.0312 0.6875,-2.21875 c 0.57917,0.0866 1.06693,0.20161 1.3125,0.40625 0.43396,0.32547 0.44705,1.01486 0.46875,1.6875 0.0217,0.73773 0.0312,1.51486 0.0312,2.1875 0,0.67264 -0.01,1.94977 -0.0312,2.6875 -0.0217,0.60754 -0.0617,1.17453 -0.34375,1.5 -0.21698,0.28207 -0.68503,0.43231 -1.53125,0.5625 l 0,0.28125 7.9375,0 c 0.45566,-1.25848 0.78125,-3.25 0.78125,-3.25 l -0.25,-0.0625 c -0.26038,0.82452 -0.54871,1.49835 -1.15625,2.0625 -0.52075,0.47735 -1.30567,0.6875 -2,0.6875 -0.84622,0 -1.22052,-0.13113 -1.4375,-0.5 -0.19528,-0.34717 -0.1658,-0.93326 -0.1875,-1.5625 -0.0217,-0.39056 -0.0312,-1.90625 -0.0312,-1.90625 l 1.375,0 c 0.60754,0 0.97311,0.0669 1.125,0.21875 0.32547,0.26038 0.3941,0.95578 0.4375,1.28125 l 0.28125,0 0,-3.4375 -0.28125,0 c -0.0868,0.36887 -0.22052,0.94186 -0.4375,1.09375 -0.19528,0.13019 -0.59729,0.13455 -1.03125,0.15625 -0.54245,0.0217 -1.46875,0.0312 -1.46875,0.0312 0,0 0.01,-2.25025 0.0312,-3.8125 0.73773,0 1.36203,0.01 1.6875,0.0312 0.71603,0.0434 1.27783,0.16498 1.625,0.46875 0.45566,0.39056 0.48785,1.16757 0.53125,1.40625 l 0.28125,0 0.0625,-2.78125 -0.21875,0 c -0.10849,0.17358 -0.30048,0.28125 -1.125,0.28125 l -3.78125,0 c -1.04373,0 -2.4237,-0.0291 -2.59375,-0.0312 l 0.125,-0.375 -0.25,-0.0312 c -0.30377,0.49905 -0.74671,0.50955 -1.875,0.53125 -1.21509,0.0217 -2.06262,0.0312 -2.84375,0.0312 -0.95471,0 -1.78928,-0.01 -3.15625,-0.0312 -1.36697,-0.0217 -1.30991,-0.33597 -1.375,-0.53125 l -0.21875,-0.0312 z m 114.75,0 -0.8125,2.8125 0.28125,0.0625 c 0,0 0.24918,-0.64069 0.53125,-1.03125 0.21698,-0.28207 0.59387,-0.5408 1.375,-0.5625 1.17169,-0.0434 2.0625,-0.0625 2.0625,-0.0625 0,0 0.0625,2.73538 0.0625,3.625 0,0.75943 -0.01,1.59824 -0.0312,2.53125 -0.0434,1.51886 -0.20319,1.87677 -0.59375,2.09375 -0.41226,0.21698 -1.375,0.3125 -1.375,0.3125 l 0,0.28125 5.71875,0 0,-0.28125 c 0,0 -1.01828,-0.11722 -1.34375,-0.3125 -0.41226,-0.26038 -0.57205,-0.51239 -0.59375,-2.03125 0,-0.71603 -0.0312,-1.86557 -0.0312,-2.625 0,-0.91131 0.0312,-3.59375 0.0312,-3.59375 0,0 0.9993,0.0191 2.0625,0.0625 1.34527,0.0434 1.34375,0.3039 1.34375,0.78125 0,0.23868 -0.0937,0.875 -0.0937,0.875 l 0.25,0.0312 0.6875,-2.25 c 0.0515,0.005 0.7581,0.0719 1.21875,0.28125 0.54245,0.23868 0.63455,0.95413 0.65625,1.84375 0.0217,0.73773 0.0312,1.76486 0.0312,2.4375 0,0.58584 -0.0408,1.85425 -0.0625,2.375 -0.0217,0.62924 -0.0226,1.39069 -0.5,1.78125 -0.32547,0.26038 -1.4375,0.34375 -1.4375,0.34375 l 0,0.28125 5.75,0 0,-0.28125 c 0,0 -1.16498,-0.12677 -1.46875,-0.34375 -0.45566,-0.32547 -0.4783,-1.07736 -0.5,-1.75 -0.0217,-0.54245 -0.0312,-1.64682 -0.0312,-2.40625 0,-0.75943 -0.0122,-1.8421 0.0312,-2.40625 0.0651,-0.84622 0.0443,-1.40283 0.5,-1.75 0.36887,-0.28207 1.46875,-0.40625 1.46875,-0.40625 l 0,-0.28125 -5.59375,0 0.125,-0.375 -0.25,-0.0312 c -0.30377,0.49905 -0.71546,0.50955 -1.84375,0.53125 -1.21509,0.0217 -2.06262,0.0312 -2.84375,0.0312 -0.95471,0 -1.82053,-0.01 -3.1875,-0.0312 -1.36697,-0.0217 -1.27866,-0.33597 -1.34375,-0.53125 l -0.25,-0.0312 z m -188.75,0.1875 c -0.10849,0.17358 -0.26923,0.28125 -1.09375,0.28125 l -3.78125,0 c -1.1066,0 -2.75,-0.0312 -2.75,-0.0312 l 0,0.28125 c 0.62924,0.0868 1.11462,0.22052 1.375,0.4375 0.43396,0.32547 0.4783,1.01486 0.5,1.6875 0.0217,0.73773 0,1.51486 0,2.1875 0,0.67264 0.0217,1.94977 0,2.6875 -0.0217,0.60754 -0.0617,1.17453 -0.34375,1.5 -0.21698,0.28207 -0.68503,0.43231 -1.53125,0.5625 l 0,0.28125 7.9375,0 c 0.45566,-1.25848 0.78125,-3.25 0.78125,-3.25 l -0.25,-0.0625 c -0.26038,0.82452 -0.54871,1.49835 -1.15625,2.0625 -0.52075,0.47735 -1.33692,0.6875 -2.03125,0.6875 -0.84622,0 -1.22052,-0.13113 -1.4375,-0.5 -0.19528,-0.34717 -0.1658,-0.93326 -0.1875,-1.5625 -0.0217,-0.39056 0,-1.90625 0,-1.90625 l 1.34375,0 c 0.60754,0 0.97311,0.0669 1.125,0.21875 0.32547,0.26038 0.42535,0.95578 0.46875,1.28125 l 0.25,0 0,-3.4375 -0.25,0 c -0.0868,0.36887 -0.22052,0.94186 -0.4375,1.09375 -0.19528,0.13019 -0.59729,0.13455 -1.03125,0.15625 -0.54245,0.0217 -1.46875,0.0312 -1.46875,0.0312 0,0 0.01,-2.25025 0.0312,-3.8125 0.73773,0 1.33078,0.01 1.65625,0.0312 0.71603,0.0434 1.27783,0.16498 1.625,0.46875 0.45566,0.39056 0.5191,1.16757 0.5625,1.40625 l 0.28125,0 0.0312,-2.78125 -0.21875,0 z m 237.75,0 c -0.10849,0.17358 -0.26923,0.28125 -1.09375,0.28125 l -3.78125,0 c -1.1066,0 -2.75,-0.0312 -2.75,-0.0312 l 0,0.28125 c 0.62924,0.0868 1.11462,0.22052 1.375,0.4375 0.43396,0.32547 0.44705,1.01486 0.46875,1.6875 0.0217,0.73773 0.0312,1.51486 0.0312,2.1875 0,0.67264 -0.01,1.94977 -0.0312,2.6875 -0.0217,0.60754 -0.0304,1.17453 -0.3125,1.5 -0.21698,0.28207 -0.68503,0.43231 -1.53125,0.5625 l 0,0.28125 7.9375,0 c 0.45566,-1.25848 0.78125,-3.25 0.78125,-3.25 l -0.25,-0.0625 c -0.26038,0.82452 -0.54871,1.49835 -1.15625,2.0625 -0.52075,0.47735 -1.33692,0.6875 -2.03125,0.6875 -0.84622,0 -1.22052,-0.13113 -1.4375,-0.5 -0.19528,-0.34717 -0.1658,-0.93326 -0.1875,-1.5625 -0.0217,-0.39056 -0.0312,-1.90625 -0.0312,-1.90625 l 1.375,0 c 0.60754,0 0.97311,0.0669 1.125,0.21875 0.32547,0.26038 0.42535,0.95578 0.46875,1.28125 l 0.25,0 0,-3.4375 -0.25,0 c -0.0868,0.36887 -0.22052,0.94186 -0.4375,1.09375 -0.19528,0.13019 -0.59729,0.13455 -1.03125,0.15625 -0.54245,0.0217 -1.5,0.0312 -1.5,0.0312 0,0 0.0408,-2.25025 0.0625,-3.8125 0.73773,0 1.33078,0.01 1.65625,0.0312 0.71603,0.0434 1.27783,0.16498 1.625,0.46875 0.45566,0.39056 0.5191,1.16757 0.5625,1.40625 l 0.28125,0 0.0312,-2.78125 -0.21875,0 z m -124.28125,0.0312 c -2.82073,0 -4.71875,1.80155 -4.71875,3.90625 0,3.10281 2.46476,3.81876 4.65625,4.96875 1.58395,0.82452 2.59375,1.48551 2.59375,3.15625 0,1.88772 -1.57666,2.75 -3.3125,2.75 -1.84433,0 -3.06168,-1.02524 -3.34375,-1.4375 -0.49905,-0.71603 -0.80472,-1.46109 -1,-2.4375 l -0.3125,0.0312 0.34375,4.53125 0.28125,0 0.34375,-0.6875 c 0.45566,0.17358 1.62619,0.90625 3.6875,0.90625 3.40658,0 5.78125,-1.86677 5.78125,-4.6875 0,-3.05941 -2.9578,-3.76581 -5.0625,-4.9375 -1.21509,-0.67264 -2.34375,-1.44553 -2.34375,-2.8125 0,-1.64904 1.32053,-2.40625 2.6875,-2.40625 1.30188,0 2.44104,0.45755 2.875,1 0.62924,0.78113 0.74481,1.34647 0.875,2.0625 l 0.3125,-0.0312 -0.1875,-3.8125 -0.25,0 c 0,0 -0.20578,0.4375 -0.53125,0.4375 -0.21698,0 -1.46558,-0.5 -3.375,-0.5 z m 46.0625,0.0312 c -3.36318,0 -5.71875,2.15238 -5.71875,5.125 0,2.1698 1.31098,3.45236 2.65625,4.125 1.0415,0.54245 2.24835,0.65625 2.8125,0.65625 0.43396,0 0.96875,-0.0625 0.96875,-0.0625 1.25848,0.93301 3.23892,2.29093 4.5625,3.09375 0.88962,0.54245 2.18598,1.09375 3.53125,1.09375 2.60375,0 3.93244,-1.35437 4.84375,-2.65625 l -0.3125,-0.1875 c -0.71603,0.93301 -1.44907,1.6875 -3.25,1.6875 -1.0198,0 -1.82572,-0.24835 -3.0625,-0.8125 -1.58395,-0.75943 -4.53125,-2.875 -4.53125,-2.875 1.49716,-0.88962 2.71875,-2.54978 2.71875,-4.4375 0,-2.64715 -2.11594,-4.75 -5.21875,-4.75 z m 51.3125,0 c -3.36318,0 -5.6875,2.15238 -5.6875,5.125 0,2.1698 1.27973,3.45236 2.625,4.125 1.0415,0.54245 2.24835,0.65625 2.8125,0.65625 0.43396,0 0.96875,-0.0625 0.96875,-0.0625 1.25848,0.93301 3.23892,2.29093 4.5625,3.09375 0.88962,0.54245 2.21723,1.09375 3.5625,1.09375 2.60375,0 3.90119,-1.35437 4.8125,-2.65625 l -0.3125,-0.1875 c -0.71603,0.93301 -1.41782,1.6875 -3.21875,1.6875 -1.0198,0 -1.85697,-0.24835 -3.09375,-0.8125 -1.58395,-0.75943 -4.5,-2.875 -4.5,-2.875 1.49716,-0.88962 2.6875,-2.54978 2.6875,-4.4375 0,-2.64715 -2.11594,-4.75 -5.21875,-4.75 z m -205,0.0312 c -1.84433,0 -3.15625,1.11133 -3.15625,2.5 0,1.99621 1.64517,2.53397 2.96875,3.25 1.0415,0.56415 1.65625,0.7901 1.65625,1.875 0,1.25848 -1.03314,1.8125 -2.03125,1.8125 -1.0198,0 -1.67453,-0.54434 -2,-1 -0.28207,-0.41226 -0.56686,-1.01486 -0.71875,-1.6875 l -0.3125,0.0625 0.21875,3 0.25,0 0.28125,-0.4375 c 0,0 0.94553,0.59375 2.3125,0.59375 2.1264,0 3.8125,-1.12442 3.8125,-2.96875 0,-1.95282 -1.87348,-2.48102 -3.21875,-3.21875 -0.84622,-0.45566 -1.53125,-0.85083 -1.53125,-1.71875 0,-1.1066 0.89682,-1.5 1.65625,-1.5 0.65094,0 1.22925,0.12076 1.75,0.75 0.36887,0.45566 0.43231,0.96015 0.5625,1.4375 l 0.3125,-0.0312 -0.125,-2.5625 -0.21875,0 c 0,0 -0.11462,0.1875 -0.375,0.1875 -0.36887,-0.0434 -0.94376,-0.34375 -2.09375,-0.34375 z m 30.25,0 c -3.16093,0.2468 -5.28125,2.32726 -5.28125,5.09375 0,3.34148 3.05167,4.90625 5.9375,4.90625 1.0849,0 1.66675,-0.1875 2.1875,-0.1875 0.26038,0 0.46875,0.0625 0.46875,0.0625 0.56415,-1.25848 1.09375,-3 1.09375,-3 l -0.3125,-0.0625 c -0.30377,0.65094 -0.75354,1.48444 -1.1875,1.875 -0.49905,0.45566 -1.05048,0.71875 -1.875,0.71875 -1.82263,0 -3.08692,-1.06534 -3.78125,-2.5625 -0.26038,-0.56415 -0.40625,-1.34824 -0.40625,-2.28125 0,-2.58206 1.79718,-4 3.75,-4 0.93301,0 1.95496,0.19977 2.5625,0.9375 0.36887,0.43396 0.46875,1.625 0.46875,1.625 l 0.3125,0 c 0,-0.56415 0.21875,-2.90625 0.21875,-2.90625 l -0.21875,-0.0312 c 0,0 -0.17972,0.25 -0.375,0.25 -0.32547,-0.0651 -1.38739,-0.4375 -2.90625,-0.4375 -0.21969,0 -0.44552,-0.0164 -0.65625,0 z m 60.84375,0 c -1.84433,0 -3.1875,1.11133 -3.1875,2.5 0,1.99621 1.64517,2.53397 2.96875,3.25 1.0415,0.56415 1.6875,0.7901 1.6875,1.875 0,1.25848 -1.06439,1.8125 -2.0625,1.8125 -1.0198,0 -1.67453,-0.54434 -2,-1 -0.28207,-0.41226 -0.56686,-1.01486 -0.71875,-1.6875 l -0.3125,0.0625 0.21875,3 0.28125,0 0.25,-0.4375 c 0,0 0.94553,0.59375 2.3125,0.59375 2.1264,0 3.8125,-1.12442 3.8125,-2.96875 0,-1.95282 -1.84223,-2.48102 -3.1875,-3.21875 -0.84622,-0.45566 -1.5625,-0.85083 -1.5625,-1.71875 0,-1.1066 0.89682,-1.5 1.65625,-1.5 0.65094,0 1.22925,0.12076 1.75,0.75 0.36887,0.45566 0.43231,0.96015 0.5625,1.4375 l 0.3125,-0.0312 -0.0937,-2.5625 -0.25,0 c 0,0 -0.11462,0.1875 -0.375,0.1875 -0.36887,-0.0434 -0.91251,-0.34375 -2.0625,-0.34375 z m 146.65625,0 c -1.84433,0 -3.15625,1.11133 -3.15625,2.5 0,1.99621 1.64517,2.53397 2.96875,3.25 1.0415,0.56415 1.65625,0.7901 1.65625,1.875 0,1.25848 -1.06439,1.8125 -2.0625,1.8125 -1.0198,0 -1.64328,-0.54434 -1.96875,-1 -0.28207,-0.41226 -0.56686,-1.01486 -0.71875,-1.6875 l -0.3125,0.0625 0.21875,3 0.25,0 0.25,-0.4375 c 0,0 0.97678,0.59375 2.34375,0.59375 2.1264,0 3.8125,-1.12442 3.8125,-2.96875 0,-1.95282 -1.87348,-2.48102 -3.21875,-3.21875 -0.84622,-0.45566 -1.53125,-0.85083 -1.53125,-1.71875 0,-1.1066 0.89682,-1.5 1.65625,-1.5 0.65094,0 1.22925,0.12076 1.75,0.75 0.36887,0.45566 0.43231,0.96015 0.5625,1.4375 l 0.3125,-0.0312 -0.125,-2.5625 -0.21875,0 c 0,0 -0.11462,0.1875 -0.375,0.1875 -0.36887,-0.0434 -0.94376,-0.34375 -2.09375,-0.34375 z m -263.625,0.15625 0,0.28125 c 0,0 0.9072,0.0712 1.40625,0.375 0.17358,0.10849 0.43491,0.23197 0.5,1.46875 0.0434,0.62924 0.0625,1.79352 0.0625,2.53125 0,0.88962 -0.0287,2.19281 -0.0937,2.84375 -0.0868,0.82452 -0.11899,1.23962 -0.53125,1.5 -0.39056,0.23868 -1.4375,0.34375 -1.4375,0.34375 l 0,0.28125 c 0,0 1.24329,0 2.71875,0 0.93301,0 2.03137,0.0937 2.8125,0.0937 3.47167,0 5.84375,-2.25651 5.84375,-4.96875 0,-3.38488 -3.23316,-4.75 -6.53125,-4.75 -1.97451,0 -4.75,0 -4.75,0 z m 40.28125,0 0,0.34375 c 0.75943,0.0651 1.81345,0.10343 2.3125,0.90625 0,0 -2.67383,6.96842 -4.0625,10.375 -0.65094,1.60565 -1.2197,2.37158 -1.71875,2.71875 -0.69433,0.45566 -1.8125,0.53125 -1.8125,0.53125 l 0,0.3125 6.34375,0 0,-0.3125 c -0.47735,-0.0868 -1.96875,-0.0584 -1.96875,-1.46875 0,-0.28207 0.14151,-0.72488 0.25,-1.09375 0.32547,-1.1066 1.0625,-3.25 1.0625,-3.25 l 5.21875,0 c 0,0 0.38291,1.08881 0.96875,2.78125 0.19528,0.54245 0.375,1.14765 0.375,1.625 0,1.28018 -1.63986,1.31946 -2.3125,1.40625 l 0,0.3125 7.90625,0 0,-0.3125 c -0.95471,-0.0868 -2.40378,-0.41181 -3.25,-2.625 -1.54055,-3.99242 -4.21875,-11.03125 -4.21875,-11.03125 0.10849,-0.41226 0.56876,-0.78821 1.71875,-0.875 l 0,-0.34375 -6.8125,0 z m 99.75,0 0,0.28125 c 0,0 0.84729,0.0834 1.28125,0.34375 0.30377,0.17358 0.4566,0.45673 0.5,1.28125 0.0651,1.12829 0.0625,2.96463 0.0625,4.375 0,2.1264 1.28174,3.59375 4.40625,3.59375 3.03771,0 4.15625,-1.79895 4.15625,-3.96875 0,-1.14999 0.01,-2.63291 0.0312,-3.21875 0.0434,-1.12829 0.0322,-1.71533 0.53125,-2.0625 0.45566,-0.30377 1.3125,-0.34375 1.3125,-0.34375 l 0,-0.28125 -4.75,0 0,0.28125 c 0,0 0.71274,0.0356 1.125,0.1875 0.71603,0.28207 0.92535,0.70426 0.96875,2.375 0.0217,0.78113 0.0312,1.31781 0.0312,1.96875 0,1.34527 0.0407,2.58173 -0.71875,3.40625 -0.43396,0.45566 -1.19022,0.71875 -1.90625,0.71875 -3.31979,0 -3.32205,-2.13044 -3.34375,-3.5625 -0.0217,-0.39056 -0.0312,-1.06781 -0.0312,-1.71875 0,-0.65094 0.0312,-1.27087 0.0312,-1.53125 0.0434,-0.80282 0.10944,-1.23007 0.5,-1.46875 0.43396,-0.28207 1.4375,-0.375 1.4375,-0.375 l 0,-0.28125 -5.625,0 z m 12.90625,0 0,0.28125 c 0,0 1.04953,0.13632 1.375,0.375 0.17358,0.13019 0.42535,0.3335 0.46875,1.375 0.0217,0.54245 0.0312,2.1763 0.0312,2.71875 0,0.84622 0.0243,1.56357 -0.0625,2.84375 -0.0651,0.88962 -0.24918,1.23267 -0.53125,1.40625 -0.47735,0.28207 -1.40625,0.34375 -1.40625,0.34375 l 0,0.28125 2.90625,0 c 0.84622,0 1.76227,0.0625 2.5,0.0625 2.01791,0 3.875,-0.94907 3.875,-2.75 0,-1.56225 -1.38221,-2.35767 -3.03125,-2.53125 l 0,-0.0312 c 0.34717,-0.10849 2.3125,-0.63221 2.3125,-2.28125 0,-1.17169 -1.05945,-2.09375 -3.75,-2.09375 -1.71414,0 -4.6875,0 -4.6875,0 z m 12.59375,0 0,0.28125 c 0.43396,0.0434 1.24918,-0.007 1.53125,0.6875 0,0 -1.81781,4.49329 -2.46875,5.96875 -0.41226,0.91131 -0.80908,1.61203 -1.15625,1.9375 -0.41226,0.39056 -0.87854,0.44705 -1.3125,0.46875 l 0,0.28125 4.4375,0 0,-0.28125 c -0.30377,-0.0217 -1.4375,0.0146 -1.4375,-0.875 0,-0.30377 0.11981,-0.6789 0.25,-1.15625 0.13019,-0.43396 0.28302,-0.86121 0.5,-1.46875 l 3.28125,0 c 0,0 0.37677,0.94281 0.59375,1.59375 0.15189,0.45566 0.21875,0.73703 0.21875,1.0625 0,0.78113 -1.14069,0.80035 -1.53125,0.84375 l 0,0.28125 5.4375,0 0,-0.28125 c -0.36887,-0.0217 -0.83078,-0.0955 -1.15625,-0.3125 -0.36887,-0.23868 -0.62335,-0.53928 -1.1875,-1.90625 -0.52075,-1.21509 -2.5625,-6.34375 -2.5625,-6.34375 0.19528,-0.47735 1.15625,-0.5 1.15625,-0.5 l 0,-0.28125 -4.59375,0 z m 20.375,0 0,0.28125 c 0,0 0.84729,0.0834 1.28125,0.34375 0.30377,0.17358 0.48785,0.45673 0.53125,1.28125 0.0651,1.12829 0.0312,2.96463 0.0312,4.375 0,2.1264 1.28174,3.59375 4.40625,3.59375 3.03771,0 4.1875,-1.79895 4.1875,-3.96875 0,-1.14999 0.01,-2.63291 0.0312,-3.21875 0.0434,-1.12829 0.0322,-1.71533 0.53125,-2.0625 0.45566,-0.30377 1.28125,-0.34375 1.28125,-0.34375 l 0,-0.28125 -4.75,0 0,0.28125 c 0,0 0.74399,0.0356 1.15625,0.1875 0.71603,0.28207 0.92535,0.70426 0.96875,2.375 0.0217,0.78113 0,1.31781 0,1.96875 0,1.34527 0.0719,2.58173 -0.6875,3.40625 -0.43396,0.45566 -1.22147,0.71875 -1.9375,0.71875 -3.31979,0 -3.32205,-2.13044 -3.34375,-3.5625 -0.0217,-0.39056 0,-1.06781 0,-1.71875 0,-0.65094 0,-1.27087 0,-1.53125 0.0434,-0.80282 0.10944,-1.23007 0.5,-1.46875 0.43396,-0.28207 1.46875,-0.375 1.46875,-0.375 l 0,-0.28125 -5.65625,0 z m 15.1875,0 0,0.28125 c 0.43396,0.0434 1.24918,-0.007 1.53125,0.6875 0,0 -1.81781,4.49329 -2.46875,5.96875 -0.41226,0.91131 -0.80908,1.61203 -1.15625,1.9375 -0.41226,0.39056 -0.87854,0.44705 -1.3125,0.46875 l 0,0.28125 4.40625,0 0,-0.28125 c -0.30377,-0.0217 -1.40625,0.0146 -1.40625,-0.875 0,-0.30377 0.11981,-0.6789 0.25,-1.15625 0.13019,-0.43396 0.28302,-0.86121 0.5,-1.46875 l 3.28125,0 c 0,0 0.37677,0.94281 0.59375,1.59375 0.15189,0.45566 0.21875,0.73703 0.21875,1.0625 0,0.78113 -1.14069,0.80035 -1.53125,0.84375 l 0,0.28125 5.4375,0 0,-0.28125 c -0.36887,-0.0217 -0.83078,-0.0955 -1.15625,-0.3125 -0.36887,-0.23868 -0.62335,-0.53928 -1.1875,-1.90625 -0.52075,-1.21509 -2.5625,-6.34375 -2.5625,-6.34375 0.19528,-0.47735 1.15625,-0.5 1.15625,-0.5 l 0,-0.28125 -4.59375,0 z m 36.15625,0 0,0.28125 c 0,0 0.84729,0.0834 1.28125,0.34375 0.30377,0.17358 0.4566,0.45673 0.5,1.28125 0.0651,1.12829 0.0625,2.96463 0.0625,4.375 0,2.1264 1.28174,3.59375 4.40625,3.59375 3.03771,0 4.15625,-1.79895 4.15625,-3.96875 0,-1.14999 0.01,-2.63291 0.0312,-3.21875 0.0434,-1.12829 0.0322,-1.71533 0.53125,-2.0625 0.45566,-0.30377 1.3125,-0.34375 1.3125,-0.34375 l 0,-0.28125 -4.75,0 0,0.28125 c 0,0 0.71274,0.0356 1.125,0.1875 0.71603,0.28207 0.92535,0.70426 0.96875,2.375 0.0217,0.78113 0.0312,1.31781 0.0312,1.96875 0,1.34527 0.0407,2.58173 -0.71875,3.40625 -0.43396,0.45566 -1.19022,0.71875 -1.90625,0.71875 -3.31979,0 -3.32205,-2.13044 -3.34375,-3.5625 -0.0217,-0.39056 -0.0312,-1.06781 -0.0312,-1.71875 0,-0.65094 0.0312,-1.27087 0.0312,-1.53125 0.0434,-0.80282 0.10944,-1.23007 0.5,-1.46875 0.43396,-0.28207 1.4375,-0.375 1.4375,-0.375 l 0,-0.28125 -5.625,0 z m -58.25,0.40625 c 2.27829,0 3.625,2.18787 3.625,4.53125 0,1.93112 -0.48197,3.38727 -1.71875,4.125 0,0 -0.40283,0.0937 -0.75,0.0937 -1.80093,0 -4.125,-1.23753 -4.125,-4.6875 0,-2.73394 1.3848,-4.0625 2.96875,-4.0625 z m 51.3125,0 c 2.27829,0 3.65625,2.18787 3.65625,4.53125 0,1.93112 -0.51322,3.38727 -1.75,4.125 0,0 -0.37158,0.0937 -0.71875,0.0937 -1.80093,0 -4.125,-1.23753 -4.125,-4.6875 0,-2.73394 1.35355,-4.0625 2.9375,-4.0625 z m -73.65625,0.0625 c 0.84622,0 2.78125,0.0758 2.78125,2.09375 0,1.25848 -0.91169,1.87241 -2.34375,1.9375 l 0,0.34375 c 1.67074,0 3,0.69989 3,2.21875 0,1.93112 -1.29611,2.15625 -1.96875,2.15625 -0.82452,0 -1.41321,-0.43244 -1.5,-1.34375 -0.0651,-0.78113 -0.0625,-1.78669 -0.0625,-3.21875 0,-2.62545 0.0937,-4.1875 0.0937,-4.1875 z m -152.90625,0.0312 c 1.34527,0 2.27536,0.0817 3.46875,0.90625 1.21509,0.84622 1.96875,2.17383 1.96875,3.5625 0,1.25848 -0.2302,2.47324 -1.25,3.40625 -0.56415,0.49905 -1.48279,0.875 -2.4375,0.875 -0.54245,0 -1.7066,-0.0974 -1.75,-1.3125 -0.0217,-0.75943 -0.0625,-2.02017 -0.0625,-3.34375 0,-1.28018 0.0625,-4.09375 0.0625,-4.09375 z M 518.09375,649 l 0.0312,0 1.46875,3.4375 -2.78125,0 L 518.0937,649 z m 35.5625,0 0.0312,0 1.46875,3.4375 -2.78125,0 L 553.6562,649 z m -159.6875,0.625 2.1875,5.625 -4.375,0 c 0.82452,-2.29998 2.1875,-5.625 2.1875,-5.625 z"
         id="text3081"
         style="font-size:21.69797516px;font-style:normal;font-variant:normal;font-weight:normal;font-stretch:normal;line-height:100%;letter-spacing:0px;word-spacing:0px;fill:#00007f;fill-opacity:1;stroke:none;font-family:Arial;-inkscape-font-specification:Arial" />
      <path
         d="m 325,522.84375 c -26.76943,0 -43.84375,17.92553 -43.84375,40.125 0,26.00821 21.69991,39.09375 43.9375,39.09375 6.85044,0 11.2874,-1.65625 14.34375,-1.65625 2.84557,0 5.25,0.5625 5.25,0.5625 4.84801,-7.61747 7.40625,-20.5625 7.40625,-20.5625 l -1.5,-0.4375 c -1.68626,4.02638 -3.25677,8.47141 -7.15625,12.0625 -4.21566,3.91755 -9.17651,5.4375 -15.5,5.4375 -16.96802,0 -32.125,-13.37854 -32.125,-38.625 0,-20.13188 14.33098,-31.65625 28.875,-31.65625 7.79897,0 16.22552,2.05674 20.125,7.0625 2.52939,3.26463 3.15625,11 3.15625,11 l 1.59375,0 c 0.42157,-11.9703 1.875,-21.21875 1.875,-21.21875 l -1.25,-0.21875 c -1.15931,1.19703 -1.47428,2.375 -3.6875,2.375 -1.15931,0 -9.69616,-3.34375 -21.5,-3.34375 z m 246,0.1875 c -13.70089,0 -23,9.03812 -23,19.59375 0,15.5614 11.91796,19.26374 22.5625,25.03125 7.69358,4.1352 12.65625,7.40204 12.65625,15.78125 0,9.46742 -7.69368,13.8125 -16.125,13.8125 -8.95827,0 -14.87991,-5.21365 -16.25,-7.28125 -2.424,-3.59109 -3.89523,-7.29056 -4.84375,-12.1875 L 544.53125,578 l 1.6875,22.625 1.375,0 1.5625,-3.375 c 2.21322,0.87057 7.92531,4.46875 17.9375,4.46875 16.54646,0 28.125,-9.25953 28.125,-23.40625 0,-15.34375 -14.33953,-18.90492 -24.5625,-24.78125 -5.90192,-3.37345 -11.375,-7.30053 -11.375,-14.15625 0,-8.27039 6.42284,-12.09375 13.0625,-12.09375 6.32349,0 11.82967,2.40448 13.9375,5.125 3.05635,3.91755 3.5864,6.62766 4.21875,10.21875 l 1.46875,-0.0937 -0.84375,-19.0625 -1.28125,0 c 0,0 -0.95038,2.1875 -2.53125,2.1875 -1.05391,0 -7.03805,-2.625 -16.3125,-2.625 z m -208.875,1.21875 0,1.625 c 0,0 4.73592,0.5379 6.84375,1.84375 4.00487,2.50288 4.53249,4.57912 6.21875,7.84375 0,0 -3.36521,30.24889 -6,45.375 -1.15931,6.42044 -2.40811,10.87433 -4.9375,13.8125 -2.74018,3.15581 -10.03125,4.03125 -10.03125,4.03125 l 0,1.625 32.375,0 0,-1.5 c 0,0 -4.74818,-0.44526 -7.59375,-1.96875 -3.26713,-1.84996 -4,-3.16445 -4,-7.84375 0,-13.05851 4.3125,-45.59375 4.3125,-45.59375 l 0.21875,0 c 2.52939,6.31162 4.50982,10.56338 7.25,16.875 3.37253,7.83511 8.65505,18.50465 12.34375,28.625 2.95096,8.05275 4,11.75 4,11.75 l 1.78125,0 c 1.47548,-5.87633 6.55639,-17.21077 8.875,-21.78125 3.26713,-6.42044 6.32723,-11.94503 10.4375,-19.5625 4.63722,-8.59686 8.625,-17.09375 8.625,-17.09375 l 0.3125,0.0937 c 0.10539,6.31162 0.54718,10.34463 0.96875,16.65625 0.73774,10.01153 1.6875,16.43883 1.6875,25.90625 0,5.22341 -0.55271,8.3883 -3.1875,11 -2.63479,2.6117 -10.21875,2.8125 -10.21875,2.8125 l 0,1.625 35.25,0 4.1875,0 26.5625,0 0,-1.625 c -2.31861,-0.43528 -9.46875,-0.20789 -9.46875,-7.28125 0,-1.41467 0.62929,-3.71254 1.15625,-5.5625 1.58087,-5.54987 5.15625,-16.21875 5.15625,-16.21875 l 25.3125,0 c 0,0 1.87318,5.35572 4.71875,13.84375 0.94852,2.72052 1.8125,5.76219 1.8125,8.15625 0,6.42044 -7.92037,6.62722 -11.1875,7.0625 l 0,1.625 38.46875,0 0,-1.625 c -4.63722,-0.43528 -11.70223,-1.96276 -15.8125,-13.0625 -7.48279,-20.02306 -20.53125,-55.375 -20.53125,-55.375 0.52696,-2.0676 2.85175,-4.03347 8.4375,-4.46875 l 0,-1.625 -33.21875,0 0,1.625 c 3.6887,0.32646 8.85725,0.66112 11.28125,4.6875 0,0 -12.9737,34.82136 -19.71875,51.90625 -3.16174,8.05275 -5.98225,11.97761 -8.40625,13.71875 -2.05359,1.39152 -4.84586,2.03624 -6.71875,2.34375 -1.30422,-0.21764 -3.0619,-0.61325 -4.90625,-1.375 -3.37253,-1.30585 -5.50491,-2.51861 -6.875,-12.3125 -0.94852,-7.07336 -1.87929,-18.59574 -2.40625,-25.125 -0.73774,-10.01153 -1.15625,-14.13519 -1.15625,-25.34375 0,-3.69991 1.67404,-6.00554 4.625,-7.09375 2.95096,-1.08821 6,-1.40625 6,-1.40625 l 0,-1.625 -32.4375,0 0,1.625 c 0,0 8.82905,0.64938 10.09375,5.4375 -4.74261,11.20856 -9.35972,19.04033 -15.15625,30.03125 -3.6887,6.96454 -9.8125,18.5 -9.8125,18.5 0,0 -3.99389,-8.91888 -6.3125,-14.46875 -5.90192,-13.92908 -11.38177,-24.69104 -15.28125,-34.59375 1.47548,-4.46166 9.375,-4.90625 9.375,-4.90625 l 0,-1.625 -33.3125,0 z m 135.6875,11.53125 0.0937,0 10.65625,28.28125 -21.3125,0 c 4.00487,-11.53502 10.5625,-28.28125 10.5625,-28.28125 z"
         id="text3085"
         style="font-size:107.09257507px;font-style:normal;font-variant:normal;font-weight:normal;font-stretch:normal;line-height:100%;letter-spacing:0px;word-spacing:0px;fill:#00007f;fill-opacity:1;stroke:none;font-family:Mantinia;-inkscape-font-specification:Mantinia" />
      <path
         d="m 406.625,616.0625 -2.59375,3.78125 0.1875,0.1875 3.375,-3.1875 -0.96875,-0.78125 z m 22,0 -2.59375,3.78125 0.1875,0.1875 3.375,-3.1875 -0.96875,-0.78125 z m 23.21875,4.1875 -0.8125,2.78125 0.28125,0.0625 c 0,0 0.24918,-0.64069 0.53125,-1.03125 0.21698,-0.28207 0.59387,-0.5408 1.375,-0.5625 1.17169,-0.0434 2.0625,-0.0312 2.0625,-0.0312 0,0 0.0625,2.70413 0.0625,3.59375 0,0.75943 -0.01,1.62949 -0.0312,2.5625 -0.0434,1.51886 -0.20319,1.84552 -0.59375,2.0625 -0.41226,0.21698 -1.375,0.34375 -1.375,0.34375 l 0,0.28125 5.71875,0 0,-0.28125 c 0,0 -1.01828,-0.14847 -1.34375,-0.34375 -0.41226,-0.26038 -0.57205,-0.51239 -0.59375,-2.03125 0,-0.71603 -0.0312,-1.86557 -0.0312,-2.625 0,-0.91131 0.0312,-3.5625 0.0312,-3.5625 0,0 0.9993,-0.0122 2.0625,0.0312 1.34527,0.0434 1.34375,0.3039 1.34375,0.78125 0,0.23868 -0.0937,0.875 -0.0937,0.875 l 0.25,0.0625 0.6875,-2.25 c 0.0522,0.005 0.75836,0.072 1.21875,0.28125 0.54245,0.23868 0.63455,0.92288 0.65625,1.8125 0.0217,0.73773 0.0312,1.76486 0.0312,2.4375 0,0.58584 -0.0408,1.85425 -0.0625,2.375 -0.0217,0.62924 -0.0226,1.39069 -0.5,1.78125 -0.32547,0.26038 -1.4375,0.375 -1.4375,0.375 l 0,0.28125 5.75,0 0,-0.28125 c 0,0 -1.16498,-0.15802 -1.46875,-0.375 -0.45566,-0.32547 -0.4783,-1.07736 -0.5,-1.75 -0.0217,-0.54245 -0.0312,-1.64682 -0.0312,-2.40625 0,-0.75943 -0.0122,-1.8421 0.0312,-2.40625 0.0651,-0.84622 0.0443,-1.40283 0.5,-1.75 0.36887,-0.28207 1.46875,-0.375 1.46875,-0.375 l 0,-0.28125 -5.59375,0 0.125,-0.375 -0.25,-0.0625 c -0.30377,0.49905 -0.71546,0.50955 -1.84375,0.53125 -1.21509,0.0217 -2.06262,0.0312 -2.84375,0.0312 -0.95471,0 -1.82053,-0.01 -3.1875,-0.0312 -1.36697,-0.0217 -1.27866,-0.33597 -1.34375,-0.53125 l -0.25,0 z m -92.5,0.125 c -5.51128,0 -9.03125,3.60487 -9.03125,8.03125 0,5.18581 4.45298,7.78125 9.03125,7.78125 1.41037,0 2.33951,-0.3125 2.96875,-0.3125 0.58584,0 1.0625,0.0937 1.0625,0.0937 0.99811,-1.51886 1.53125,-4.09375 1.53125,-4.09375 l -0.3125,-0.0937 c -0.34717,0.80282 -0.66593,1.69022 -1.46875,2.40625 -0.86792,0.78113 -1.88562,1.09375 -3.1875,1.09375 -3.49337,0 -6.625,-2.68482 -6.625,-7.71875 0,-4.01412 2.94318,-6.3125 5.9375,-6.3125 1.60565,0 3.35343,0.40814 4.15625,1.40625 0.52075,0.65094 0.65625,2.21875 0.65625,2.21875 l 0.3125,0 c 0.0868,-2.38677 0.40625,-4.25 0.40625,-4.25 L 364.5,620.59375 c -0.23868,0.23868 -0.29434,0.46875 -0.75,0.46875 -0.23868,0 -1.97608,-0.6875 -4.40625,-0.6875 z m 39.28125,0.0312 c -0.13019,0.19528 -0.35343,0.28125 -1.15625,0.28125 l -3.9375,0 c -0.60754,0 -2.625,0 -2.625,0 l 0,0.28125 c 0,0 0.8039,0.0617 1.28125,0.34375 0.30377,0.17358 0.52866,0.32654 0.59375,1.28125 0.0434,0.47735 0.0625,1.9802 0.0625,3 0,0.75943 -0.0408,2.07819 -0.0625,2.46875 -0.0651,1.0198 -0.10944,1.31168 -0.5,1.59375 -0.34717,0.26038 -1.34375,0.375 -1.34375,0.375 l 0,0.28125 5.6875,0 0,-0.28125 c 0,0 -1.15283,-0.11462 -1.5,-0.375 -0.34717,-0.26038 -0.43491,-0.42465 -0.5,-1.53125 -0.0217,-0.49905 -0.0312,-2.4375 -0.0312,-2.4375 0,0 1.07218,0.01 1.875,0.0312 0.71603,0.0217 0.91321,0.29257 1,0.53125 0.10849,0.32547 0.1875,0.875 0.1875,0.875 l 0.25,0 0,-3.4375 -0.25,0 c 0,0 -0.0738,0.72748 -0.3125,1.03125 -0.0868,0.13019 -0.48444,0.28125 -0.875,0.28125 -0.86792,0.0217 -1.875,0 -1.875,0 0,0 0.01,-2.49411 0.0312,-3.6875 0,0 1.27182,-0.0338 2.03125,0.0312 0.49905,0.0434 1.03302,0.12677 1.25,0.34375 0.45566,0.41226 0.5,1.25 0.5,1.25 l 0.28125,0 0.125,-2.53125 -0.1875,0 z m 8.4375,0 c -0.10849,0.17358 -0.26923,0.28125 -1.09375,0.28125 l -3.78125,0 c -1.1066,0 -2.75,0 -2.75,0 l 0,0.28125 c 0.62924,0.0868 1.11462,0.18927 1.375,0.40625 0.43396,0.32547 0.44705,1.01486 0.46875,1.6875 0.0217,0.73773 0.0312,1.51486 0.0312,2.1875 0,0.67264 -0.01,1.94977 -0.0312,2.6875 -0.0217,0.60754 -0.0304,1.20578 -0.3125,1.53125 -0.21698,0.28207 -0.68503,0.43231 -1.53125,0.5625 l 0,0.28125 7.9375,0 c 0.45566,-1.25848 0.78125,-3.28125 0.78125,-3.28125 L 407.875,627 c -0.26038,0.82452 -0.51746,1.49835 -1.125,2.0625 -0.52075,0.47735 -1.33692,0.6875 -2.03125,0.6875 -0.84622,0 -1.22052,-0.16238 -1.4375,-0.53125 -0.19528,-0.34717 -0.1658,-0.93326 -0.1875,-1.5625 -0.0217,-0.39056 -0.0312,-1.90625 -0.0312,-1.90625 l 1.375,0 c 0.60754,0 0.97311,0.0981 1.125,0.25 0.32547,0.26038 0.42535,0.95578 0.46875,1.28125 l 0.25,0 0,-3.46875 -0.25,0 c -0.0868,0.36887 -0.22052,0.94186 -0.4375,1.09375 -0.19528,0.13019 -0.59729,0.13455 -1.03125,0.15625 -0.54245,0.0217 -1.5,0.0312 -1.5,0.0312 0,0 0.0408,-2.219 0.0625,-3.78125 0.73773,0 1.33078,-0.0217 1.65625,0 0.71603,0.0434 1.27783,0.19623 1.625,0.5 0.45566,0.39056 0.5191,1.13632 0.5625,1.375 l 0.28125,0 0.0312,-2.78125 -0.21875,0 z m 22,0 c -0.10849,0.17358 -0.26923,0.28125 -1.09375,0.28125 l -3.78125,0 c -1.1066,0 -2.75,0 -2.75,0 l 0,0.28125 c 0.62924,0.0868 1.11462,0.18927 1.375,0.40625 0.43396,0.32547 0.44705,1.01486 0.46875,1.6875 0.0217,0.73773 0.0312,1.51486 0.0312,2.1875 0,0.67264 -0.01,1.94977 -0.0312,2.6875 -0.0217,0.60754 -0.0304,1.20578 -0.3125,1.53125 -0.21698,0.28207 -0.68503,0.43231 -1.53125,0.5625 l 0,0.28125 7.9375,0 c 0.45566,-1.25848 0.78125,-3.28125 0.78125,-3.28125 L 429.875,627 c -0.26038,0.82452 -0.51746,1.49835 -1.125,2.0625 -0.52075,0.47735 -1.33692,0.6875 -2.03125,0.6875 -0.84622,0 -1.22052,-0.16238 -1.4375,-0.53125 -0.19528,-0.34717 -0.1658,-0.93326 -0.1875,-1.5625 -0.0217,-0.39056 -0.0312,-1.90625 -0.0312,-1.90625 l 1.375,0 c 0.60754,0 0.97311,0.0981 1.125,0.25 0.32547,0.26038 0.42535,0.95578 0.46875,1.28125 l 0.25,0 0,-3.46875 -0.25,0 c -0.0868,0.36887 -0.22052,0.94186 -0.4375,1.09375 -0.19528,0.13019 -0.62854,0.13455 -1.0625,0.15625 -0.54245,0.0217 -1.46875,0.0312 -1.46875,0.0312 0,0 0.0408,-2.219 0.0625,-3.78125 0.73773,0 1.33078,-0.0217 1.65625,0 0.71603,0.0434 1.27783,0.19623 1.625,0.5 0.45566,0.39056 0.48785,1.13632 0.53125,1.375 l 0.28125,0 0.0625,-2.78125 -0.21875,0 z m 163.4375,0 c -0.10849,0.17358 -0.26923,0.28125 -1.09375,0.28125 l -3.78125,0 c -1.1066,0 -2.75,0 -2.75,0 l 0,0.28125 c 0.62924,0.0868 1.14587,0.18927 1.40625,0.40625 0.43396,0.32547 0.44705,1.01486 0.46875,1.6875 0.0217,0.73773 0,1.51486 0,2.1875 0,0.67264 0.0217,1.94977 0,2.6875 -0.0217,0.60754 -0.0617,1.20578 -0.34375,1.53125 -0.21698,0.28207 -0.68503,0.43231 -1.53125,0.5625 l 0,0.28125 7.9375,0 c 0.45566,-1.25848 0.78125,-3.28125 0.78125,-3.28125 l -0.25,-0.0312 c -0.26038,0.82452 -0.54871,1.49835 -1.15625,2.0625 -0.52075,0.47735 -1.33692,0.6875 -2.03125,0.6875 -0.84622,0 -1.18927,-0.16238 -1.40625,-0.53125 -0.19528,-0.34717 -0.19705,-0.93326 -0.21875,-1.5625 -0.0217,-0.39056 0,-1.90625 0,-1.90625 l 1.34375,0 c 0.60754,0 1.00436,0.0981 1.15625,0.25 0.32547,0.26038 0.3941,0.95578 0.4375,1.28125 l 0.25,0 0,-3.46875 -0.25,0 c -0.0868,0.36887 -0.22052,0.94186 -0.4375,1.09375 -0.19528,0.13019 -0.59729,0.13455 -1.03125,0.15625 -0.54245,0.0217 -1.46875,0.0312 -1.46875,0.0312 0,0 0.01,-2.219 0.0312,-3.78125 0.73773,0 1.36203,-0.0217 1.6875,0 0.71603,0.0434 1.27783,0.19623 1.625,0.5 0.45566,0.39056 0.48785,1.13632 0.53125,1.375 l 0.28125,0 0.0312,-2.78125 -0.21875,0 z m -221,0.0625 c -3.03771,0 -5.46875,2.05863 -5.46875,5.03125 0,3.08111 2.31299,5.03125 5.4375,5.03125 3.01602,0 5.40625,-2.13328 5.40625,-5.0625 0,-2.97262 -2.1854,-5 -5.375,-5 z m 102.21875,0 c -3.03771,0 -5.46875,2.05863 -5.46875,5.03125 0,3.08111 2.31299,5.03125 5.4375,5.03125 3.01602,0 5.40625,-2.13328 5.40625,-5.0625 0,-2.97262 -2.1854,-5 -5.375,-5 z m 53.46875,0 c -3.03771,0 -5.46875,2.05863 -5.46875,5.03125 0,3.08111 2.31299,5.03125 5.4375,5.03125 3.01602,0 5.4375,-2.13328 5.4375,-5.0625 0,-2.97262 -2.21665,-5 -5.40625,-5 z m -91.90625,0.15625 c -1.28018,0 -4.25,0.0625 -4.25,0.0625 l 0,0.28125 c 0,0 0.8447,0.04 1.34375,0.34375 0.23868,0.15189 0.49741,0.40555 0.5625,1.46875 0.0434,0.67264 0.0312,1.86734 0.0312,2.84375 0,0.71603 -0.01,1.69281 -0.0312,2.34375 -0.0434,1.19339 -0.15283,1.39587 -0.5,1.65625 -0.36887,0.28207 -1.375,0.40625 -1.375,0.40625 l 0,0.28125 5.5625,0 0,-0.28125 c 0,0 -0.89069,-0.12677 -1.28125,-0.34375 -0.54245,-0.30377 -0.6033,-1.13809 -0.625,-1.59375 -0.0651,-1.0198 -0.0625,-1.6875 -0.0625,-1.6875 l 1.46875,-0.34375 c 0.21698,0.52075 0.56781,1.45154 1.21875,2.40625 0.99811,1.38867 2.45685,1.9375 4.0625,1.9375 0.45566,0 1.27783,-0.0503 1.625,-0.0937 l 2.125,0 0,-0.28125 c -0.30377,-0.0217 -1.40625,-0.0166 -1.40625,-0.90625 0,-0.30377 0.11981,-0.64765 0.25,-1.125 0.13019,-0.43396 0.28302,-0.89246 0.5,-1.5 l 3.28125,0 c 0,0 0.37677,0.94281 0.59375,1.59375 0.15189,0.45566 0.21875,0.76828 0.21875,1.09375 0,0.78113 -1.14069,0.80035 -1.53125,0.84375 l 0,0.28125 5.4375,0 0,-0.28125 c -0.36887,-0.0217 -0.83078,-0.12677 -1.15625,-0.34375 -0.36887,-0.23868 -0.62335,-0.53928 -1.1875,-1.90625 -0.52075,-1.21509 -2.5625,-6.3125 -2.5625,-6.3125 0.19528,-0.47735 1.15625,-0.5 1.15625,-0.5 l 0,-0.28125 -4.59375,0 0,0.28125 c 0.43396,0.0434 1.24918,-0.007 1.53125,0.6875 0,0 -1.81781,4.49329 -2.46875,5.96875 -0.41226,0.91131 -0.80908,1.58078 -1.15625,1.90625 -0.10307,0.0976 -0.20299,0.18864 -0.3125,0.25 -0.16667,-0.053 -0.32723,-0.10591 -0.5,-0.1875 -0.65094,-0.30377 -1.39328,-0.90283 -1.71875,-1.25 -1.34527,-1.54055 -1.875,-2.84375 -1.875,-2.84375 0.75943,-0.30377 1.9375,-0.95508 1.9375,-2.34375 0,-1.80093 -1.94742,-2.53125 -4.3125,-2.53125 z m -21.53125,0.0312 c -1.97451,0 -4.71875,0.0312 -4.71875,0.0312 l 0,0.28125 c 0,0 0.87595,0.04 1.375,0.34375 0.17358,0.10849 0.43491,0.23197 0.5,1.46875 0.0434,0.62924 0.0625,1.79352 0.0625,2.53125 0,0.88962 0.003,2.19281 -0.0625,2.84375 -0.0868,0.82452 -0.15024,1.27087 -0.5625,1.53125 -0.39056,0.23868 -1.40625,0.34375 -1.40625,0.34375 l 0,0.28125 c 0,0 1.24329,-0.0312 2.71875,-0.0312 0.93301,0 2.03137,0.125 2.8125,0.125 3.47167,0 5.8125,-2.25651 5.8125,-4.96875 0,-3.38488 -3.23316,-4.78125 -6.53125,-4.78125 z m 137.5625,0 c -1.97451,0 -4.71875,0.0312 -4.71875,0.0312 l 0,0.28125 c 0,0 0.87595,0.04 1.375,0.34375 0.17358,0.10849 0.43491,0.23197 0.5,1.46875 0.0434,0.62924 0.0625,1.79352 0.0625,2.53125 0,0.88962 -0.0287,2.19281 -0.0937,2.84375 -0.0868,0.82452 -0.11899,1.27087 -0.53125,1.53125 -0.39056,0.23868 -1.40625,0.34375 -1.40625,0.34375 l 0,0.28125 c 0,0 1.24329,-0.0312 2.71875,-0.0312 0.93301,0 2.03137,0.125 2.8125,0.125 3.47167,0 5.8125,-2.25651 5.8125,-4.96875 0,-3.38488 -3.23316,-4.78125 -6.53125,-4.78125 z m -173.5625,0.0312 0,0.28125 c 0.78113,0.13019 1.30484,0.13126 2.28125,1.28125 0,0 -0.0816,4.28751 -0.125,5.4375 -0.0434,1.25848 -0.15979,1.78302 -0.59375,2 -0.45566,0.23868 -1.28125,0.34375 -1.28125,0.34375 l 0,0.28125 4.59375,0 0,-0.28125 c 0,0 -0.76746,-0.0617 -1.375,-0.34375 -0.41226,-0.19528 -0.4783,-0.77195 -0.5,-2.3125 -0.0217,-1.25848 -0.0312,-4.375 -0.0312,-4.375 l 0.0312,-0.0312 c 1.99621,2.1481 7.125,7.5625 7.125,7.5625 l 0.53125,-0.0625 c 0,0 -0.0312,-1.21533 -0.0312,-1.5625 0,-2.58206 -0.0122,-4.56616 0.0312,-5.78125 0.0434,-1.47546 0.22229,-1.68927 0.65625,-1.90625 0.47735,-0.23868 1.125,-0.25 1.125,-0.25 l 0,-0.28125 -4.5,0 0,0.28125 c 0,0 0.698,0.0426 1.21875,0.28125 0.41226,0.19528 0.56946,0.56357 0.65625,1.84375 0.10849,1.75753 0.125,4.59375 0.125,4.59375 0,0 -3.61323,-3.64365 -6,-6.3125 0.0651,-0.41226 0.84375,-0.40625 0.84375,-0.40625 l 0,-0.28125 -4.78125,0 z m 102.21875,0 0,0.28125 c 0.78113,0.13019 1.30484,0.13126 2.28125,1.28125 0,0 -0.0816,4.28751 -0.125,5.4375 -0.0434,1.25848 -0.15979,1.78302 -0.59375,2 -0.45566,0.23868 -1.28125,0.34375 -1.28125,0.34375 l 0,0.28125 4.59375,0 0,-0.28125 c 0,0 -0.76746,-0.0617 -1.375,-0.34375 -0.41226,-0.19528 -0.4783,-0.77195 -0.5,-2.3125 -0.0217,-1.25848 -0.0312,-4.375 -0.0312,-4.375 l 0.0312,-0.0312 c 1.99621,2.1481 7.125,7.5625 7.125,7.5625 l 0.53125,-0.0625 c 0,0 -0.0312,-1.21533 -0.0312,-1.5625 0,-2.58206 -0.0122,-4.56616 0.0312,-5.78125 0.0434,-1.47546 0.22229,-1.68927 0.65625,-1.90625 0.47735,-0.23868 1.125,-0.25 1.125,-0.25 l 0,-0.28125 -4.5,0 0,0.28125 c 0,0 0.698,0.0426 1.21875,0.28125 0.41226,0.19528 0.56946,0.56357 0.65625,1.84375 0.10849,1.75753 0.125,4.59375 0.125,4.59375 0,0 -3.61323,-3.64365 -6,-6.3125 0.0651,-0.41226 0.84375,-0.40625 0.84375,-0.40625 l 0,-0.28125 -4.78125,0 z m 20.53125,0 0,0.3125 c 0,0 0.97229,0.11462 1.40625,0.375 0.82452,0.49905 0.93408,0.91156 1.28125,1.5625 0,0 -0.6763,6.01523 -1.21875,9.03125 -0.23868,1.28018 -0.5105,2.16416 -1.03125,2.75 -0.56415,0.62924 -2.0625,0.8125 -2.0625,0.8125 l 0,0.34375 6.65625,0 0,-0.3125 c 0,0 -0.97666,-0.10248 -1.5625,-0.40625 -0.67264,-0.36887 -0.8125,-0.62949 -0.8125,-1.5625 0,-2.60375 0.875,-9.09375 0.875,-9.09375 l 0.0625,0 c 0.52075,1.25848 0.93585,2.11652 1.5,3.375 0.69433,1.56225 1.77182,3.70084 2.53125,5.71875 0.60754,1.60565 0.8125,2.34375 0.8125,2.34375 l 0.375,0 c 0.30377,-1.17169 1.3664,-3.43244 1.84375,-4.34375 0.67264,-1.28018 1.27878,-2.38739 2.125,-3.90625 0.95471,-1.71414 1.78125,-3.40625 1.78125,-3.40625 l 0.0625,0 c 0.0217,1.25848 0.13196,2.08527 0.21875,3.34375 0.15189,1.99621 0.34375,3.26853 0.34375,5.15625 0,1.0415 -0.1138,1.66675 -0.65625,2.1875 -0.54245,0.52075 -2.125,0.5625 -2.125,0.5625 l 0,0.34375 8.125,0 0,-0.34375 c 0,0 -0.67807,-0.009 -1.4375,-0.3125 -0.69433,-0.26038 -1.12418,-0.51593 -1.40625,-2.46875 -0.19528,-1.41037 -0.39151,-3.69812 -0.5,-5 -0.15189,-1.99621 -0.25,-2.82761 -0.25,-5.0625 0,-0.73773 0.32996,-1.18927 0.9375,-1.40625 0.60754,-0.21698 1.25,-0.28125 1.25,-0.28125 l 0,-0.3125 -6.6875,0 0,0.3125 c 0,0 1.83337,0.13904 2.09375,1.09375 -0.97641,2.23489 -1.93161,3.77726 -3.125,5.96875 -0.75943,1.38867 -2.03125,3.6875 -2.03125,3.6875 0,0 -0.8039,-1.7684 -1.28125,-2.875 -1.21509,-2.77734 -2.35343,-4.93174 -3.15625,-6.90625 C 505.74127,621.07913 507.375,621 507.375,621 l 0,-0.3125 -6.875,0 z m 32.9375,0 0,0.28125 c 0.78113,0.13019 1.30484,0.13126 2.28125,1.28125 0,0 -0.0503,4.28751 -0.0937,5.4375 -0.0434,1.25848 -0.15979,1.78302 -0.59375,2 -0.45566,0.23868 -1.3125,0.34375 -1.3125,0.34375 l 0,0.28125 4.59375,0 0,-0.28125 c 0,0 -0.76746,-0.0617 -1.375,-0.34375 -0.41226,-0.19528 -0.4783,-0.77195 -0.5,-2.3125 -0.0217,-1.25848 -0.0312,-4.375 -0.0312,-4.375 l 0.0625,-0.0312 c 1.99621,2.1481 7.09375,7.5625 7.09375,7.5625 l 0.5625,-0.0625 c 0,0 -0.0625,-1.21533 -0.0625,-1.5625 0,-2.58206 0.0191,-4.56616 0.0625,-5.78125 0.0434,-1.47546 0.22229,-1.68927 0.65625,-1.90625 0.47735,-0.23868 1.125,-0.25 1.125,-0.25 l 0,-0.28125 -4.53125,0 0,0.28125 c 0,0 0.72925,0.0426 1.25,0.28125 0.41226,0.19528 0.53821,0.56357 0.625,1.84375 0.10849,1.75753 0.125,4.59375 0.125,4.59375 0,0 -3.58198,-3.64365 -5.96875,-6.3125 0.0651,-0.41226 0.84375,-0.40625 0.84375,-0.40625 l 0,-0.28125 -4.8125,0 z m 25.59375,0 0,0.28125 c 0,0 0.77265,0.0643 1.25,0.28125 0.54245,0.23868 0.63455,0.92288 0.65625,1.8125 0.0217,0.73773 0.0312,1.76486 0.0312,2.4375 0,0.58584 -0.0408,1.85425 -0.0625,2.375 -0.0217,0.62924 -0.0226,1.39069 -0.5,1.78125 -0.32547,0.26038 -1.4375,0.375 -1.4375,0.375 l 0,0.28125 5.59375,0 0.15625,0 4.28125,0 0,-0.28125 c -0.30377,-0.0217 -1.40625,-0.0166 -1.40625,-0.90625 0,-0.30377 0.11981,-0.64765 0.25,-1.125 0.13019,-0.43396 0.28302,-0.89246 0.5,-1.5 l 3.25,0 c 0,0 0.40802,0.94281 0.625,1.59375 0.15189,0.45566 0.21875,0.76828 0.21875,1.09375 0,0.78113 -1.17194,0.80035 -1.5625,0.84375 l 0,0.28125 4.8125,0 0.65625,0 7.5625,0 c 0.47735,-1.28018 0.9375,-3.46875 0.9375,-3.46875 l -0.2812,-0.0936 c -0.28207,0.93301 -0.80649,1.86899 -1.21875,2.28125 -0.47735,0.49905 -1.11817,0.6875 -1.8125,0.6875 -1.0849,0 -1.48962,-0.17972 -1.75,-0.375 -0.17358,-0.17358 -0.15625,-2.96546 -0.15625,-4.09375 0,-0.75943 -0.0122,-1.39682 0.0312,-2.15625 0.0434,-0.84622 0.0443,-1.38113 0.5,-1.75 0.34717,-0.28207 1.46875,-0.375 1.46875,-0.375 l 0,-0.28125 -5.65625,0 0,0.28125 c 0,0 0.95578,0.14847 1.28125,0.34375 0.58584,0.36887 0.57205,0.99057 0.59375,1.75 0.0217,0.56415 0.0312,1.42807 0.0312,2.1875 0,0.69433 -0.01,1.91852 -0.0312,2.65625 -0.0217,0.86792 -0.13632,1.28043 -0.375,1.5625 -0.30876,0.37737 -1.09164,0.46072 -1.46875,0.5 -0.29596,-0.0453 -0.6082,-0.12422 -0.84375,-0.28125 -0.36887,-0.23868 -0.5921,-0.53928 -1.15625,-1.90625 -0.52075,-1.21509 -2.5625,-6.3125 -2.5625,-6.3125 0.19528,-0.47735 1.15625,-0.5 1.15625,-0.5 l 0,-0.28125 -4.625,0 0,0.28125 c 0.43396,0.0434 1.28043,-0.007 1.5625,0.6875 0,0 -1.81781,4.49329 -2.46875,5.96875 -0.41226,0.91131 -0.80908,1.58078 -1.15625,1.90625 -0.3658,0.34654 -0.79499,0.46889 -1.1875,0.5 0,0 -0.0573,6.9e-4 -0.0625,0 -0.10276,-0.0137 -1.11708,-0.16845 -1.40625,-0.375 -0.45566,-0.32547 -0.4783,-1.07736 -0.5,-1.75 -0.0217,-0.54245 -0.0312,-1.64682 -0.0312,-2.40625 0,-0.75943 -0.0122,-1.8421 0.0312,-2.40625 0.0651,-0.84622 0.0443,-1.40283 0.5,-1.75 0.36887,-0.28207 1.46875,-0.375 1.46875,-0.375 l 0,-0.28125 -5.6875,0 z M 371.5,621.0625 c 1.0632,0 1.86121,0.57654 2.46875,1.53125 0.45566,0.75943 0.71875,1.80225 0.71875,2.84375 0,1.23678 -0.21533,1.99317 -0.5625,2.6875 -0.58584,1.12829 -1.43161,1.8125 -2.625,1.8125 -1.0632,0 -1.97666,-0.63645 -2.5625,-1.65625 -0.41226,-0.73773 -0.71875,-1.56616 -0.71875,-2.78125 0,-1.0198 0.18408,-1.75968 0.53125,-2.5625 0.52075,-1.17169 1.49152,-1.875 2.75,-1.875 z m 102.21875,0 c 1.0632,0 1.86121,0.57654 2.46875,1.53125 0.45566,0.75943 0.71875,1.80225 0.71875,2.84375 0,1.23678 -0.21533,1.99317 -0.5625,2.6875 -0.58584,1.12829 -1.43161,1.8125 -2.625,1.8125 -1.0632,0 -1.97666,-0.63645 -2.5625,-1.65625 -0.41226,-0.73773 -0.71875,-1.56616 -0.71875,-2.78125 0,-1.0198 0.18408,-1.75968 0.53125,-2.5625 0.52075,-1.17169 1.49152,-1.875 2.75,-1.875 z m 53.5,0 c 1.0632,0 1.82996,0.57654 2.4375,1.53125 0.45566,0.75943 0.75,1.80225 0.75,2.84375 0,1.23678 -0.21533,1.99317 -0.5625,2.6875 -0.58584,1.12829 -1.46286,1.8125 -2.65625,1.8125 -1.0632,0 -1.97666,-0.63645 -2.5625,-1.65625 -0.41226,-0.73773 -0.6875,-1.56616 -0.6875,-2.78125 0,-1.0198 0.18408,-1.75968 0.53125,-2.5625 0.52075,-1.17169 1.49152,-1.875 2.75,-1.875 z m -114.4375,0.0937 c 1.34527,0 2.24411,0.0817 3.4375,0.90625 1.21509,0.84622 1.96875,2.17383 1.96875,3.5625 0,1.25848 -0.19895,2.50449 -1.21875,3.4375 -0.56415,0.49905 -1.51404,0.84375 -2.46875,0.84375 -0.54245,0 -1.7066,-0.0974 -1.75,-1.3125 -0.0217,-0.75943 -0.0312,-2.02017 -0.0312,-3.34375 0,-1.28018 0.0625,-4.09375 0.0625,-4.09375 z m 21.9375,0 c 1.45376,0 2.90625,0.43952 2.90625,2.21875 0,1.25848 -0.80048,2.08597 -1.625,2.28125 l -1.34375,-0.21875 c 0,-2.95092 0.0625,-4.28125 0.0625,-4.28125 z m 115.625,0 c 1.34527,0 2.24411,0.0817 3.4375,0.90625 1.21509,0.84622 1.96875,2.17383 1.96875,3.5625 0,1.25848 -0.19895,2.50449 -1.21875,3.4375 -0.56415,0.49905 -1.51404,0.84375 -2.46875,0.84375 -0.54245,0 -1.7066,-0.0974 -1.75,-1.3125 -0.0217,-0.75943 -0.0312,-2.02017 -0.0312,-3.34375 0,-1.28018 0.0625,-4.09375 0.0625,-4.09375 z m -104.3125,1.21875 0.0312,0 1.46875,3.40625 -2.78125,0 1.28125,-3.40625 z m 123.84375,0 0.0312,0 1.46875,3.40625 -2.78125,0 1.28125,-3.40625 z"
         id="text3081-3"
         style="font-size:21.69797516px;font-style:normal;font-variant:normal;font-weight:normal;font-stretch:normal;line-height:100%;letter-spacing:0px;word-spacing:0px;fill:#00007f;fill-opacity:1;stroke:none;font-family:Arial;-inkscape-font-specification:Arial" />
      <path
         d="m 488.1875,695.40625 -0.71875,2.8125 0.25,0.0625 c 0,0 0.21057,-0.67194 0.46875,-1.0625 0.1986,-0.28207 0.56628,-0.5408 1.28125,-0.5625 1.07246,-0.0434 1.875,-0.0312 1.875,-0.0312 0,0 0.0625,2.73538 0.0625,3.625 0,0.75943 -0.0114,1.59824 -0.0312,2.53125 -0.0397,1.51886 -0.17376,1.87677 -0.53125,2.09375 -0.37735,0.21698 -1.28125,0.3125 -1.28125,0.3125 l 0,0.28125 5.25,0 0,-0.28125 c 0,0 -0.92084,-0.11722 -1.21875,-0.3125 -0.37735,-0.26038 -0.54264,-0.54364 -0.5625,-2.0625 0,-0.71603 -0.0312,-1.86557 -0.0312,-2.625 0,-0.91131 0.0312,-3.5625 0.0312,-3.5625 0,0 0.90184,-0.0122 1.875,0.0312 1.23134,0.0434 1.25,0.30389 1.25,0.78125 0,0.23868 -0.0937,0.90625 -0.0937,0.90625 l 0.25,0.0312 0.59375,-2.25 c 0.54484,0.0867 0.98959,0.22887 1.21875,0.4375 0.39721,0.32547 0.41764,0.98361 0.4375,1.65625 0.0199,0.73773 0.0312,1.51486 0.0312,2.1875 0,0.67264 -0.0114,1.94977 -0.0312,2.6875 -0.0199,0.60754 -0.0543,1.20578 -0.3125,1.53125 -0.1986,0.28207 -0.6317,0.43231 -1.40625,0.5625 l 0,0.28125 7.28125,0 c 0.41707,-1.25848 0.71875,-3.28125 0.71875,-3.28125 l -0.25,-0.0312 c -0.23832,0.82452 -0.47516,1.49835 -1.03125,2.0625 -0.47665,0.47736 -1.23947,0.6875 -1.875,0.6875 -0.77455,0 -1.1139,-0.16238 -1.3125,-0.53125 -0.17874,-0.34717 -0.13639,-0.93326 -0.15625,-1.5625 -0.0199,-0.39056 -0.0312,-1.90625 -0.0312,-1.90625 l 1.25,0 c 0.55609,0 0.89223,0.0981 1.03125,0.25 0.29791,0.26038 0.39778,0.95578 0.4375,1.28125 l 0.21875,0 0,-3.4375 -0.21875,0 c -0.0794,0.36887 -0.20765,0.91061 -0.40625,1.0625 -0.17874,0.13019 -0.57154,0.1658 -0.96875,0.1875 -0.49651,0.0217 -1.34375,0 -1.34375,0 0,0 0.0114,-2.219 0.0312,-3.78125 0.67525,0 1.23334,0.01 1.53125,0.0312 0.65539,0.0434 1.18223,0.16498 1.5,0.46875 0.41707,0.39056 0.46028,1.13632 0.5,1.375 l 0.25,0 0.0312,-2.75 -0.1875,0 c -0.0993,0.17358 -0.24531,0.28125 -1,0.28125 l -3.46875,0 c -0.95036,0 -2.20735,-0.0289 -2.375,-0.0312 l 0.0937,-0.375 -0.21875,-0.0312 c -0.27804,0.49905 -0.68601,0.4783 -1.71875,0.5 -1.11218,0.0217 -1.87878,0.0625 -2.59375,0.0625 -0.87385,0 -1.65505,-0.0408 -2.90625,-0.0625 -1.2512,-0.0217 -1.19042,-0.30472 -1.25,-0.5 l -0.21875,-0.0312 z m 94.1875,0 -0.71875,2.8125 0.25,0.0625 c 0,0 0.21057,-0.67194 0.46875,-1.0625 0.1986,-0.28207 0.56628,-0.5408 1.28125,-0.5625 1.07246,-0.0434 1.875,-0.0312 1.875,-0.0312 0,0 0.0625,2.73538 0.0625,3.625 0,0.75943 -0.0114,1.59824 -0.0312,2.53125 -0.0397,1.51886 -0.17376,1.87677 -0.53125,2.09375 -0.37735,0.21698 -1.28125,0.3125 -1.28125,0.3125 l 0,0.28125 5.25,0 0,-0.28125 c 0,0 -0.95209,-0.11722 -1.25,-0.3125 -0.37735,-0.26038 -0.51139,-0.54364 -0.53125,-2.0625 0,-0.71603 -0.0312,-1.86557 -0.0312,-2.625 0,-0.91131 0.0312,-3.5625 0.0312,-3.5625 0,0 0.90184,-0.0122 1.875,0.0312 1.23134,0.0434 1.21875,0.30389 1.21875,0.78125 0,0.23868 -0.0625,0.90625 -0.0625,0.90625 l 0.21875,0.0312 0.625,-2.25 c 0.0471,0.005 0.70336,0.0719 1.125,0.28125 0.49651,0.23868 0.57389,0.92288 0.59375,1.8125 0.0199,0.73773 0.0312,1.79611 0.0312,2.46875 0,0.58584 -0.0114,1.823 -0.0312,2.34375 -0.0199,0.62924 -0.0631,1.39069 -0.5,1.78125 -0.29791,0.26038 -1.28125,0.375 -1.28125,0.375 l 0,0.28125 5.25,0 0,-0.28125 c 0,0 -1.06571,-0.15802 -1.34375,-0.375 -0.41707,-0.32547 -0.44889,-1.04611 -0.46875,-1.71875 -0.0199,-0.54245 -0.0312,-1.64682 -0.0312,-2.40625 0,-0.75943 0.0228,-1.8421 0.0625,-2.40625 0.0596,-0.84622 0.0204,-1.43408 0.4375,-1.78125 0.33763,-0.28207 1.34375,-0.375 1.34375,-0.375 l 0,-0.28125 -5.09375,0 0.0937,-0.375 -0.21875,-0.0312 c -0.27804,0.49905 -0.68601,0.4783 -1.71875,0.5 -1.11218,0.0217 -1.87878,0.0625 -2.59375,0.0625 -0.87385,0 -1.65505,-0.0408 -2.90625,-0.0625 -1.2512,-0.0217 -1.19042,-0.30472 -1.25,-0.5 l -0.21875,-0.0312 z m -129.0625,0.1875 c -0.0993,0.17358 -0.27656,0.28125 -1.03125,0.28125 l -3.4375,0 c -1.01288,0 -2.53125,-0.0312 -2.53125,-0.0312 l 0,0.28125 c 0.57595,0.0868 1.04293,0.22052 1.28125,0.4375 0.39721,0.32547 0.41764,0.98361 0.4375,1.65625 0.0199,0.73773 0,1.51486 0,2.1875 0,0.67264 0.0199,1.94977 0,2.6875 -0.0199,0.60754 -0.0543,1.20578 -0.3125,1.53125 -0.1986,0.28207 -0.6317,0.43231 -1.40625,0.5625 l 0,0.28125 7.28125,0 c 0.41707,-1.25848 0.6875,-3.28125 0.6875,-3.28125 l -0.21875,-0.0312 c -0.23832,0.82452 -0.50641,1.49835 -1.0625,2.0625 -0.47665,0.47736 -1.20822,0.6875 -1.84375,0.6875 -0.77455,0 -1.1139,-0.16238 -1.3125,-0.53125 -0.17874,-0.34717 -0.16764,-0.93326 -0.1875,-1.5625 -0.0199,-0.39056 0,-1.90625 0,-1.90625 l 1.25,0 c 0.55609,0 0.89223,0.0981 1.03125,0.25 0.29791,0.26038 0.36653,0.95578 0.40625,1.28125 l 0.25,0 0,-3.4375 -0.25,0 c -0.0794,0.36887 -0.20765,0.91061 -0.40625,1.0625 -0.17874,0.13019 -0.54029,0.1658 -0.9375,0.1875 -0.49651,0.0217 -1.34375,0 -1.34375,0 0,0 0.0114,-2.219 0.0312,-3.78125 0.67525,0 1.23334,0.01 1.53125,0.0312 0.65539,0.0434 1.18223,0.16498 1.5,0.46875 0.41707,0.39056 0.42903,1.13632 0.46875,1.375 l 0.28125,0 0.0312,-2.75 -0.1875,0 z m 80.34375,0 c -0.11916,0.19528 -0.29642,0.28125 -1.03125,0.28125 l -3.625,0 c -0.55609,0 -2.40625,-0.0312 -2.40625,-0.0312 l 0,0.28125 c 0,0 0.75057,0.0617 1.1875,0.34375 0.27804,0.17358 0.50292,0.32654 0.5625,1.28125 0.0397,0.47736 0.0312,1.9802 0.0312,3 0,0.75943 -0.0114,2.07819 -0.0312,2.46875 -0.0596,1.0198 -0.14251,1.31168 -0.5,1.59375 -0.31777,0.26038 -1.21875,0.375 -1.21875,0.375 l 0,0.28125 5.21875,0 0,-0.28125 c 0,0 -1.05723,-0.11462 -1.375,-0.375 -0.31777,-0.26038 -0.40917,-0.42465 -0.46875,-1.53125 -0.0199,-0.49905 -0.0312,-2.4375 -0.0312,-2.4375 0,0 0.98392,0.01 1.71875,0.0312 0.65539,0.0217 0.82681,0.29257 0.90625,0.53125 0.0993,0.32547 0.1875,0.90625 0.1875,0.90625 l 0.25,0 0,-3.46875 -0.25,0 c 0,0 -0.094,0.75873 -0.3125,1.0625 -0.0794,0.13019 -0.42376,0.25 -0.78125,0.25 -0.79441,0.0217 -1.71875,0.0312 -1.71875,0.0312 0,0 0.0114,-2.52536 0.0312,-3.71875 0,0 1.17989,-0.0338 1.875,0.0312 0.45679,0.0434 0.95765,0.12677 1.15625,0.34375 0.41707,0.41226 0.4375,1.28125 0.4375,1.28125 l 0.25,0 0.125,-2.53125 -0.1875,0 z m 7.75,0 c -0.0993,0.17358 -0.27656,0.28125 -1.03125,0.28125 l -3.4375,0 c -1.01288,0 -2.53125,-0.0312 -2.53125,-0.0312 l 0,0.28125 c 0.57595,0.0868 1.04293,0.22052 1.28125,0.4375 0.39721,0.32547 0.41764,0.98361 0.4375,1.65625 0.0199,0.73773 0,1.51486 0,2.1875 0,0.67264 0.0199,1.94977 0,2.6875 -0.0199,0.60754 -0.0543,1.20578 -0.3125,1.53125 -0.1986,0.28207 -0.6317,0.43231 -1.40625,0.5625 l 0,0.28125 7.25,0 c 0.41707,-1.25848 0.71875,-3.28125 0.71875,-3.28125 l -0.21875,-0.0312 c -0.23832,0.82452 -0.50641,1.49835 -1.0625,2.0625 -0.47665,0.47736 -1.20822,0.6875 -1.84375,0.6875 -0.77455,0 -1.1139,-0.16238 -1.3125,-0.53125 -0.17874,-0.34717 -0.16764,-0.93326 -0.1875,-1.5625 -0.0199,-0.39056 0,-1.90625 0,-1.90625 l 1.25,0 c 0.55609,0 0.89223,0.0981 1.03125,0.25 0.29791,0.26038 0.36653,0.95578 0.40625,1.28125 l 0.25,0 0,-3.4375 -0.25,0 c -0.0794,0.36887 -0.20765,0.91061 -0.40625,1.0625 -0.17874,0.13019 -0.54029,0.1658 -0.9375,0.1875 -0.49651,0.0217 -1.34375,0 -1.34375,0 0,0 0.0114,-2.219 0.0312,-3.78125 0.67525,0 1.23334,0.01 1.53125,0.0312 0.65539,0.0434 1.18223,0.16498 1.5,0.46875 0.41707,0.39056 0.42903,1.13632 0.46875,1.375 l 0.28125,0 0.0312,-2.75 -0.1875,0 z m 20.125,0 c -0.0993,0.17358 -0.27656,0.28125 -1.03125,0.28125 l -3.4375,0 c -1.01288,0 -2.53125,-0.0312 -2.53125,-0.0312 l 0,0.28125 c 0.57595,0.0868 1.04293,0.22052 1.28125,0.4375 0.39721,0.32547 0.41764,0.98361 0.4375,1.65625 0.0199,0.73773 0,1.51486 0,2.1875 0,0.67264 0.0199,1.94977 0,2.6875 -0.0199,0.60754 -0.0543,1.20578 -0.3125,1.53125 -0.1986,0.28207 -0.6317,0.43231 -1.40625,0.5625 l 0,0.28125 7.28125,0 c 0.41707,-1.25848 0.71875,-3.28125 0.71875,-3.28125 l -0.25,-0.0312 c -0.23832,0.82452 -0.50641,1.49835 -1.0625,2.0625 -0.47665,0.47736 -1.20822,0.6875 -1.84375,0.6875 -0.77455,0 -1.1139,-0.16238 -1.3125,-0.53125 -0.17874,-0.34717 -0.13639,-0.93326 -0.15625,-1.5625 -0.0199,-0.39056 -0.0312,-1.90625 -0.0312,-1.90625 l 1.25,0 c 0.55609,0 0.89223,0.0981 1.03125,0.25 0.29791,0.26038 0.36653,0.95578 0.40625,1.28125 l 0.25,0 0,-3.4375 -0.25,0 c -0.0794,0.36887 -0.1764,0.91061 -0.375,1.0625 -0.17874,0.13019 -0.57154,0.1658 -0.96875,0.1875 -0.49651,0.0217 -1.34375,0 -1.34375,0 0,0 0.0114,-2.219 0.0312,-3.78125 0.67525,0 1.23334,0.01 1.53125,0.0312 0.65539,0.0434 1.18223,0.16498 1.5,0.46875 0.41707,0.39056 0.46028,1.13632 0.5,1.375 l 0.25,0 0.0312,-2.75 -0.1875,0 z m -190.875,0.0625 c -2.78045,0 -5,2.02738 -5,5 0,3.08111 2.10886,5.03125 4.96875,5.03125 2.76059,0 4.96875,-2.13328 4.96875,-5.0625 0,-2.97262 -2.01803,-4.96875 -4.9375,-4.96875 z m 231.71875,0 c -2.78045,0 -5,2.02738 -5,5 0,3.08111 2.14011,5.03125 5,5.03125 2.76059,0 4.96875,-2.13328 4.96875,-5.0625 0,-2.97262 -2.04928,-4.96875 -4.96875,-4.96875 z m -221.8125,0.125 c -1.17176,0 -3.875,0.0625 -3.875,0.0625 l 0,0.28125 c 0,0 0.76196,0.0712 1.21875,0.375 0.21846,0.15189 0.44042,0.3743 0.5,1.4375 0.0397,0.67264 0.0312,1.86734 0.0312,2.84375 0,0.71603 -0.0114,1.69281 -0.0312,2.34375 -0.0397,1.19339 -0.11973,1.42712 -0.4375,1.6875 -0.33763,0.28207 -1.28125,0.375 -1.28125,0.375 l 0,0.28125 5.125,0 0,-0.28125 c 0,0 -0.83001,-0.0955 -1.1875,-0.3125 -0.49651,-0.30377 -0.54264,-1.16934 -0.5625,-1.625 C 380.00292,702.2302 380,701.5625 380,701.5625 l 1.34375,-0.34375 c 0.1986,0.52075 0.52919,1.48279 1.125,2.4375 0.91358,1.38867 2.21783,1.90625 3.6875,1.90625 0.41707,0 1.18223,-0.0503 1.5,-0.0937 l 6.1875,0 C 394.28068,704.18857 394.6875,702 394.6875,702 l -0.25,-0.0937 c -0.25818,0.93301 -0.74765,1.86899 -1.125,2.28125 -0.43693,0.49905 -1.02072,0.6875 -1.65625,0.6875 -0.99302,0 -1.35543,-0.17972 -1.59375,-0.375 -0.15888,-0.17358 -0.15625,-2.96546 -0.15625,-4.09375 0,-0.75943 -0.008,-1.36557 0.0312,-2.125 0.0397,-0.84622 0.0517,-1.41238 0.46875,-1.78125 0.31777,-0.28207 1.34375,-0.375 1.34375,-0.375 l 0,-0.28125 -5.1875,0 0,0.28125 c 0,0 0.85834,0.14847 1.15625,0.34375 0.53623,0.36887 0.54264,0.99057 0.5625,1.75 0.0199,0.56415 0.0312,1.42807 0.0312,2.1875 0,0.69433 -0.0114,1.94977 -0.0312,2.6875 -0.0199,0.86792 -0.12529,1.24918 -0.34375,1.53125 -0.17407,0.23244 -0.55118,0.38645 -0.90625,0.46875 -0.009,-0.002 -0.0225,0.002 -0.0312,0 -0.28796,-0.0604 -0.62178,-0.16474 -0.96875,-0.34375 -0.59581,-0.30377 -1.29584,-0.90283 -1.59375,-1.25 -1.23134,-1.54055 -1.6875,-2.8125 -1.6875,-2.8125 0.69511,-0.30377 1.75,-0.98633 1.75,-2.375 0,-1.80093 -1.77272,-2.53125 -3.9375,-2.53125 z m 78.4375,0 c -1.17176,0 -3.875,0.0625 -3.875,0.0625 l 0,0.28125 c 0,0 0.73071,0.0712 1.1875,0.375 0.21846,0.15189 0.47167,0.3743 0.53125,1.4375 0.0397,0.67264 0.0312,1.86734 0.0312,2.84375 0,0.71603 -0.0114,1.69281 -0.0312,2.34375 -0.0397,1.19339 -0.15098,1.42712 -0.46875,1.6875 -0.33763,0.28207 -1.25,0.375 -1.25,0.375 l 0,0.28125 5.125,0 0,-0.28125 c 0,0 -0.83001,-0.0955 -1.1875,-0.3125 -0.49651,-0.30377 -0.54264,-1.16934 -0.5625,-1.625 -0.0596,-1.0198 -0.0625,-1.6875 -0.0625,-1.6875 l 1.34375,-0.34375 c 0.1986,0.52075 0.52919,1.48279 1.125,2.4375 0.91358,1.38867 2.21783,1.90625 3.6875,1.90625 0.41707,0 1.18223,-0.0503 1.5,-0.0937 l 0,-0.28125 c -0.1986,-0.0217 -0.94128,-0.0686 -1.65625,-0.4375 -0.59581,-0.30377 -1.26459,-0.90283 -1.5625,-1.25 -1.23134,-1.54055 -1.6875,-2.8125 -1.6875,-2.8125 0.69511,-0.30377 1.75,-0.98633 1.75,-2.375 0,-1.80093 -1.77272,-2.53125 -3.9375,-2.53125 z m 50.5625,0 c -1.17176,0 -3.90625,0.0625 -3.90625,0.0625 l 0,0.28125 c 0,0 0.76196,0.0712 1.21875,0.375 0.21846,0.15189 0.44042,0.3743 0.5,1.4375 0.0397,0.67264 0.0625,1.86734 0.0625,2.84375 0,0.71603 -0.0426,1.69281 -0.0625,2.34375 -0.0397,1.19339 -0.11973,1.42712 -0.4375,1.6875 -0.33763,0.28207 -1.25,0.375 -1.25,0.375 l 0,0.28125 5.09375,0 0,-0.28125 c 0,0 -0.83001,-0.0955 -1.1875,-0.3125 -0.49651,-0.30377 -0.54264,-1.16934 -0.5625,-1.625 -0.0596,-1.0198 -0.0625,-1.6875 -0.0625,-1.6875 l 1.34375,-0.34375 c 0.1986,0.52075 0.52919,1.48279 1.125,2.4375 0.91358,1.38867 2.21783,1.90625 3.6875,1.90625 0.41707,0 1.18223,-0.0503 1.5,-0.0937 l 0,-0.28125 c -0.1986,-0.0217 -0.91003,-0.0686 -1.625,-0.4375 -0.59581,-0.30377 -1.26459,-0.90283 -1.5625,-1.25 -1.23134,-1.54055 -1.71875,-2.8125 -1.71875,-2.8125 0.69511,-0.30377 1.75,-0.98633 1.75,-2.375 0,-1.80093 -1.74147,-2.53125 -3.90625,-2.53125 z m 57.65625,0 c -1.17176,0 -3.875,0.0625 -3.875,0.0625 l 0,0.28125 c 0,0 0.76196,0.0712 1.21875,0.375 0.21846,0.15189 0.44042,0.3743 0.5,1.4375 0.0397,0.67264 0.0312,1.86734 0.0312,2.84375 0,0.71603 -0.0114,1.69281 -0.0312,2.34375 -0.0397,1.19339 -0.11973,1.42712 -0.4375,1.6875 -0.33763,0.28207 -1.28125,0.375 -1.28125,0.375 l 0,0.28125 5.125,0 0,-0.28125 c 0,0 -0.83001,-0.0955 -1.1875,-0.3125 -0.49651,-0.30377 -0.54264,-1.16934 -0.5625,-1.625 -0.0596,-1.0198 -0.0625,-1.6875 -0.0625,-1.6875 L 568,701.21875 c 0.1986,0.52075 0.52919,1.48279 1.125,2.4375 0.91358,1.38867 2.21783,1.90625 3.6875,1.90625 0.41707,0 1.18223,-0.0503 1.5,-0.0937 l 1.96875,0 0,-0.28125 c -0.27804,-0.0217 -1.3125,0.0146 -1.3125,-0.875 0,-0.30377 0.0996,-0.67889 0.21875,-1.15625 0.11916,-0.43396 0.27015,-0.86121 0.46875,-1.46875 l 3,0 c 0,0 0.3639,0.91156 0.5625,1.5625 0.13902,0.45566 0.1875,0.76828 0.1875,1.09375 0,0.78113 -1.04876,0.80035 -1.40625,0.84375 l 0,0.28125 5,0 0,-0.28125 c -0.33763,-0.0217 -0.79584,-0.0955 -1.09375,-0.3125 -0.33763,-0.23868 -0.54613,-0.53928 -1.0625,-1.90625 C 580.3671,701.75366 578.5,696.625 578.5,696.625 c 0.17874,-0.47736 1.0625,-0.5 1.0625,-0.5 l 0,-0.28125 -4.21875,0 0,0.28125 c 0.39721,0.0434 1.14807,-0.007 1.40625,0.6875 0,0 -1.68544,4.49329 -2.28125,5.96875 -0.37735,0.91131 -0.71348,1.61203 -1.03125,1.9375 -0.0943,0.0976 -0.21227,0.15739 -0.3125,0.21875 -0.15054,-0.0526 -0.28161,-0.10708 -0.4375,-0.1875 -0.59581,-0.30377 -1.29584,-0.90283 -1.59375,-1.25 -1.23134,-1.54055 -1.6875,-2.8125 -1.6875,-2.8125 0.69511,-0.30377 1.75,-0.98633 1.75,-2.375 0,-1.80093 -1.77272,-2.53125 -3.9375,-2.53125 z M 399,695.8125 c -1.80729,0 -4.34375,0.0312 -4.34375,0.0312 l 0,0.28125 c 0,0 0.82446,0.0712 1.28125,0.375 0.15888,0.10849 0.37792,0.20072 0.4375,1.4375 0.0397,0.62924 0.0625,1.79352 0.0625,2.53125 0,0.88962 -0.003,2.19281 -0.0625,2.84375 -0.0794,0.82452 -0.12265,1.27087 -0.5,1.53125 -0.35749,0.23868 -1.28125,0.34375 -1.28125,0.34375 l 0,0.28125 c 0,0 1.11825,-0.0312 2.46875,-0.0312 0.85399,0 1.87878,0.125 2.59375,0.125 3.17765,0 5.3125,-2.25651 5.3125,-4.96875 0,-3.38488 -2.94998,-4.78125 -5.96875,-4.78125 z m 40.28125,0 c -1.80729,0 -4.3125,0.0312 -4.3125,0.0312 l 0,0.28125 c 0,0 0.82446,0.0712 1.28125,0.375 0.15888,0.10849 0.37792,0.20072 0.4375,1.4375 0.0397,0.62924 0.0625,1.79352 0.0625,2.53125 0,0.88962 -0.0342,2.19281 -0.0937,2.84375 -0.0794,0.82452 -0.0914,1.27087 -0.46875,1.53125 -0.35749,0.23868 -1.3125,0.34375 -1.3125,0.34375 l 0,0.28125 c 0,0 1.1495,-0.0312 2.5,-0.0312 0.85399,0 1.84753,0.125 2.5625,0.125 3.17765,0 5.34375,-2.25651 5.34375,-4.96875 0,-3.38488 -2.98123,-4.78125 -6,-4.78125 z m 108.25,0 c -1.80729,0 -4.34375,0.0312 -4.34375,0.0312 l 0,0.28125 c 0,0 0.82446,0.0712 1.28125,0.375 0.15888,0.10849 0.37792,0.20072 0.4375,1.4375 0.0397,0.62924 0.0625,1.79352 0.0625,2.53125 0,0.88962 -0.003,2.19281 -0.0625,2.84375 -0.0794,0.82452 -0.12265,1.27087 -0.5,1.53125 -0.35749,0.23868 -1.3125,0.34375 -1.3125,0.34375 l 0,0.28125 c 0,0 1.1495,-0.0312 2.5,-0.0312 0.85399,0 1.87878,0.125 2.59375,0.125 3.17765,0 5.3125,-2.25651 5.3125,-4.96875 0,-3.38488 -2.94998,-4.78125 -5.96875,-4.78125 z m -197.21875,0.0312 0,0.28125 c 0,0 0.77043,0.0712 1.1875,0.375 0.27804,0.21698 0.49502,0.44989 1.03125,1.96875 0.29791,0.84622 1.46085,4.49506 1.9375,6.1875 l 0.25,0.875 0.53125,-0.0625 c 1.19162,-3.44997 2.21085,-5.83786 2.6875,-7.03125 0.37735,1.0632 1.58877,4.40827 2.125,6.1875 0.0794,0.26038 0.19042,0.68927 0.25,0.90625 l 0.5,-0.0625 c 0.35749,-0.95471 2.31307,-6.00885 2.75,-7.09375 0.47665,-1.17169 0.76196,-1.67712 1.21875,-1.9375 0.49651,-0.28207 1.125,-0.3125 1.125,-0.3125 l 0,-0.28125 -3.875,0 0,0.28125 c 0.37735,0.0651 1.0625,0.0748 1.0625,0.8125 0,0.28207 -0.094,0.75272 -0.3125,1.46875 -0.35749,1.14999 -1.625,4.5 -1.625,4.5 0,0 -1.16821,-3.15213 -1.625,-4.5625 -0.23832,-0.75943 -0.28125,-1.13892 -0.28125,-1.3125 0,-0.82452 1.05723,-0.84116 1.375,-0.90625 l 0,-0.28125 -4.75,0 0,0.28125 c 0.77455,0.10849 1.29321,0.15732 1.75,1.4375 -0.39721,1.12829 -2.03125,5.125 -2.03125,5.125 -0.69511,-2.06131 -1.14807,-3.48538 -1.40625,-4.375 -0.1986,-0.69433 -0.28125,-1.09293 -0.28125,-1.375 0,-0.69433 0.71348,-0.74741 1.03125,-0.8125 l 0,-0.28125 -4.625,0 z m 61.15625,0 0,0.28125 c 0,0 0.75904,0.0834 1.15625,0.34375 0.27804,0.17358 0.42903,0.45673 0.46875,1.28125 0.0596,1.12829 0.0625,2.96463 0.0625,4.375 0,2.1264 1.17136,3.59375 4.03125,3.59375 2.78045,0 3.8125,-1.79895 3.8125,-3.96875 0,-1.14999 0.0114,-2.63291 0.0312,-3.21875 0.0397,-1.12829 0.012,-1.71533 0.46875,-2.0625 0.41707,-0.30377 1.1875,-0.34375 1.1875,-0.34375 l 0,-0.28125 -4.34375,0 0,0.28125 c 0,0 0.68515,0.0356 1.0625,0.1875 0.65539,0.28207 0.83528,0.70426 0.875,2.375 0.0199,0.78113 0,1.28656 0,1.9375 0,1.34527 0.0389,2.58173 -0.65625,3.40625 -0.39721,0.45566 -1.06336,0.75 -1.71875,0.75 -3.03863,0 -3.04264,-2.13043 -3.0625,-3.5625 -0.0199,-0.39056 -0.0312,-1.09906 -0.0312,-1.75 0,-0.65094 0.0312,-1.27087 0.0312,-1.53125 0.0397,-0.80282 0.08,-1.19882 0.4375,-1.4375 0.39721,-0.28207 1.34375,-0.375 1.34375,-0.375 l 0,-0.28125 -5.15625,0 z m 11.46875,0 0,0.28125 c 0.71497,0.13019 1.20003,0.13126 2.09375,1.28125 0,0 -0.0853,4.28751 -0.125,5.4375 -0.0397,1.25848 -0.13404,1.81427 -0.53125,2.03125 -0.41707,0.23868 -1.1875,0.3125 -1.1875,0.3125 l 0,0.28125 4.21875,0 0,-0.28125 c 0,0 -0.72516,-0.0617 -1.28125,-0.34375 -0.37735,-0.19528 -0.41764,-0.77195 -0.4375,-2.3125 -0.0199,-1.25848 -0.0312,-4.375 -0.0312,-4.375 l 0.0312,-0.0312 c 1.82715,2.1481 6.53125,7.59375 6.53125,7.59375 l 0.5,-0.0625 c 0,0 -0.0625,-1.21533 -0.0625,-1.5625 0,-2.58206 0.0228,-4.59741 0.0625,-5.8125 0.0397,-1.47546 0.19654,-1.68927 0.59375,-1.90625 0.43693,-0.23868 1.03125,-0.25 1.03125,-0.25 l 0,-0.28125 -4.15625,0 0,0.28125 c 0,0 0.6796,0.0738 1.15625,0.3125 0.37735,0.19528 0.48306,0.53232 0.5625,1.8125 0.0993,1.75753 0.125,4.625 0.125,4.625 0,0 -3.31536,-3.64365 -5.5,-6.3125 0.0596,-0.41226 0.78125,-0.4375 0.78125,-0.4375 l 0,-0.28125 -4.375,0 z m 41.0625,0 0,0.28125 c 0,0 0.80168,0.0712 1.21875,0.375 0.27804,0.21698 0.49502,0.44989 1.03125,1.96875 0.29791,0.84622 1.4296,4.49506 1.90625,6.1875 l 0.25,0.875 0.53125,-0.0625 c 1.19162,-3.44997 2.21085,-5.83786 2.6875,-7.03125 0.37735,1.0632 1.58877,4.40827 2.125,6.1875 0.0794,0.26038 0.19042,0.68927 0.25,0.90625 l 0.53125,-0.0625 c 0.35749,-0.95471 2.28182,-6.00885 2.71875,-7.09375 0.47665,-1.17169 0.76196,-1.67712 1.21875,-1.9375 0.49651,-0.28207 1.125,-0.3125 1.125,-0.3125 l 0,-0.28125 -3.875,0 0,0.28125 c 0.37735,0.0651 1.0625,0.0748 1.0625,0.8125 0,0.28207 -0.0628,0.75272 -0.28125,1.46875 -0.35749,1.14999 -1.65625,4.5 -1.65625,4.5 0,0 -1.16821,-3.15213 -1.625,-4.5625 -0.23832,-0.75943 -0.28125,-1.13892 -0.28125,-1.3125 0,-0.82452 1.05723,-0.84116 1.375,-0.90625 l 0,-0.28125 -4.75,0 0,0.28125 c 0.77455,0.10849 1.29321,0.15732 1.75,1.4375 -0.39721,1.12829 -2,5.125 -2,5.125 -0.69511,-2.06131 -1.17932,-3.48538 -1.4375,-4.375 -0.1986,-0.69433 -0.25,-1.09293 -0.25,-1.375 0,-0.69433 0.71348,-0.74741 1.03125,-0.8125 l 0,-0.28125 -4.65625,0 z m 17.15625,0 0,0.28125 c 0.39721,0.0434 1.14807,-0.007 1.40625,0.6875 0,0 -1.65419,4.49329 -2.25,5.96875 -0.37735,0.91131 -0.74473,1.61203 -1.0625,1.9375 -0.37735,0.39056 -0.82154,0.44705 -1.21875,0.46875 l 0,0.28125 4.0625,0 0,-0.28125 c -0.27804,-0.0217 -1.28125,0.0146 -1.28125,-0.875 0,-0.30377 0.0996,-0.67889 0.21875,-1.15625 0.11916,-0.43396 0.2389,-0.86121 0.4375,-1.46875 l 3,0 c 0,0 0.3639,0.91156 0.5625,1.5625 0.13902,0.45566 0.1875,0.76828 0.1875,1.09375 0,0.78113 -1.04876,0.80035 -1.40625,0.84375 l 0,0.28125 5,0 0,-0.28125 c -0.33763,-0.0217 -0.79584,-0.0955 -1.09375,-0.3125 -0.33763,-0.23868 -0.54613,-0.53928 -1.0625,-1.90625 -0.47665,-1.21509 -2.34375,-6.34375 -2.34375,-6.34375 0.17874,-0.47736 1.0625,-0.5 1.0625,-0.5 l 0,-0.28125 -4.21875,0 z m 126.96875,0 0,0.28125 c 0.71497,0.13019 1.16878,0.13126 2.0625,1.28125 0,0 -0.054,4.28751 -0.0937,5.4375 -0.0397,1.25848 -0.13404,1.81427 -0.53125,2.03125 -0.41707,0.23868 -1.1875,0.3125 -1.1875,0.3125 l 0,0.28125 4.21875,0 0,-0.28125 c 0,0 -0.72516,-0.0617 -1.28125,-0.34375 -0.37735,-0.19528 -0.44889,-0.77195 -0.46875,-2.3125 -0.0199,-1.25848 0,-4.375 0,-4.375 l 0.0312,-0.0312 c 1.82715,2.1481 6.5,7.59375 6.5,7.59375 l 0.5,-0.0625 c 0,0 -0.0312,-1.21533 -0.0312,-1.5625 0,-2.58206 -0.008,-4.59741 0.0312,-5.8125 0.0397,-1.47546 0.19654,-1.68927 0.59375,-1.90625 0.43693,-0.23868 1.03125,-0.25 1.03125,-0.25 l 0,-0.28125 -4.125,0 0,0.28125 c 0,0 0.64835,0.0738 1.125,0.3125 0.37735,0.19528 0.51431,0.53232 0.59375,1.8125 0.0993,1.75753 0.125,4.625 0.125,4.625 0,0 -3.31536,-3.64365 -5.5,-6.3125 0.0596,-0.41226 0.78125,-0.4375 0.78125,-0.4375 l 0,-0.28125 -4.375,0 z m -237.4375,0.375 c 0.97316,0 1.69391,0.57654 2.25,1.53125 0.41707,0.75943 0.65625,1.8335 0.65625,2.875 0,1.23678 -0.18223,1.99317 -0.5,2.6875 -0.53623,1.12829 -1.34518,1.78125 -2.4375,1.78125 -0.97316,0 -1.80752,-0.6052 -2.34375,-1.625 -0.37735,-0.73773 -0.625,-1.59741 -0.625,-2.8125 0,-1.0198 0.15098,-1.72843 0.46875,-2.53125 0.47665,-1.17169 1.37935,-1.90625 2.53125,-1.90625 z m 231.71875,0 c 0.97316,0 1.69391,0.57654 2.25,1.53125 0.41707,0.75943 0.6875,1.8335 0.6875,2.875 0,1.23678 -0.21348,1.99317 -0.53125,2.6875 -0.53623,1.12829 -1.34518,1.78125 -2.4375,1.78125 -0.97316,0 -1.80752,-0.6052 -2.34375,-1.625 -0.37735,-0.73773 -0.625,-1.59741 -0.625,-2.8125 0,-1.0198 0.15098,-1.72843 0.46875,-2.53125 0.47665,-1.17169 1.37935,-1.90625 2.53125,-1.90625 z m -222.375,0.125 c 1.33064,0 2.6875,0.40827 2.6875,2.1875 0,1.25848 -0.74531,2.08597 -1.5,2.28125 L 380,700.59375 c 0,-2.95092 0.0312,-4.25 0.0312,-4.25 z m 18.0625,0 c 1.23134,0 2.06393,0.0505 3.15625,0.875 1.11218,0.84622 1.8125,2.17383 1.8125,3.5625 0,1.25848 -0.19156,2.50449 -1.125,3.4375 -0.51637,0.49905 -1.37615,0.875 -2.25,0.875 -0.49651,0 -1.58528,-0.12866 -1.625,-1.34375 -0.0199,-0.75943 -0.0312,-2.02017 -0.0312,-3.34375 0,-1.28018 0.0625,-4.0625 0.0625,-4.0625 z m 40.3125,0 c 1.23134,0 2.06393,0.0505 3.15625,0.875 1.11218,0.84622 1.8125,2.17383 1.8125,3.5625 0,1.25848 -0.22281,2.50449 -1.15625,3.4375 -0.51637,0.49905 -1.3449,0.875 -2.21875,0.875 -0.49651,0 -1.58528,-0.12866 -1.625,-1.34375 -0.0199,-0.75943 -0.0312,-2.02017 -0.0312,-3.34375 0,-1.28018 0.0625,-4.0625 0.0625,-4.0625 z m 20.0625,0 c 1.33064,0 2.6875,0.40827 2.6875,2.1875 0,1.25848 -0.74531,2.08597 -1.5,2.28125 l -1.21875,-0.21875 c 0,-2.95092 0.0312,-4.25 0.0312,-4.25 z m 50.53125,0 c 1.33064,0 2.6875,0.40827 2.6875,2.1875 0,1.25848 -0.74531,2.08597 -1.5,2.28125 l -1.21875,-0.21875 c 0,-2.95092 0.0312,-4.25 0.0312,-4.25 z m 37.625,0 c 1.23134,0 2.06393,0.0505 3.15625,0.875 1.11218,0.84622 1.8125,2.17383 1.8125,3.5625 0,1.25848 -0.19156,2.50449 -1.125,3.4375 -0.51637,0.49905 -1.37615,0.875 -2.25,0.875 -0.49651,0 -1.58528,-0.12866 -1.625,-1.34375 -0.0199,-0.75943 -0.0312,-2.02017 -0.0312,-3.34375 0,-1.28018 0.0625,-4.0625 0.0625,-4.0625 z m 20.0625,0 c 1.33064,0 2.6875,0.40827 2.6875,2.1875 0,1.25848 -0.74531,2.08597 -1.5,2.28125 l -1.21875,-0.21875 c 0,-2.95092 0.0312,-4.25 0.0312,-4.25 z m -83.8125,1.1875 0.0312,0 1.34375,3.4375 -2.53125,0 1.15625,-3.4375 z m 94.1875,0 0.0312,0 1.34375,3.4375 -2.53125,0 1.15625,-3.4375 z"
         id="text3081-0"
         style="font-size:20.75884438px;font-style:normal;font-variant:normal;font-weight:normal;font-stretch:normal;line-height:100%;letter-spacing:0px;word-spacing:0px;fill:#00007f;fill-opacity:1;stroke:none;font-family:Arial;-inkscape-font-specification:Arial" />
      <rect
         width="269.07904"
         height="0.77771169"
         x="350.40472"
         y="682.26819"
         id="rect3042"
         style="color:#000000;fill:#00007f;fill-opacity:1;fill-rule:nonzero;stroke:#000000;stroke-width:0.20543799;stroke-linecap:butt;stroke-linejoin:miter;stroke-miterlimit:4;stroke-opacity:1;stroke-dasharray:none;stroke-dashoffset:0;marker:none;visibility:visible;display:inline;overflow:visible;enable-background:accumulate" />
      <rect
         width="269.07904"
         height="0.77771169"
         x="350.40472"
         y="716.37866"
         id="rect3042-3"
         style="color:#000000;fill:#00007f;fill-opacity:1;fill-rule:nonzero;stroke:#000000;stroke-width:0.20543799;stroke-linecap:butt;stroke-linejoin:miter;stroke-miterlimit:4;stroke-opacity:1;stroke-dasharray:none;stroke-dashoffset:0;marker:none;visibility:visible;display:inline;overflow:visible;enable-background:accumulate" />
    </g>
  </g>
</svg>
