<?xml version="1.0" encoding="UTF-8"?>
<svg xmlns="http://www.w3.org/2000/svg" xmlns:xlink="http://www.w3.org/1999/xlink" width="552.76pt" height="552.76pt" viewBox="0 0 552.76 552.76" version="1.1">
<g id="surface1">
<path style=" stroke:none;fill-rule:nonzero;fill:rgb(100%,100%,100%);fill-opacity:1;" d="M 0 276.386719 C 0.0078125 123.742188 123.742188 0.00390625 276.378906 0.00390625 C 429.015625 0.00390625 552.75 123.742188 552.757813 276.386719 C 552.75 429.023438 429.015625 552.757813 276.378906 552.757813 C 123.742188 552.757813 0.0078125 429.023438 0 276.386719 "/>
<path style=" stroke:none;fill-rule:nonzero;fill:rgb(9.799194%,8.999634%,10.598755%);fill-opacity:1;" d="M 289.613281 175.644531 C 289.738281 175.496094 289.820313 175.378906 289.847656 175.292969 C 289.792969 175.386719 289.699219 175.523438 289.613281 175.644531 "/>
<path style=" stroke:none;fill-rule:nonzero;fill:rgb(9.799194%,8.999634%,10.598755%);fill-opacity:1;" d="M 377.023438 204.746094 C 377.023438 204.746094 381.019531 210.148438 381.019531 214.664063 C 381.019531 219.175781 377.839844 228.574219 366.296875 228.574219 C 354.75 228.574219 352.898438 223.765625 351.347656 219.988281 C 349.792969 216.21875 349.421875 210.296875 349.347656 209.628906 C 349.273438 208.964844 348.902344 204.597656 343.578125 204.597656 L 99.214844 204.597656 L 99.214844 234.050781 L 432.378906 234.050781 L 460.355469 204.746094 Z M 126.152344 185.429688 C 126.152344 184.46875 127.113281 181.878906 128.148438 180.324219 C 129.1875 178.769531 137.769531 171.074219 140.65625 167.449219 C 143.097656 164.5625 145.46875 160.34375 145.765625 159.675781 C 146.0625 159.011719 146.28125 159.308594 146.28125 160.121094 C 146.28125 165.375 139.769531 172.257813 138.511719 173.664063 C 137.253906 175.070313 129.632813 183.359375 129.632813 186.023438 C 129.632813 188.6875 136.957031 191.054688 142.359375 192.609375 C 147.761719 194.164063 157.382813 195.199219 159.304688 195.347656 C 161.230469 195.496094 159.898438 196.382813 159.304688 196.382813 C 158.714844 196.382813 151.3125 196.679688 139.769531 194.386719 C 125.117188 191.277344 126.152344 186.390625 126.152344 185.429688 M 288.441406 94.332031 C 287.480469 92.925781 288.589844 90.261719 289.035156 89.449219 C 289.480469 88.632813 290.9375 87.550781 291.527344 88.214844 C 292.121094 88.878906 291.898438 89.226563 291.179688 89.667969 C 290.21875 90.261719 289.40625 93.445313 289.332031 94.109375 C 289.257813 94.773438 289.035156 95.144531 288.441406 94.332031 M 291.972656 128.621094 C 290.292969 127.339844 290.691406 122.453125 290.886719 121.617188 C 290.886719 121.617188 291.035156 120.925781 291.132813 121.664063 C 291.234375 122.40625 291.230469 124.429688 291.480469 125.265625 C 291.726563 126.105469 292.367188 127.535156 292.859375 128.277344 C 293.351563 129.015625 292.613281 129.113281 291.972656 128.621094 M 294.980469 98.378906 C 297.253906 99.316406 300.0625 98.871094 301.046875 100.25 C 301.542969 100.796875 301.988281 104.542969 301.988281 105.484375 C 301.988281 106.417969 301.046875 106.417969 301.046875 105.578125 C 301.046875 104.742188 300.359375 101.488281 300.160156 101.488281 C 299.964844 101.488281 299.175781 101.78125 298.925781 102.421875 C 298.679688 103.0625 298.1875 103.113281 297.347656 102.671875 C 295.671875 101.78125 294.289063 99.167969 294.046875 98.527344 C 293.796875 97.886719 294.441406 98.109375 294.980469 98.378906 M 308.945313 117.570313 C 309.238281 117.570313 309.1875 118.261719 308.945313 118.261719 C 303.074219 118.261719 302.136719 125.117188 302.136719 125.316406 C 302.136719 125.511719 301.003906 126.300781 301.003906 125.316406 C 301.003906 120.726563 296.808594 118.753906 296.164063 118.261719 C 295.871094 118.113281 295.476563 117.667969 296.3125 117.667969 C 299.714844 117.667969 300.214844 119.394531 300.953125 119.394531 C 301.394531 119.394531 303.171875 118.113281 304.007813 117.863281 C 304.847656 117.617188 308.648438 117.570313 308.945313 117.570313 M 310.570313 132.222656 C 310.570313 133.15625 310.226563 136.761719 303.859375 136.761719 C 297.496094 136.761719 296.808594 132.765625 296.511719 132.125 C 296.214844 131.480469 296.902344 131.679688 297.347656 131.976563 C 297.347656 131.976563 299.125 133.0625 299.816406 133.0625 C 300.507813 133.0625 301.640625 132.125 302.332031 132.125 C 303.023438 132.125 305.046875 133.308594 305.835938 133.308594 C 306.628906 133.308594 309.4375 131.878906 309.78125 131.679688 C 310.128906 131.480469 310.570313 131.285156 310.570313 132.222656 M 311.359375 102.820313 C 311.703125 101.191406 312.050781 100.203125 312.050781 100.203125 C 312.347656 99.167969 312.546875 99.019531 313.234375 99.066406 C 313.925781 99.117188 321.570313 99.859375 322.066406 99.953125 C 322.5625 100.054688 322.757813 100.546875 322.015625 100.695313 C 321.277344 100.84375 317.675781 101.535156 317.03125 101.535156 C 316.394531 101.535156 314.667969 102.226563 313.679688 103.359375 C 312.691406 104.496094 312.300781 105.632813 311.753906 105.632813 C 311.214844 105.632813 311.015625 104.445313 311.359375 102.820313 M 319.304688 128.769531 C 318.910156 129.117188 318.464844 129.113281 318.8125 128.523438 C 320.144531 126.449219 320.242188 124.082031 320.242188 122.746094 C 320.242188 122.746094 320.09375 120.382813 319.996094 120.035156 C 319.898438 119.691406 320.144531 119.394531 320.339844 119.839844 C 320.539063 120.285156 321.625 120.875 321.625 123.933594 C 321.625 126.992188 319.699219 128.425781 319.304688 128.769531 M 332.511719 94.109375 C 333.214844 90.964844 335.507813 88.929688 337.027344 88.929688 C 338.542969 88.929688 339.136719 89.371094 338.730469 90.445313 C 338.320313 91.519531 334.253906 94.703125 333.140625 95.441406 C 332.03125 96.183594 332.339844 94.882813 332.511719 94.109375 M 119.738281 203.367188 L 234.59375 203.367188 C 236.664063 203.367188 237.453125 201.191406 237.453125 199.417969 C 237.453125 197.640625 237.304688 194.976563 229.3125 194.828125 C 221.320313 194.683594 209.628906 194.386719 209.628906 194.386719 L 209.628906 193.398438 C 209.628906 193.398438 233.164063 193.695313 234.9375 193.695313 C 236.714844 193.695313 241.105469 194.976563 241.105469 199.566406 C 241.105469 202.230469 240.117188 203.367188 240.117188 203.367188 L 246.039063 203.367188 C 246.925781 203.367188 251.058594 203.113281 251.21875 197.640625 C 251.367188 192.660156 248.109375 189.453125 243.375 186.9375 C 240.214844 185.210938 235.679688 185.949219 233.902344 186.390625 C 232.128906 186.835938 224.578125 187.726563 223.542969 187.578125 C 222.503906 187.429688 215.992188 183.726563 215.402344 183.433594 C 214.808594 183.136719 215.402344 182.691406 217.917969 183.726563 C 220.433594 184.765625 223.839844 186.390625 228.574219 185.207031 C 233.3125 184.023438 239.378906 180.324219 244.558594 183.578125 C 249.738281 186.835938 254.921875 189.351563 254.921875 197.195313 C 254.921875 201.488281 252.402344 203.070313 252.105469 203.367188 L 276.824219 203.367188 C 276.824219 203.367188 272.828125 197.640625 271.941406 196.015625 C 271.050781 194.386719 269.867188 192.460938 273.125 189.351563 C 276.171875 186.441406 287.785156 177.824219 289.613281 175.644531 C 287.484375 178.800781 276.652344 190.996094 276.085938 191.425781 C 275.492188 191.867188 274.457031 193.054688 275.34375 194.683594 C 276.230469 196.308594 278.453125 200.601563 279.191406 201.488281 C 279.933594 202.378906 280.378906 203.367188 283.484375 203.367188 L 343.425781 203.367188 C 345.796875 203.367188 348.902344 203.5625 350.234375 209.1875 C 350.679688 211.851563 351.273438 214.21875 351.714844 215.105469 C 352.160156 215.992188 352.605469 217.621094 352.605469 218.660156 C 352.605469 219.695313 352.753906 221.914063 353.539063 222.902344 C 354.328125 223.890625 355.164063 223.691406 355.660156 223.246094 C 356.15625 222.804688 357.539063 221.765625 357.539063 218.90625 L 358.472656 218.90625 C 358.472656 219.988281 358.476563 221.914063 357.339844 223.199219 C 356.203125 224.480469 355.957031 225.171875 356.695313 225.171875 C 357.4375 225.171875 358.671875 225.417969 359.414063 224.578125 C 360.152344 223.742188 362.421875 221.324219 362.421875 219.449219 C 362.421875 219.25 363.753906 219.203125 363.753906 219.746094 C 363.753906 220.285156 363.554688 223.347656 359.953125 226.109375 C 359.65625 226.304688 361.632813 227.246094 364.492188 226.851563 C 365.675781 226.703125 367.75 223.839844 367.601563 222.015625 C 367.453125 220.1875 367.503906 219.496094 368.046875 219.695313 C 368.589844 219.894531 369.128906 219.84375 369.128906 221.816406 C 369.128906 223.394531 367.699219 226.058594 367.203125 226.652344 C 367.007813 227.046875 369.03125 227.144531 370.164063 226.503906 C 371.300781 225.863281 372.785156 224.53125 373.027344 220.78125 C 373.027344 219.941406 374.117188 220.089844 374.0625 220.878906 C 374.015625 221.671875 373.273438 224.332031 372.828125 225.023438 C 372.4375 225.566406 373.128906 225.222656 373.71875 224.875 C 374.3125 224.53125 378.847656 221.71875 379.195313 214.859375 C 379.441406 209.480469 374.902344 207.117188 372.632813 203.367188 C 370.363281 199.617188 367.554688 193.003906 364.988281 191.078125 C 361.925781 188.8125 353 187.28125 341.355469 184.714844 C 329.714844 182.152344 322.261719 180.472656 320.191406 179.878906 C 318.117188 179.289063 315.40625 178.351563 317.96875 174.699219 C 319.695313 172.136719 323.890625 167.199219 324.234375 166.660156 C 324.578125 166.113281 324.824219 166.757813 324.578125 167.25 C 324.335938 167.742188 321.421875 174.308594 321.175781 174.898438 C 320.929688 175.492188 320.730469 176.179688 321.914063 176.476563 C 323.097656 176.773438 345.941406 182.347656 354.527344 184.222656 C 360.152344 185.40625 367.011719 187.527344 369.871094 193.597656 C 372.730469 199.664063 375.148438 203.367188 376.480469 203.367188 L 388.222656 203.367188 C 388.71875 203.367188 389.410156 202.726563 390.003906 201.441406 C 390.59375 200.15625 391.085938 198.875 391.28125 198.875 C 391.480469 198.875 392.46875 201.242188 392.8125 201.835938 C 393.15625 202.429688 394.046875 203.367188 395.722656 203.367188 L 419.402344 203.367188 C 419.402344 200.65625 416.789063 194.730469 415.359375 192.855469 C 413.925781 190.980469 408.15625 184.171875 406.480469 182.839844 C 404.800781 181.507813 402.628906 181.707031 400.164063 182.445313 C 397.695313 183.1875 393.550781 184.765625 392.859375 185.109375 C 392.171875 185.457031 388.027344 185.40625 386.054688 185.40625 C 384.078125 185.40625 374.507813 184.125 361.632813 179.140625 C 347.078125 173.320313 342.980469 169.324219 340.070313 165.722656 C 338 162.960938 338.394531 159.851563 338.640625 158.417969 C 338.886719 156.988281 338.988281 149.390625 336.765625 142.386719 C 334.546875 135.382813 333.5625 132.8125 333.167969 131.628906 C 332.769531 130.445313 332.472656 127.4375 333.214844 125.363281 C 333.953125 123.292969 336.566406 115.152344 336.714844 113.96875 C 336.863281 112.785156 336.8125 106.765625 338.34375 104.988281 C 339.875 103.210938 345.054688 99.808594 345.054688 92.40625 C 345.054688 85.007813 340.515625 83.230469 339.035156 83.230469 C 335.78125 83.230469 330.945313 85.945313 328.773438 85.945313 C 325.519531 85.945313 320.191406 80.714844 310.71875 80.714844 C 302.527344 80.714844 296.902344 84.464844 295.570313 84.464844 C 294.242188 84.464844 292.910156 82.933594 290.738281 82.933594 C 288.566406 82.933594 283.339844 84.464844 283.339844 92.0625 C 283.339844 100.546875 289.257813 102.621094 289.257813 107.109375 L 289.257813 113.917969 C 289.257813 115.347656 289.15625 117.472656 287.183594 119.296875 C 285.214844 121.121094 273.421875 132.816406 270.015625 134.6875 C 266.609375 136.566406 252.304688 142.1875 244.804688 142.1875 C 237.304688 142.1875 221.765625 141.988281 220.582031 141.988281 C 219.398438 141.988281 214.070313 138.140625 209.628906 136.660156 C 205.1875 135.183594 192.113281 132.171875 185.453125 132.171875 C 178.796875 132.171875 164.632813 136.121094 157.429688 140.363281 C 150.230469 144.605469 151.167969 146.234375 145.789063 150.527344 C 140.410156 154.816406 129.359375 161.824219 123.242188 169.027344 C 117.421875 176.527344 110.855469 183.578125 110.855469 187.429688 C 110.855469 190.292969 112.636719 194.089844 113.71875 195.964844 C 114.804688 197.839844 118.210938 203.367188 119.738281 203.367188 "/>
<path style=" stroke:none;fill-rule:nonzero;fill:rgb(9.799194%,8.999634%,10.598755%);fill-opacity:1;" d="M 125.042969 125.046875 C 86.3125 163.78125 62.363281 217.277344 62.363281 276.378906 C 62.363281 335.484375 86.3125 388.980469 125.042969 427.71875 C 163.777344 466.445313 217.277344 490.402344 276.378906 490.402344 C 335.480469 490.402344 388.976563 466.445313 427.710938 427.71875 C 466.441406 388.980469 490.398438 335.484375 490.398438 276.378906 C 490.398438 217.277344 466.441406 163.78125 427.710938 125.046875 C 388.976563 86.3125 335.480469 62.363281 276.378906 62.363281 C 217.277344 62.363281 163.777344 86.3125 125.042969 125.046875 M 59.992188 276.378906 C 59.992188 156.875 156.875 59.992188 276.378906 59.992188 C 395.882813 59.992188 492.761719 156.875 492.769531 276.378906 C 492.761719 395.890625 395.882813 492.769531 276.378906 492.769531 C 156.867188 492.769531 59.992188 395.890625 59.992188 276.378906 "/>
<path style=" stroke:none;fill-rule:nonzero;fill:rgb(9.799194%,8.999634%,10.598755%);fill-opacity:1;" d="M 84.296875 84.296875 C 35.136719 133.464844 4.734375 201.359375 4.734375 276.386719 C 4.734375 351.402344 35.136719 419.300781 84.296875 468.464844 C 133.464844 517.628906 201.355469 548.027344 276.378906 548.027344 C 351.394531 548.027344 419.292969 517.628906 468.460938 468.464844 C 517.621094 419.300781 548.023438 351.402344 548.023438 276.386719 C 548.023438 201.359375 517.621094 133.464844 468.460938 84.296875 C 419.292969 35.132813 351.394531 4.734375 276.378906 4.734375 C 201.355469 4.734375 133.464844 35.132813 84.296875 84.296875 M 0 276.386719 C 0.00390625 123.742188 123.738281 0.00390625 276.378906 0.00390625 C 429.015625 0.00390625 552.75 123.742188 552.753906 276.386719 C 552.75 429.023438 429.015625 552.757813 276.378906 552.757813 C 123.738281 552.757813 0.00390625 429.023438 0 276.386719 "/>
<path style=" stroke:none;fill-rule:nonzero;fill:rgb(9.799194%,8.999634%,10.598755%);fill-opacity:1;" d="M 118.605469 418.214844 L 147.8125 418.214844 L 147.8125 250.332031 L 118.605469 250.332031 Z M 118.605469 418.214844 "/>
<path style=" stroke:none;fill-rule:nonzero;fill:rgb(9.799194%,8.999634%,10.598755%);fill-opacity:1;" d="M 208.398438 418.214844 L 235.632813 418.214844 C 258.714844 341.011719 259.109375 340.023438 259.109375 340.023438 L 243.523438 300.753906 "/>
<path style=" stroke:none;fill-rule:nonzero;fill:rgb(9.799194%,8.999634%,10.598755%);fill-opacity:1;" d="M 259.707031 249.050781 C 319.898438 418.566406 319.699219 418.214844 319.699219 418.214844 L 312 468.695313 L 284.375 396.070313 L 247.078125 396.070313 L 255.164063 369.03125 L 276.875 369.03125 L 247.273438 290.886719 "/>
<path style=" stroke:none;fill-rule:nonzero;fill:rgb(9.799194%,8.999634%,10.598755%);fill-opacity:1;" d="M 405.9375 389.953125 L 405.9375 418.214844 C 435.730469 402.859375 459.8125 376.929688 459.8125 336.671875 C 459.8125 291.085938 425.871094 260.691406 405.9375 250.332031 L 405.9375 282.203125 C 410.277344 286.546875 432.183594 305.492188 432.183594 336.671875 C 432.183594 367.851563 418.957031 381.472656 405.9375 389.953125 "/>
<path style=" stroke:none;fill-rule:nonzero;fill:rgb(9.799194%,8.999634%,10.598755%);fill-opacity:1;" d="M 370.21875 418.214844 L 397.453125 418.214844 L 397.648438 250.332031 L 370.414063 250.332031 Z M 370.21875 418.214844 "/>
<path style=" stroke:none;fill-rule:nonzero;fill:rgb(9.799194%,8.999634%,10.598755%);fill-opacity:1;" d="M 322.988281 277.605469 L 353.640625 277.605469 L 353.640625 250.332031 L 322.988281 250.332031 Z M 322.988281 277.605469 "/>
<path style=" stroke:none;fill-rule:nonzero;fill:rgb(9.799194%,8.999634%,10.598755%);fill-opacity:1;" d="M 322.988281 418.214844 L 353.640625 418.214844 L 353.640625 280.820313 L 322.988281 280.820313 Z M 322.988281 418.214844 "/>
<path style=" stroke:none;fill-rule:nonzero;fill:rgb(9.799194%,8.999634%,10.598755%);fill-opacity:1;" d="M 205.636719 418.214844 L 175.636719 418.214844 L 154.128906 354.824219 L 154.128906 320.289063 C 154.128906 320.289063 178.398438 323.054688 178.398438 300.355469 C 175.242188 277.664063 154.125 281.019531 154.125 281.019531 C 154.125 281.019531 153.933594 265.035156 153.933594 250.332031 C 155.273438 250.332031 158.179688 250.363281 159.457031 250.425781 C 186.296875 250.425781 207.015625 271.742188 207.015625 299.371094 C 207.015625 327.394531 181.953125 341.800781 181.953125 341.800781 C 204.253906 413.042969 205.636719 418.214844 205.636719 418.214844 "/>
<path style=" stroke:none;fill-rule:nonzero;fill:rgb(0%,29.803467%,59.999084%);fill-opacity:1;" d="M 100.140625 473.933594 C 139.246094 508.847656 188.785156 532.320313 243.503906 539.097656 L 246.75 498.328125 C 200.402344 492.199219 158.523438 471.890625 125.621094 441.902344 "/>
<path style=" stroke:none;fill-rule:nonzero;fill:rgb(89.802551%,19.215393%,21.960449%);fill-opacity:1;" d="M 425.269531 443.589844 C 391.871094 473.355469 349.484375 493.261719 302.699219 498.738281 L 305.722656 539.515625 C 360.890625 533.429688 410.949219 510.398438 450.582031 475.734375 "/>
<path style=" stroke:none;fill-rule:nonzero;fill:rgb(9.799194%,8.999634%,10.598755%);fill-opacity:1;" d="M 246.148438 48.246094 L 243.757813 12.730469 L 250.734375 12.261719 L 266.871094 35 L 265.273438 11.28125 L 271.9375 10.832031 L 274.328125 46.351563 L 267.132813 46.835938 L 251.253906 24.640625 L 252.8125 47.800781 "/>
<path style=" stroke:none;fill-rule:nonzero;fill:rgb(9.799194%,8.999634%,10.598755%);fill-opacity:1;" d="M 337.03125 40.40625 L 335.339844 26.417969 L 327.585938 38.140625 Z M 346.617188 57.183594 L 339.011719 55.363281 L 337.875 46.773438 L 324.039063 43.457031 L 319.296875 50.636719 L 311.882813 48.863281 L 333.660156 17.472656 L 341.050781 19.246094 "/>
<path style=" stroke:none;fill-rule:nonzero;fill:rgb(9.799194%,8.999634%,10.598755%);fill-opacity:1;" d="M 382.527344 73.097656 L 396.761719 47.171875 L 387.507813 42.085938 L 390.402344 36.808594 L 415.199219 50.425781 L 412.300781 55.703125 L 403.0625 50.632813 L 388.828125 76.558594 "/>
<path style=" stroke:none;fill-rule:nonzero;fill:rgb(9.799194%,8.999634%,10.598755%);fill-opacity:1;" d="M 426.265625 103.21875 L 450.125 76.796875 L 455.460938 81.617188 L 431.597656 108.035156 Z M 426.265625 103.21875 "/>
<path style=" stroke:none;fill-rule:nonzero;fill:rgb(9.799194%,8.999634%,10.598755%);fill-opacity:1;" d="M 475.644531 130.890625 C 472.289063 133.117188 470.257813 135.585938 469.554688 138.289063 C 468.851563 140.988281 469.292969 143.535156 470.878906 145.921875 C 472.464844 148.308594 474.625 149.695313 477.359375 150.085938 C 480.097656 150.472656 483.183594 149.523438 486.621094 147.238281 C 490.019531 144.984375 492.0625 142.554688 492.742188 139.953125 C 493.425781 137.355469 492.945313 134.820313 491.308594 132.351563 C 489.671875 129.882813 487.5 128.457031 484.808594 128.070313 C 482.109375 127.683594 479.058594 128.625 475.644531 130.890625 M 471.347656 124.855469 C 474.367188 122.847656 477.203125 121.617188 479.855469 121.15625 C 481.808594 120.828125 483.773438 120.851563 485.753906 121.21875 C 487.726563 121.589844 489.464844 122.273438 490.96875 123.277344 C 492.976563 124.605469 494.785156 126.476563 496.386719 128.890625 C 499.289063 133.261719 500.253906 137.65625 499.285156 142.082031 C 498.316406 146.503906 495.421875 150.320313 490.589844 153.523438 C 485.804688 156.703125 481.195313 157.890625 476.761719 157.082031 C 472.328125 156.277344 468.667969 153.695313 465.773438 149.339844 C 462.847656 144.929688 461.863281 140.53125 462.824219 136.140625 C 463.785156 131.753906 466.628906 127.988281 471.347656 124.855469 "/>
<path style=" stroke:none;fill-rule:nonzero;fill:rgb(9.799194%,8.999634%,10.598755%);fill-opacity:1;" d="M 490.957031 196.933594 L 525.117188 186.90625 L 527.085938 193.617188 L 508.378906 214.289063 L 531.1875 207.597656 L 533.066406 214.003906 L 498.90625 224.027344 L 496.878906 217.109375 L 515.109375 196.804688 L 492.839844 203.339844 "/>
<path style=" stroke:none;fill-rule:nonzero;fill:rgb(9.799194%,8.999634%,10.598755%);fill-opacity:1;" d="M 518.183594 281.511719 L 531.46875 276.820313 L 518.34375 271.796875 Z M 503.886719 294.515625 L 504.011719 286.695313 L 512.148438 283.71875 L 512.378906 269.492188 L 504.34375 266.425781 L 504.464844 258.800781 L 539.835938 273.242188 L 539.710938 280.839844 "/>
<path style=" stroke:none;fill-rule:nonzero;fill:rgb(9.799194%,8.999634%,10.598755%);fill-opacity:1;" d="M 498.015625 329.152344 L 531.863281 339.199219 L 529.8125 346.09375 L 501.71875 337.753906 L 496.632813 354.886719 L 490.882813 353.179688 "/>
<path style=" stroke:none;fill-rule:nonzero;fill:rgb(9.799194%,8.999634%,10.598755%);fill-opacity:1;" d="M 475.769531 386.125 L 505.835938 405.191406 L 491.695313 427.480469 L 486.609375 424.257813 L 496.894531 408.035156 L 490.234375 403.8125 L 480.664063 418.902344 L 475.597656 415.6875 L 485.167969 400.597656 L 476.988281 395.40625 L 466.335938 412.199219 L 461.269531 408.988281 "/>
<path style=" stroke:none;fill-rule:nonzero;fill:rgb(9.799194%,8.999634%,10.598755%);fill-opacity:1;" d="M 54.242188 406.777344 L 63.035156 401.804688 L 61.097656 398.378906 C 59.703125 395.914063 58.609375 394.355469 57.816406 393.710938 C 57.019531 393.058594 56.144531 392.695313 55.1875 392.613281 C 54.230469 392.53125 53.292969 392.75 52.378906 393.265625 C 51.25 393.90625 50.507813 394.761719 50.148438 395.839844 C 49.789063 396.914063 49.808594 398.011719 50.199219 399.128906 C 50.480469 399.957031 51.257813 401.5 52.53125 403.753906 Z M 83.523438 398.472656 L 52.535156 415.996094 L 46.859375 405.957031 C 44.707031 402.148438 43.460938 399.582031 43.117188 398.253906 C 42.578125 396.214844 42.75 394.15625 43.628906 392.074219 C 44.507813 390 46.179688 388.261719 48.644531 386.867188 C 50.550781 385.792969 52.34375 385.234375 54.03125 385.191406 C 55.71875 385.148438 57.230469 385.449219 58.574219 386.09375 C 59.914063 386.742188 61.015625 387.546875 61.878906 388.511719 C 63.015625 389.835938 64.390625 391.914063 65.992188 394.746094 L 68.296875 398.824219 L 79.984375 392.21875 "/>
<path style=" stroke:none;fill-rule:nonzero;fill:rgb(9.799194%,8.999634%,10.598755%);fill-opacity:1;" d="M 38.515625 340.539063 C 42.441406 339.625 45.207031 338.023438 46.808594 335.738281 C 48.414063 333.453125 48.890625 330.917969 48.242188 328.128906 C 47.589844 325.335938 46.054688 323.277344 43.625 321.960938 C 41.199219 320.640625 37.972656 320.445313 33.953125 321.382813 C 29.980469 322.304688 27.21875 323.867188 25.671875 326.066406 C 24.121094 328.261719 23.683594 330.804688 24.355469 333.6875 C 25.027344 336.574219 26.558594 338.671875 28.949219 339.976563 C 31.339844 341.28125 34.527344 341.46875 38.515625 340.539063 M 40.433594 347.695313 C 36.902344 348.519531 33.816406 348.683594 31.171875 348.183594 C 29.222656 347.808594 27.386719 347.101563 25.667969 346.0625 C 23.945313 345.023438 22.558594 343.773438 21.5 342.308594 C 20.082031 340.359375 19.046875 337.976563 18.390625 335.152344 C 17.199219 330.046875 17.832031 325.589844 20.285156 321.785156 C 22.742188 317.980469 26.792969 315.421875 32.433594 314.105469 C 38.03125 312.804688 42.765625 313.304688 46.636719 315.609375 C 50.503906 317.914063 53.03125 321.617188 54.21875 326.710938 C 55.421875 331.867188 54.800781 336.332031 52.367188 340.105469 C 49.929688 343.882813 45.953125 346.414063 40.433594 347.695313 "/>
<path style=" stroke:none;fill-rule:nonzero;fill:rgb(9.799194%,8.999634%,10.598755%);fill-opacity:1;" d="M 47.433594 275.351563 L 12.167969 273.675781 L 12.511719 266.492188 L 41.785156 267.886719 L 42.632813 250.035156 L 48.625 250.320313 "/>
<path style=" stroke:none;fill-rule:nonzero;fill:rgb(9.799194%,8.999634%,10.598755%);fill-opacity:1;" d="M 55.109375 217.046875 L 20.816406 207.5 L 22.742188 200.574219 L 57.035156 210.121094 Z M 55.109375 217.046875 "/>
<path style=" stroke:none;fill-rule:nonzero;fill:rgb(9.799194%,8.999634%,10.598755%);fill-opacity:1;" d="M 69.144531 150.277344 L 74.46875 145.265625 C 77.339844 148.09375 78.996094 151.050781 79.433594 154.136719 C 79.871094 157.226563 79.15625 160.4375 77.296875 163.777344 C 74.996094 167.902344 71.691406 170.511719 67.390625 171.597656 C 63.085938 172.679688 58.492188 171.859375 53.597656 169.132813 C 48.421875 166.246094 45.148438 162.671875 43.777344 158.402344 C 42.402344 154.132813 42.929688 149.820313 45.355469 145.46875 C 47.476563 141.664063 50.324219 139.199219 53.898438 138.082031 C 56.015625 137.40625 58.515625 137.40625 61.398438 138.089844 L 59.417969 145.132813 C 57.601563 144.601563 55.902344 144.660156 54.316406 145.304688 C 52.734375 145.953125 51.476563 147.109375 50.546875 148.777344 C 49.261719 151.082031 49.046875 153.414063 49.902344 155.769531 C 50.753906 158.128906 53.035156 160.339844 56.738281 162.402344 C 60.667969 164.597656 63.863281 165.449219 66.320313 164.96875 C 68.777344 164.484375 70.636719 163.109375 71.894531 160.847656 C 72.828125 159.179688 73.09375 157.445313 72.707031 155.65625 C 72.316406 153.859375 71.128906 152.070313 69.144531 150.277344 "/>
<path style=" stroke:none;fill-rule:nonzero;fill:rgb(9.799194%,8.999634%,10.598755%);fill-opacity:1;" d="M 105.449219 122.722656 L 80.285156 97.539063 L 98.960938 78.882813 L 103.214844 83.144531 L 89.628906 96.722656 L 95.207031 102.300781 L 107.847656 89.667969 L 112.089844 93.910156 L 99.449219 106.542969 L 106.292969 113.394531 L 120.363281 99.339844 L 124.601563 103.582031 "/>
</g>
</svg>
