<?xml version="1.0" encoding="UTF-8"?>
<svg xmlns="http://www.w3.org/2000/svg" xmlns:xlink="http://www.w3.org/1999/xlink" width="364.9pt" height="393.2pt" viewBox="0 0 364.9 393.2" version="1.1">
<defs>
<clipPath id="clip1">
  <path d="M 353 102 L 364.898438 102 L 364.898438 113 L 353 113 Z M 353 102 "/>
</clipPath>
<clipPath id="clip2">
  <path d="M 57 382 L 70 382 L 70 393.199219 L 57 393.199219 Z M 57 382 "/>
</clipPath>
</defs>
<g id="surface1">
<path style="fill-rule:evenodd;fill:rgb(100%,92.576599%,0%);fill-opacity:1;stroke-width:10.001;stroke-linecap:butt;stroke-linejoin:miter;stroke:rgb(2.745056%,51.756287%,32.93457%);stroke-opacity:1;stroke-miterlimit:4;" d="M 1784.6875 3597.976563 C 2763.90625 3597.976563 3557.695313 2805.90625 3557.695313 1828.796875 C 3557.695313 851.6875 2763.90625 59.617188 1784.6875 59.617188 C 805.46875 59.617188 11.679688 851.6875 11.679688 1828.796875 C 11.679688 2805.90625 805.46875 3597.976563 1784.6875 3597.976563 Z M 1784.6875 3597.976563 " transform="matrix(0.1,0,0,-0.1,0,393.2)"/>
<path style="fill-rule:evenodd;fill:rgb(100%,92.576599%,0%);fill-opacity:1;stroke-width:10.001;stroke-linecap:butt;stroke-linejoin:miter;stroke:rgb(2.745056%,51.756287%,32.93457%);stroke-opacity:1;stroke-miterlimit:4;" d="M 1784.6875 3261.257813 C 2577.539063 3261.257813 3220.273438 2619.890625 3220.273438 1828.796875 C 3220.273438 1037.664063 2577.539063 396.335938 1784.6875 396.335938 C 991.835938 396.335938 349.101563 1037.664063 349.101563 1828.796875 C 349.101563 2619.890625 991.835938 3261.257813 1784.6875 3261.257813 Z M 1784.6875 3261.257813 " transform="matrix(0.1,0,0,-0.1,0,393.2)"/>
<path style="fill:none;stroke-width:5;stroke-linecap:butt;stroke-linejoin:miter;stroke:rgb(2.745056%,51.756287%,32.93457%);stroke-opacity:1;stroke-miterlimit:4;" d="M 609.726563 2651.960938 L 1817.34375 414.265625 L 2972.65625 2652.585938 Z M 609.726563 2651.960938 " transform="matrix(0.1,0,0,-0.1,0,393.2)"/>
<path style=" stroke:none;fill-rule:evenodd;fill:rgb(89.0625%,0%,8.616638%);fill-opacity:1;" d="M 125.902344 100.796875 C 124.308594 102.710938 122.777344 104.980469 117.121094 107.867188 C 116.722656 110.984375 117.191406 115.9375 116.40625 118.449219 C 126.785156 125.296875 109.003906 128.972656 106.90625 130.035156 C 104.714844 133.742188 102.589844 137.453125 100.664063 140.945313 C 100.246094 143.171875 100.269531 145.171875 100.871094 146.820313 C 105.175781 158.664063 121.335938 148.054688 117.71875 156.257813 C 117.519531 156.910156 116.921875 157.613281 115.808594 158.382813 C 109.296875 162.886719 108.746094 163.585938 106.503906 168.929688 C 106.054688 173.4375 106.949219 178.046875 104.269531 181.285156 C 103.226563 182.546875 105.839844 188.511719 103.429688 189.273438 C 100.132813 190.3125 91.554688 187.03125 84.820313 187.691406 C 78.714844 190.128906 78.714844 192.65625 82.523438 195.378906 C 92.515625 199.601563 91.621094 200.683594 91.585938 202.535156 C 93.148438 203.878906 95.589844 204.046875 97.726563 204.089844 C 104.429688 198.824219 110.601563 205.171875 102.019531 204.851563 C 101.800781 205.628906 101.382813 207.101563 98.328125 210.144531 C 98.152344 212.996094 97.644531 215.453125 97.585938 215.515625 C 96.773438 218.179688 91.140625 217.902344 91.007813 220.714844 C 90.851563 222.941406 90.988281 225.253906 91.511719 227.285156 C 93.082031 233.394531 98.117188 237.046875 109.046875 228.6875 C 110.820313 225.460938 112.492188 221.304688 114.429688 216.9375 C 114.722656 214.726563 114.859375 212.464844 114.839844 210.242188 C 114.808594 208.089844 113.277344 206.3125 111.871094 204.851563 C 110.035156 198.429688 118.453125 194.265625 123.730469 194.320313 C 125.972656 192.628906 128.816406 190.339844 129.296875 187.265625 C 129.519531 185.816406 131.296875 185.410156 132.195313 184.933594 C 136.113281 182.859375 139.214844 186.558594 139.011719 187.613281 C 138.882813 188.308594 134.753906 186.570313 133.253906 189.402344 C 132.460938 190.902344 133.539063 201.742188 133.550781 204.519531 C 134.828125 206.632813 136.554688 207.535156 137.515625 208.761719 C 137.269531 210.761719 136.121094 213.789063 133.453125 218.6875 C 133.074219 223.84375 131.71875 231.464844 128.371094 244.941406 C 127.476563 248.558594 125.789063 252.007813 126.003906 255.21875 C 129.703125 266.339844 146.835938 269.996094 155.519531 275.945313 C 157.445313 276.019531 159.503906 276.035156 161.691406 275.992188 C 165.414063 275.921875 174.414063 276.621094 177.804688 273.320313 C 183.007813 275.972656 189.632813 292.132813 185.015625 292.621094 C 185.328125 297.398438 184.8125 301.414063 183.253906 301.988281 C 182.199219 312.507813 180.546875 322.714844 182.800781 326.121094 C 192.660156 323.121094 187.636719 314.410156 211.464844 316.210938 C 212.277344 312.734375 202.503906 293.65625 200.230469 283.871094 C 198.613281 276.890625 208.335938 283.964844 209.449219 285.546875 C 212.644531 290.054688 217.605469 295.238281 220.570313 298.621094 C 221.867188 300.105469 221.394531 303.074219 221.839844 304.984375 C 222.347656 307.160156 224.027344 311.164063 225.289063 314.195313 C 225.421875 321.617188 225.726563 332.132813 225.726563 341.34375 C 225.726563 343.175781 227.597656 339.652344 235.859375 334.046875 C 244.3125 328.300781 257.628906 326.460938 258.835938 323.578125 C 252.007813 314.628906 240.949219 306.601563 231.589844 295.472656 C 229.589844 293.09375 229.9375 286.339844 228.96875 282.855469 C 228.714844 282.003906 231.503906 282.144531 231.277344 281.261719 C 228.488281 270.011719 219.199219 253.410156 215.515625 252.714844 C 214.578125 252.535156 213.921875 253.464844 213.753906 255.878906 C 213.6875 256.847656 221.015625 265.488281 220.257813 264.910156 C 219.964844 264.683594 220.011719 267.015625 219.109375 265.761719 C 214.527344 259.394531 199.027344 244.234375 195.34375 236.855469 C 193.546875 220.652344 186.378906 215.085938 185.09375 210.46875 C 185.503906 209.992188 186.019531 209.617188 186.644531 209.363281 C 189.628906 208.152344 192.503906 207.800781 196.003906 205.660156 C 199.054688 203.796875 200.878906 199.738281 201.929688 197.066406 C 201.511719 195.1875 200.355469 193.253906 198.171875 191.230469 C 194.09375 187.464844 193.289063 181.636719 193.925781 180.425781 C 194.558594 179.214844 198.980469 181.800781 201.121094 182.925781 C 201.671875 183.234375 201.058594 191.554688 202.359375 192.140625 C 206.394531 193.960938 205.863281 185.769531 206.703125 187.003906 C 207.488281 188.152344 207.570313 189.449219 207.933594 190.628906 C 208.515625 192.515625 210.730469 194.132813 211.382813 194.035156 C 213.808594 193.671875 214.21875 188.921875 215.132813 187.714844 C 216.210938 187.378906 217.085938 186.554688 217.652344 185.050781 C 218.097656 182.136719 217.816406 181.601563 215.980469 178.019531 C 214.859375 176.003906 210.019531 174.820313 207.523438 171.839844 C 206.265625 170.339844 204.015625 170.261719 202.195313 167.421875 C 198.464844 161.609375 194.601563 152.277344 191.203125 151.945313 C 189.839844 151.808594 188.890625 149.554688 187.882813 149.171875 C 185.472656 148.253906 182.785156 147.238281 182.429688 144.265625 C 179.132813 141.421875 176.179688 138.886719 173.894531 136.839844 C 171.605469 134.785156 168.390625 129.761719 165.003906 127.898438 C 162.683594 126.628906 160.308594 126.019531 158.148438 126.945313 C 146.378906 131.996094 151.796875 121.820313 150.527344 121.730469 C 147.9375 121.640625 145.949219 118.671875 150.773438 114.214844 C 151.984375 107.789063 153.359375 100.050781 151.597656 97.046875 C 151.394531 95.421875 147.386719 96.023438 147.769531 97.304688 C 147.523438 98.40625 148.035156 104.953125 147.300781 107.175781 C 145.894531 111.425781 140.683594 91.558594 125.902344 100.796875 Z M 125.902344 100.796875 "/>
<path style=" stroke:none;fill-rule:evenodd;fill:rgb(100%,92.576599%,0%);fill-opacity:1;" d="M 113.761719 166.933594 C 112.164063 167.675781 112.546875 170.339844 110.328125 171.902344 C 109.03125 175.71875 108.914063 179.007813 108.914063 183.152344 C 108.914063 185.988281 114.226563 184.679688 114.878906 183.660156 C 116.351563 181.34375 121.238281 173.402344 121.238281 169.265625 C 121.238281 165.578125 115.878906 163.757813 113.761719 166.933594 Z M 113.761719 166.933594 "/>
<path style=" stroke:none;fill-rule:evenodd;fill:rgb(100%,92.576599%,0%);fill-opacity:1;" d="M 164.878906 153.453125 C 164.878906 158.15625 165.808594 163.589844 168.816406 167.035156 C 174.851563 173.960938 174.007813 182.355469 179.320313 187.613281 C 180.027344 188.316406 181.804688 190.140625 183.242188 189.230469 C 184.035156 188.730469 187.300781 186.402344 190.011719 185.371094 C 192.519531 184.421875 189.78125 181.554688 188.714844 179.402344 C 188.214844 178.390625 188.308594 176.601563 188.308594 175.246094 C 188.308594 172.414063 184.066406 171.847656 184.066406 167.847656 C 184.066406 165.027344 183.589844 163.496094 181.339844 161.867188 C 177.914063 159.382813 174.960938 161.253906 172.351563 157.507813 C 170.871094 155.386719 167.550781 151.257813 164.878906 153.453125 Z M 164.878906 153.453125 "/>
<path style=" stroke:none;fill-rule:evenodd;fill:rgb(100%,92.576599%,0%);fill-opacity:1;" d="M 188.714844 188.554688 C 190.097656 187.421875 192.59375 187.085938 193.714844 188.710938 C 195.21875 190.894531 198.621094 195.078125 197.851563 198.085938 C 196.96875 201.53125 190.105469 207.648438 186.691406 203.910156 C 184.941406 201.996094 184.261719 200.773438 183.210938 198.386719 C 182.714844 197.273438 182.554688 196.148438 181.640625 194.992188 C 179.410156 192.164063 187.566406 189.488281 188.714844 188.554688 Z M 188.714844 188.554688 "/>
<path style=" stroke:none;fill-rule:evenodd;fill:rgb(100%,92.576599%,0%);fill-opacity:1;" d="M 116.339844 131.9375 C 119.003906 132.078125 118.855469 134.675781 122.496094 134.675781 C 124.203125 134.675781 120.570313 138.746094 119.820313 139.640625 C 117.761719 142.105469 122.425781 147.347656 116.234375 147.347656 C 111.03125 147.347656 103.089844 150.390625 105.828125 142.429688 C 106.460938 140.609375 108.09375 136.890625 109.214844 135.433594 C 109.6875 134.820313 115.152344 132.089844 116.339844 131.9375 Z M 116.339844 131.9375 "/>
<path style=" stroke:none;fill-rule:evenodd;fill:rgb(100%,92.576599%,0%);fill-opacity:1;" d="M 160.421875 220.90625 C 157.980469 222.597656 159.050781 230.355469 157.441406 236.554688 C 157.019531 245.367188 145.746094 252.128906 159.816406 253.210938 C 165.554688 253.644531 169.351563 258.398438 175.257813 260.578125 C 181.480469 262.878906 185.070313 260.984375 178.992188 256.234375 C 175.527344 253.523438 173.90625 250.171875 171.523438 247.148438 C 166.171875 240.378906 165.027344 229.074219 160.421875 220.90625 Z M 160.421875 220.90625 "/>
<path style=" stroke:none;fill-rule:evenodd;fill:rgb(89.0625%,0%,8.616638%);fill-opacity:1;" d="M 5.921875 90.535156 C 9.183594 90.535156 11.835938 92.886719 11.832031 95.785156 C 11.832031 98.6875 9.183594 101.039063 5.921875 101.039063 C 2.664063 101.039063 0.015625 98.6875 0.015625 95.785156 C 0.015625 92.886719 2.664063 90.535156 5.921875 90.535156 Z M 5.921875 90.535156 "/>
<path style=" stroke:none;fill-rule:evenodd;fill:rgb(89.0625%,0%,8.616638%);fill-opacity:1;" d="M 189.71875 -0.0507813 C 192.980469 -0.0507813 195.628906 2.300781 195.628906 5.199219 C 195.628906 8.101563 192.980469 10.453125 189.71875 10.453125 C 186.460938 10.453125 183.8125 8.101563 183.8125 5.199219 C 183.8125 2.300781 186.460938 -0.0507813 189.71875 -0.0507813 Z M 189.71875 -0.0507813 "/>
<g clip-path="url(#clip1)" clip-rule="nonzero">
<path style=" stroke:none;fill-rule:evenodd;fill:rgb(89.0625%,0%,8.616638%);fill-opacity:1;" d="M 359.074219 102.351563 C 362.339844 102.351563 364.980469 104.703125 364.980469 107.601563 C 364.980469 110.503906 362.339844 112.851563 359.074219 112.851563 C 355.8125 112.851563 353.171875 110.503906 353.171875 107.601563 C 353.171875 104.703125 355.8125 102.351563 359.074219 102.351563 Z M 359.074219 102.351563 "/>
</g>
<path style=" stroke:none;fill-rule:evenodd;fill:rgb(89.0625%,0%,8.616638%);fill-opacity:1;" d="M 306.6875 368.859375 C 309.949219 368.859375 312.59375 371.214844 312.59375 374.109375 C 312.59375 377.007813 309.949219 379.359375 306.6875 379.359375 C 303.425781 379.359375 300.78125 377.007813 300.78125 374.109375 C 300.78125 371.210938 303.425781 368.859375 306.6875 368.859375 Z M 306.6875 368.859375 "/>
<g clip-path="url(#clip2)" clip-rule="nonzero">
<path style=" stroke:none;fill-rule:evenodd;fill:rgb(89.0625%,0%,8.616638%);fill-opacity:1;" d="M 63.6875 382.640625 C 66.953125 382.640625 69.59375 384.992188 69.59375 387.890625 C 69.59375 390.792969 66.953125 393.144531 63.6875 393.144531 C 60.425781 393.144531 57.777344 390.792969 57.777344 387.890625 C 57.777344 384.992188 60.425781 382.640625 63.6875 382.640625 Z M 63.6875 382.640625 "/>
</g>
</g>
</svg>
