<?xml version="1.0" encoding="UTF-8"?>
<svg xmlns="http://www.w3.org/2000/svg" xmlns:xlink="http://www.w3.org/1999/xlink" width="852pt" height="648pt" viewBox="0 0 852 648" version="1.1">
<g id="surface1">
<path style=" stroke:none;fill-rule:evenodd;fill:rgb(100%,100%,100%);fill-opacity:1;" d="M 426.402344 1.011719 C 661.214844 1.011719 851.636719 145.742188 851.636719 324.210938 C 851.636719 502.683594 661.214844 647.414063 426.402344 647.414063 C 191.59375 647.414063 1.171875 502.683594 1.171875 324.210938 C 1.171875 145.742188 191.59375 1.011719 426.402344 1.011719 "/>
<path style="fill:none;stroke-width:5.0003;stroke-linecap:butt;stroke-linejoin:miter;stroke:rgb(50.19989%,50.999451%,52.198792%);stroke-opacity:1;stroke-miterlimit:2.6131;" d="M 4264.023438 6469.882813 C 6612.148438 6469.882813 8516.367188 5022.578125 8516.367188 3237.890625 C 8516.367188 1453.164063 6612.148438 5.859375 4264.023438 5.859375 C 1915.9375 5.859375 11.71875 1453.164063 11.71875 3237.890625 C 11.71875 5022.578125 1915.9375 6469.882813 4264.023438 6469.882813 Z M 4264.023438 6469.882813 " transform="matrix(0.1,0,0,-0.1,0,648)"/>
<path style=" stroke:none;fill-rule:evenodd;fill:rgb(0%,21.998596%,42.399597%);fill-opacity:1;" d="M 311.152344 525.367188 C 262.53125 537.492188 221.558594 557.054688 193.257813 581.347656 C 180.886719 575.023438 168.996094 568.210938 157.636719 560.941406 C 185.199219 534.257813 253.488281 492.449219 283.398438 481.496094 C 284.851563 480.964844 286.46875 480.316406 288.265625 479.570313 C 295.027344 496.089844 302.757813 511.332031 311.152344 525.367188 "/>
<path style=" stroke:none;fill-rule:evenodd;fill:rgb(0%,21.998596%,42.399597%);fill-opacity:1;" d="M 839.636719 337.664063 C 836.640625 385.117188 819.511719 429.796875 791.394531 469.40625 C 746.871094 435.6875 686.058594 408.519531 615.039063 391.15625 L 615.0625 391.152344 C 656.398438 376.960938 710.308594 353.847656 737.988281 337.664063 L 839.636719 337.664063 "/>
<path style=" stroke:none;fill-rule:evenodd;fill:rgb(0%,21.998596%,42.399597%);fill-opacity:1;" d="M 647.859375 586.066406 C 588.988281 614.332031 520.027344 631.734375 445.992188 634.496094 C 472.335938 617.382813 507.074219 583.703125 536.355469 535.511719 C 582.167969 546.507813 620.855469 564.148438 647.859375 586.066406 "/>
<path style=" stroke:none;fill-rule:evenodd;fill:rgb(0%,21.998596%,42.399597%);fill-opacity:1;" d="M 416.503906 634.820313 C 338.273438 633.609375 265.421875 616.054688 203.707031 586.519531 C 231.097656 564.199219 270.554688 546.269531 317.28125 535.222656 C 347.601563 582.167969 385.0625 614.535156 416.503906 634.820313 "/>
<path style=" stroke:none;fill-rule:evenodd;fill:rgb(0%,21.998596%,42.399597%);fill-opacity:1;" d="M 329.050781 532.621094 C 358.429688 526.554688 390.398438 523.152344 423.84375 522.996094 L 423.722656 627.492188 L 410.816406 617.371094 L 404.160156 612.484375 L 397.402344 607.238281 L 390.570313 601.636719 L 383.691406 595.664063 L 376.789063 589.328125 L 369.898438 582.617188 L 363.039063 575.53125 L 356.234375 568.058594 L 349.515625 560.203125 L 342.902344 551.957031 L 336.429688 543.308594 L 330.113281 534.265625 L 329.050781 532.621094 "/>
<path style=" stroke:none;fill-rule:evenodd;fill:rgb(0%,21.998596%,42.399597%);fill-opacity:1;" d="M 435.074219 523.066406 C 466.707031 523.609375 496.914063 527.054688 524.757813 532.902344 L 522.121094 537.167969 L 515.75 546.796875 L 509.269531 555.960938 L 502.710938 564.664063 L 496.105469 572.898438 L 489.488281 580.660156 L 482.886719 587.941406 L 476.339844 594.734375 L 469.878906 601.035156 L 463.535156 606.84375 L 457.351563 612.144531 L 451.359375 616.929688 L 445.597656 621.203125 L 440.109375 624.945313 L 435.074219 628.074219 L 435.074219 523.066406 "/>
<path style=" stroke:none;fill-rule:evenodd;fill:rgb(0%,21.998596%,42.399597%);fill-opacity:1;" d="M 834.132813 269.503906 C 838.125 286.96875 840.1875 304.9375 840.136719 323.273438 C 840.132813 324.328125 840.09375 325.378906 840.074219 326.433594 L 756.09375 326.433594 C 784.167969 308.535156 812.433594 288.539063 834.132813 269.503906 Z M 762.1875 159.40625 C 751.101563 167.566406 736.519531 176.789063 727.046875 184.972656 C 708.375 201.109375 675.261719 232.257813 647.425781 241.722656 C 631.65625 247.078125 615.089844 250.933594 603.128906 251.800781 L 600.535156 242.179688 C 614.996094 240.941406 629.382813 239.136719 645.972656 231.929688 C 672.933594 220.214844 703.808594 192.214844 722.484375 176.082031 C 731.914063 167.933594 743.660156 159.316406 755.398438 151.789063 Z M 742.484375 138.453125 C 734.453125 144.558594 724.855469 150.527344 718.050781 156.40625 C 699.378906 172.539063 664.09375 204.265625 636.257813 213.730469 C 620.488281 219.089844 607.8125 222.503906 595.847656 223.367188 L 593.257813 214.179688 C 607.714844 212.941406 623.136719 209.109375 640.15625 201.898438 C 667.226563 190.429688 692.78125 163.863281 712.421875 148.914063 L 735.226563 131.554688 Z M 722.78125 119.453125 C 711.152344 126.578125 702.957031 132.304688 693.742188 139.8125 C 685.660156 146.402344 678.4375 153.382813 670.988281 159.582031 C 657.714844 170.636719 643.425781 180.328125 628.792969 186 C 613.269531 192.023438 598.019531 195.832031 586.113281 197.296875 L 584.203125 189.128906 C 592.183594 187.332031 600.789063 185.230469 606.96875 183.335938 C 615.828125 180.617188 623.859375 177.363281 631.296875 173.675781 C 653.609375 162.605469 670.226563 149.023438 688.183594 132.746094 C 693.792969 127.667969 707.046875 117.929688 715.082031 113.394531 Z M 570.878906 180.402344 C 624.589844 163.789063 665.492188 131.136719 710.574219 99.160156 C 713.210938 97.292969 743.898438 122.578125 771.25 152.273438 C 791.953125 174.753906 803.363281 193.460938 814.152344 214.195313 C 820.628906 226.636719 824.246094 237.367188 829.722656 253.027344 C 812.453125 274.136719 766.28125 308.234375 715.28125 334.628906 C 670.285156 357.910156 620.074219 376.949219 591.6875 385.484375 C 595.601563 376.523438 597.054688 321.292969 591.941406 279.636719 C 586.671875 236.660156 581.527344 205.675781 570.878906 180.402344 Z M 618.101563 342.914063 L 605.511719 278.285156 L 642.886719 263.683594 L 645.785156 278.699219 L 621.96875 287.25 L 624.109375 298.476563 L 645.304688 289.929688 L 647.828125 301.679688 L 626.671875 310.480469 L 628.753906 321.867188 L 652.449219 312.789063 L 655.523438 327.652344 Z M 742.234375 207.679688 L 775.550781 184.269531 L 792.589844 229.386719 L 797.691406 225.519531 L 806.460938 251.402344 L 796.074219 259.183594 L 791.535156 246.082031 L 766.242188 263.464844 L 771.019531 277.539063 L 760.46875 283.714844 L 750.789063 257.738281 L 754.953125 255.488281 C 754.925781 250.71875 754.085938 246.046875 752.898438 240.671875 C 751.914063 236.21875 750.902344 231.546875 747.992188 223.523438 Z M 769 206.851563 L 759.019531 212.945313 C 760.414063 218.851563 762.347656 224.523438 763.9375 230.539063 C 765.253906 235.523438 766.335938 241.636719 766.6875 247.433594 L 780.414063 237.707031 Z M 666.734375 289.625 C 665.15625 284.058594 664.742188 279.113281 665.503906 274.792969 C 666.261719 270.480469 667.953125 267.414063 670.574219 265.601563 C 672.289063 264.417969 674.046875 264.085938 675.855469 264.625 C 677.660156 265.167969 679.300781 266.511719 680.78125 268.671875 C 682.257813 270.839844 683.46875 273.589844 684.421875 276.9375 C 685.382813 280.335938 685.863281 283.644531 685.875 286.882813 C 685.878906 290.113281 685.382813 292.90625 684.382813 295.257813 C 683.378906 297.621094 682.074219 299.355469 680.453125 300.472656 C 678.703125 301.683594 676.917969 301.996094 675.105469 301.414063 C 673.289063 300.835938 671.652344 299.460938 670.183594 297.296875 C 668.726563 295.136719 667.574219 292.578125 666.734375 289.625 Z M 653.636719 295.890625 C 650.882813 285.398438 650.78125 276.085938 653.347656 267.945313 C 655.902344 259.8125 660.453125 254.046875 666.976563 250.628906 C 671.242188 248.398438 675.464844 247.769531 679.644531 248.789063 C 683.824219 249.808594 687.46875 252.339844 690.59375 256.417969 C 693.707031 260.496094 696.089844 265.675781 697.746094 271.988281 C 699.425781 278.386719 699.984375 284.621094 699.433594 290.722656 C 698.871094 296.808594 697.199219 302.074219 694.414063 306.503906 C 691.621094 310.953125 688.226563 314.21875 684.199219 316.324219 C 679.839844 318.605469 675.558594 319.195313 671.367188 318.097656 C 667.167969 317.007813 663.535156 314.417969 660.445313 310.339844 C 657.371094 306.273438 655.097656 301.457031 653.636719 295.890625 Z M 713.273438 263.78125 C 711.695313 258.214844 711.28125 253.269531 712.042969 248.949219 C 712.800781 244.632813 714.492188 241.570313 717.113281 239.757813 C 718.828125 238.574219 720.585938 238.242188 722.390625 238.78125 C 724.199219 239.324219 725.839844 240.667969 727.320313 242.828125 C 728.796875 244.996094 730.003906 247.746094 730.957031 251.09375 C 731.921875 254.492188 732.402344 257.800781 732.414063 261.039063 C 732.414063 264.269531 731.921875 267.0625 730.917969 269.414063 C 729.917969 271.777344 728.609375 273.507813 726.992188 274.628906 C 725.242188 275.839844 723.457031 276.152344 721.644531 275.570313 C 719.828125 274.988281 718.191406 273.617188 716.722656 271.449219 C 715.265625 269.292969 714.113281 266.734375 713.273438 263.78125 Z M 700.175781 270.046875 C 697.417969 259.554688 697.316406 250.238281 699.882813 242.101563 C 702.441406 233.96875 706.988281 228.199219 713.515625 224.785156 C 717.78125 222.550781 722.003906 221.925781 726.183594 222.945313 C 730.363281 223.964844 734.007813 226.496094 737.132813 230.570313 C 740.246094 234.652344 742.628906 239.832031 744.28125 246.140625 C 745.964844 252.542969 746.523438 258.777344 745.972656 264.878906 C 745.40625 270.964844 743.738281 276.230469 740.953125 280.660156 C 738.160156 285.109375 734.765625 288.375 730.734375 290.480469 C 726.378906 292.765625 722.097656 293.351563 717.90625 292.253906 C 713.707031 291.160156 710.074219 288.574219 706.984375 284.496094 C 703.910156 280.429688 701.636719 275.609375 700.175781 270.046875 "/>
<path style=" stroke:none;fill-rule:evenodd;fill:rgb(0%,21.998596%,42.399597%);fill-opacity:1;" d="M 435.074219 210.730469 L 435.074219 139.898438 C 468.539063 139.394531 500.511719 135.660156 529.964844 129.25 L 532.535156 133.273438 L 538.367188 143.089844 L 543.953125 153.261719 L 549.265625 163.800781 L 554.289063 174.726563 L 554.496094 175.226563 C 521.308594 189.535156 478.441406 200.902344 435.074219 210.730469 "/>
<path style=" stroke:none;fill-rule:evenodd;fill:rgb(0%,21.998596%,42.399597%);fill-opacity:1;" d="M 278.613281 245.832031 L 279.40625 241.039063 L 281.992188 228.0625 L 284.921875 215.570313 L 288.191406 203.546875 L 291.777344 191.960938 L 295.675781 180.800781 L 299.875 170.035156 L 304.363281 159.652344 L 309.128906 149.621094 L 314.171875 139.925781 L 319.46875 130.539063 L 320.785156 128.382813 C 352.527344 135.609375 387.320313 139.703125 423.84375 139.949219 L 423.84375 213.238281 C 368.605469 225.429688 313.867188 235.324219 278.613281 245.832031 "/>
<path style=" stroke:none;fill-rule:evenodd;fill:rgb(0%,21.998596%,42.399597%);fill-opacity:1;" d="M 265.585938 250.070313 C 184.867188 232.46875 116.75 202.351563 70.210938 164.378906 C 100.773438 125.804688 142.070313 92.601563 190.984375 67.09375 C 218.679688 92.40625 259.929688 112.878906 309.355469 125.605469 C 289.386719 159.800781 274.359375 199.867188 266.5625 249.726563 L 265.585938 250.070313 "/>
<path style=" stroke:none;fill-rule:evenodd;fill:rgb(0%,21.998596%,42.399597%);fill-opacity:1;" d="M 115.710938 326.433594 L 11.972656 326.433594 C 11.957031 325.378906 11.921875 324.328125 11.925781 323.273438 C 12.078125 268.882813 30.757813 217.75 63.449219 173.246094 C 108.320313 209.699219 171.789063 239.066406 246.679688 257.515625 C 198.199219 277.410156 153.761719 301.175781 115.710938 326.433594 "/>
<path style=" stroke:none;fill-rule:evenodd;fill:rgb(0%,21.998596%,42.399597%);fill-opacity:1;" d="M 25.082031 401.988281 C 17.976563 381.304688 13.621094 359.785156 12.34375 337.664063 L 99.347656 337.664063 C 69.582031 358.789063 44.394531 380.675781 25.082031 401.988281 "/>
<path style=" stroke:none;fill-rule:nonzero;fill:rgb(92.89856%,10.998535%,14.099121%);fill-opacity:1;" d="M 117.789063 374.230469 L 146.480469 356.371094 L 226.226563 457.015625 L 199.019531 475.882813 L 186.691406 457.964844 L 153.574219 479.734375 L 155.753906 504.800781 L 127.871094 521.296875 Z M 142.867188 394.960938 L 148.917969 451.5 L 171.359375 437.117188 Z M 237.933594 311.042969 L 249.378906 359.035156 L 284.285156 344.570313 L 272.976563 296.050781 L 301.839844 285.15625 L 332.058594 417.847656 L 303.003906 427.605469 L 290.988281 376.066406 L 256.011719 389.417969 L 267.789063 442.488281 L 238.433594 456.160156 L 208.460938 322.882813 Z M 345.855469 444.714844 L 339.617188 387.371094 L 348.160156 384.765625 C 349.632813 346.214844 347.03125 313.972656 341.09375 275.683594 L 425.921875 257.695313 L 440.0625 359.519531 L 450.691406 356.777344 L 459.648438 417.742188 L 434.8125 422.707031 L 430.4375 393.804688 L 368.492188 411.375 L 370.910156 437.828125 Z M 410.058594 368.03125 L 398.914063 296.117188 L 374.761719 301.84375 C 376.226563 326.210938 377.410156 352.746094 377.222656 377.148438 Z M 544.40625 225.179688 L 564.179688 363.734375 L 534.578125 371.222656 L 524.007813 295.667969 L 497.5625 377.992188 L 467.90625 385.152344 L 448.964844 252.214844 L 477.515625 245.078125 C 478.335938 253.378906 487.171875 318.234375 487.925781 317.953125 L 514.925781 235.351563 L 544.40625 225.179688 "/>
<path style=" stroke:none;fill-rule:evenodd;fill:rgb(0%,21.998596%,42.399597%);fill-opacity:1;" d="M 423.84375 511.761719 C 388.09375 511.929688 353.964844 515.785156 322.695313 522.660156 L 318.070313 514.949219 L 312.394531 504.671875 L 306.976563 493.964844 L 301.847656 482.835938 L 298.644531 475.136719 C 319.296875 466.324219 355.90625 451.546875 423.84375 437.023438 L 423.84375 482.878906 L 413.894531 505.660156 L 423.84375 505.371094 Z M 376.273438 509.226563 L 371.992188 462.148438 L 391.789063 460.273438 C 395.3125 459.9375 397.867188 460.085938 399.4375 460.230469 C 403.378906 460.597656 406.984375 461.996094 409.453125 465.316406 C 411.023438 467.40625 412.160156 469.773438 412.476563 472.382813 C 412.96875 477.121094 413.296875 481.796875 410.21875 485.804688 C 407.984375 488.683594 403.730469 490.394531 397.453125 490.910156 L 387.484375 491.734375 L 389.023438 507.796875 Z M 386.742188 481.59375 L 393.988281 481.003906 C 396.292969 480.816406 397.863281 480.097656 398.679688 479.15625 C 399.492188 478.214844 399.800781 476.9375 399.601563 475.328125 C 399.453125 474.171875 399.054688 473.199219 398.398438 472.417969 C 397.753906 471.644531 396.914063 471.136719 395.894531 470.925781 C 395.386719 470.820313 394.394531 470.609375 392.75 470.769531 L 385.851563 471.441406 Z M 328.425781 518.695313 L 324.820313 502.523438 L 317.851563 473.078125 L 339.261719 468.144531 C 343.5 467.171875 347.027344 466.832031 349.828125 467.171875 C 352.628906 467.503906 354.972656 468.492188 356.828125 470.128906 C 358.695313 471.761719 359.824219 473.667969 360.214844 475.824219 C 360.582031 477.851563 360.261719 479.917969 359.246094 482.027344 C 358.234375 484.132813 356.597656 485.765625 354.328125 486.941406 C 357.492188 486.742188 360.183594 487.453125 362.433594 489.039063 C 364.671875 490.632813 366.050781 492.789063 366.539063 495.519531 C 366.941406 497.707031 366.746094 499.878906 365.957031 502.03125 C 365.179688 504.195313 364.039063 505.976563 362.558594 507.410156 C 361.082031 508.828125 359.164063 510.082031 356.804688 511.167969 C 354.453125 512.253906 351.503906 513.1875 347.96875 514.03125 Z M 333.140625 489.792969 L 340.636719 488.054688 C 342.644531 487.589844 344.027344 487.082031 344.824219 486.609375 C 345.824219 486.019531 346.519531 485.289063 346.902344 484.414063 C 347.285156 483.539063 347.363281 482.523438 347.136719 481.371094 C 346.921875 480.285156 346.488281 479.398438 345.832031 478.707031 C 345.171875 478.011719 344.328125 477.628906 343.308594 477.554688 C 342.289063 477.480469 340.5625 477.761719 338.125 478.339844 L 331.019531 480.027344 Z M 336.863281 506.414063 L 345.164063 504.496094 C 346.652344 504.152344 347.550781 503.722656 348.078125 503.484375 C 349.035156 503.050781 349.796875 502.546875 350.367188 501.96875 C 350.9375 501.398438 351.351563 500.648438 351.621094 499.742188 C 351.882813 498.832031 351.90625 497.851563 351.699219 496.800781 C 351.457031 495.570313 350.949219 494.574219 350.15625 493.828125 C 349.375 493.070313 348.390625 492.644531 347.21875 492.546875 C 346.039063 492.445313 344.359375 492.660156 342.199219 493.191406 L 334.269531 495.148438 Z M 784.769531 478.390625 C 753.386719 519.300781 710.035156 554.363281 658.339844 580.871094 C 630.363281 556.945313 590.039063 537.648438 542.1875 525.589844 C 544.0625 522.125 545.898438 518.714844 547.707031 515.328125 L 548.535156 520.894531 L 560.589844 524.957031 L 556.007813 499.308594 C 568.988281 473.203125 579.960938 444.726563 588.386719 397.015625 C 668.5 413.386719 736.78125 441.984375 784.769531 478.390625 Z M 530.773438 522.882813 L 511.242188 519.023438 L 513.414063 499.648438 L 507.0625 498.960938 L 510.503906 462.945313 L 497.886719 461.257813 L 495.039063 497.21875 L 480.355469 495.523438 L 483.078125 458.609375 L 470.6875 457.164063 L 467.164063 505.402344 L 501.855469 509.609375 L 500.800781 517.289063 C 479.8125 514.097656 457.792969 512.21875 435.074219 511.832031 L 435.074219 497.257813 L 448.339844 497.351563 L 450.757813 505.8125 L 464.222656 506.25 L 447.011719 457.023438 L 435.234375 456.792969 L 435.074219 457.160156 L 435.074219 434.683594 L 436.046875 434.484375 C 494.3125 422.71875 535.230469 414.832031 575.753906 403.421875 L 572.84375 416.898438 L 569.300781 430.824219 L 565.332031 444.335938 L 560.976563 457.4375 L 556.257813 470.117188 C 555.027344 473.109375 553.753906 476.140625 552.421875 479.230469 L 551.234375 472.582031 L 540.414063 468.226563 L 514.441406 511.605469 L 526.84375 514.894531 L 530.8125 507.0625 L 538.238281 509.25 C 537.015625 511.628906 535.738281 514.066406 534.40625 516.574219 Z M 435.074219 487.5625 L 435.074219 486.515625 L 441.074219 471.632813 L 445.554688 487.851563 Z M 544.683594 496.269531 C 544.050781 497.59375 543.402344 498.933594 542.734375 500.292969 L 535.339844 498.289063 L 542.808594 483.234375 L 544.683594 496.269531 "/>
<path style=" stroke:none;fill-rule:evenodd;fill:rgb(0%,21.998596%,42.399597%);fill-opacity:1;" d="M 315.351563 115.746094 C 267.789063 104.089844 228.03125 85.246094 201.261719 61.902344 C 261.515625 32.433594 332.53125 14.410156 408.859375 11.945313 C 373.464844 43.128906 340.894531 75.34375 315.351563 115.746094 "/>
<path style=" stroke:none;fill-rule:evenodd;fill:rgb(0%,21.998596%,42.399597%);fill-opacity:1;" d="M 423.84375 128.714844 C 389.582031 128.480469 356.90625 124.84375 327.007813 118.421875 L 330.816406 112.625 L 336.84375 104.050781 L 343.097656 95.703125 L 349.570313 87.570313 L 356.253906 79.621094 L 363.128906 71.84375 L 370.195313 64.21875 L 377.445313 56.726563 L 384.859375 49.347656 L 392.4375 42.058594 L 400.160156 34.855469 L 408.027344 27.703125 L 416.019531 20.589844 L 423.84375 13.75 L 423.84375 128.714844 "/>
<path style=" stroke:none;fill-rule:evenodd;fill:rgb(0%,21.998596%,42.399597%);fill-opacity:1;" d="M 523.417969 119.316406 C 495.910156 124.925781 466.171875 128.199219 435.074219 128.667969 L 434.644531 13.753906 C 451.53125 32.101563 470.539063 49.703125 486.804688 68.671875 C 500.246094 84.351563 512.628906 102.265625 523.417969 119.316406 "/>
<path style=" stroke:none;fill-rule:evenodd;fill:rgb(0%,21.998596%,42.399597%);fill-opacity:1;" d="M 442.328125 12.246094 C 520.867188 14.109375 591.675781 32.019531 653.21875 62.378906 C 625.554688 86.167969 584.394531 105.238281 535.277344 116.722656 C 506.3125 73.207031 473.304688 40.695313 442.328125 12.246094 "/>
<path style=" stroke:none;fill-rule:evenodd;fill:rgb(0%,21.998596%,42.399597%);fill-opacity:1;" d="M 663.457031 67.597656 C 677.195313 74.824219 690.316406 82.660156 702.761719 91.0625 C 669.378906 113.824219 623.480469 144.046875 564.773438 170.664063 C 557.878906 154.839844 550.058594 140.191406 541.597656 126.550781 C 592.410156 113.988281 634.933594 93.3125 663.457031 67.597656 "/>
</g>
</svg>
