<?xml version="1.0" encoding="UTF-8" standalone="no"?>
<svg
   xmlns:dc="http://purl.org/dc/elements/1.1/"
   xmlns:cc="http://creativecommons.org/ns#"
   xmlns:rdf="http://www.w3.org/1999/02/22-rdf-syntax-ns#"
   xmlns:svg="http://www.w3.org/2000/svg"
   xmlns="http://www.w3.org/2000/svg"
   xmlns:xlink="http://www.w3.org/1999/xlink"
   xmlns:sodipodi="http://sodipodi.sourceforge.net/DTD/sodipodi-0.dtd"
   xmlns:inkscape="http://www.inkscape.org/namespaces/inkscape"
   inkscape:version="1.0 (4035a4f, 2020-05-01)"
   sodipodi:docname="A17AB660-0800-4976-B630-CFD1ACBF55DB.svg"
   id="svg851"
   version="1.1"
   viewBox="0 0 600 523.10022"
   height="523.10022"
   width="600">
  <metadata
     id="metadata855">
    <rdf:RDF>
      <cc:Work
         rdf:about="">
        <dc:format>image/svg+xml</dc:format>
        <dc:type
           rdf:resource="http://purl.org/dc/dcmitype/StillImage" />
      </cc:Work>
    </rdf:RDF>
  </metadata>
  <sodipodi:namedview
     inkscape:current-layer="svg851"
     inkscape:window-maximized="0"
     inkscape:window-y="0"
     inkscape:window-x="0"
     inkscape:cy="-66.233084"
     inkscape:cx="-56.278929"
     inkscape:zoom="0.373125"
     showgrid="false"
     id="namedview853"
     inkscape:window-height="900"
     inkscape:window-width="1440"
     inkscape:pageshadow="2"
     inkscape:pageopacity="0"
     guidetolerance="10"
     gridtolerance="10"
     objecttolerance="10"
     borderopacity="1"
     bordercolor="#666666"
     pagecolor="#ffffff" />
  <!-- Generator: sketchtool 48.2 (47327) - http://www.bohemiancoding.com/sketch -->
  <title
     id="title833">A17AB660-0800-4976-B630-CFD1ACBF55DB</title>
  <desc
     id="desc835">Created with sketchtool.</desc>
  <defs
     id="defs837">
    <linearGradient
       id="linearGradient1023"
       inkscape:collect="always">
      <stop
         id="stop1019"
         offset="0"
         style="stop-color:#0f62a1;stop-opacity:1" />
      <stop
         style="stop-color:#028bc7;stop-opacity:1"
         offset="0.15429841"
         id="stop1035" />
      <stop
         style="stop-color:#0391cf;stop-opacity:1"
         offset="0.2978965"
         id="stop1033" />
      <stop
         style="stop-color:#027db7;stop-opacity:1"
         offset="0.50212491"
         id="stop1031" />
      <stop
         style="stop-color:#07689f;stop-opacity:1"
         offset="0.67448819"
         id="stop1029" />
      <stop
         style="stop-color:#115c92;stop-opacity:1"
         offset="0.84366041"
         id="stop1027" />
      <stop
         id="stop1021"
         offset="1"
         style="stop-color:#135991;stop-opacity:1" />
    </linearGradient>
    <linearGradient
       id="linearGradient1005"
       inkscape:collect="always">
      <stop
         id="stop1001"
         offset="0"
         style="stop-color:#28a0d5;stop-opacity:1" />
      <stop
         style="stop-color:#03a1e2;stop-opacity:1"
         offset="0.27015963"
         id="stop1017" />
      <stop
         style="stop-color:#0280ba;stop-opacity:1"
         offset="0.40543044"
         id="stop1015" />
      <stop
         style="stop-color:#0273b1;stop-opacity:1"
         offset="0.55958337"
         id="stop1013" />
      <stop
         style="stop-color:#056ca8;stop-opacity:1"
         offset="0.69799292"
         id="stop1011" />
      <stop
         style="stop-color:#08649a;stop-opacity:1"
         offset="0.84898579"
         id="stop1009" />
      <stop
         id="stop1003"
         offset="1"
         style="stop-color:#0668a2;stop-opacity:1" />
    </linearGradient>
    <linearGradient
       gradientUnits="userSpaceOnUse"
       y2="49.27243"
       x2="602.63977"
       y1="47.914371"
       x1="0.2289087"
       id="linearGradient1007"
       xlink:href="#linearGradient1005"
       inkscape:collect="always" />
    <linearGradient
       gradientUnits="userSpaceOnUse"
       y2="113.70561"
       x2="5.6852808"
       y1="109.46445"
       x1="599.52924"
       id="linearGradient1025"
       xlink:href="#linearGradient1023"
       inkscape:collect="always" />
  </defs>
  <path
     style="fill:#de0223;fill-rule:evenodd;stroke:none;stroke-width:1;fill-opacity:1"
     id="Fill-1"
     d="m 532.8225,110.39203 c 0.94813,11.50031 -7.60443,21.59721 -19.10398,22.54546 -11.50335,0.95203 -21.59581,-7.60113 -22.54778,-19.10522 -0.94814,-11.50031 7.60063,-21.597222 19.10397,-22.545466 11.50335,-0.95204 21.59581,7.601125 22.54779,19.105226" />
  <polygon
     transform="matrix(10.518509,0,0,10.518509,-10.515557,-2.8252083)"
     style="fill:#de0223;stroke:none;stroke-width:0.0950705;fill-opacity:1"
     points="0.99971931,23.678808 0.99971931,22.678808 57.953642,22.678808 57.953642,23.678808 "
     fill-rule="nonzero"
     id="Stroke-2" />
  <path
     style="fill:url(#linearGradient1025);fill-rule:evenodd;stroke:none;stroke-width:1;fill-opacity:1"
     id="Clip-5"
     d="M 0.2289087,50.44642 V 48.255944 C 80.292368,177.1646 271.95449,28.34118 429.71173,2.9537347 c 0.63269,-0.2169958 1.04691,-0.3654666 1.04691,-0.3654666 l -0.14684,0.2284167 c 52.57252,-8.2953339 84.48885,1.6940907 122.02397,32.1420392 46.08004,37.323293 46.89348,74.505726 46.89348,74.505726 -79.94713,-129.569383 -271.78787,19.52964 -429.70125,44.93719 -0.63647,0.22457 -1.05069,0.36552 -1.05069,0.36552 l 0.14684,-0.22079 C 116.35543,162.84164 84.431553,152.8446 46.888901,122.40807 7.9792364,90.884808 1.3497252,59.453883 0.2289087,50.44642 Z" />
  <path
     style="fill:url(#linearGradient1007);fill-rule:evenodd;stroke:none;stroke-width:1;fill-opacity:1"
     id="Clip-8"
     d="M 0.2289087,48.071096 V 47.91437 C 80.292368,175.96102 271.95449,28.132773 429.71173,2.9150914 c 0.63269,-0.2155453 1.04691,-0.3630232 1.04691,-0.3630232 l -0.14684,0.2268895 c 52.57252,-8.2398636 84.48885,1.6827625 122.02397,31.9271083 46.08004,37.073713 46.89348,74.007514 46.89348,74.007514 C 518.36572,-60.534505 325.35755,76.593615 186.05543,118.27318 52.318837,158.30167 3.879312,56.271624 0.2289087,48.071096 Z" />
  <g
     id="g999">
    <polyline
       id="Fill-10"
       points="1 31.4569536 7.95364238 31.4569536 7.95364238 35.1016219 5.10571573 35.1016219 5.10571573 38.5549915 7.64118415 38.5549915 7.64118415 42.0197819 5.10571573 42.0197819 5.10571573 49.6688742 1 49.6688742 1 31.4569536"
       style="fill:#016eb7;fill-rule:evenodd;stroke:none;stroke-width:0.0950705;fill-opacity:1"
       transform="matrix(10.518509,0,0,10.518509,-10.515557,-2.8252083)" />
    <polyline
       id="Fill-11"
       points="8.94701987 31.4569536 15.9006623 31.4569536 15.9006623 35.1016219 13.0527356 35.1016219 13.0527356 38.5549915 15.5885657 38.5549915 15.5885657 42.0197819 13.0527356 42.0197819 13.0527356 49.6688742 8.94701987 49.6688742 8.94701987 31.4569536"
       style="fill:#016eb7;fill-rule:evenodd;stroke:none;stroke-width:0.0950705;fill-opacity:1"
       transform="matrix(10.518509,0,0,10.518509,-10.515557,-2.8252083)" />
    <polyline
       id="Fill-12"
       points="16.8940397 31.4569536 23.5809951 31.4569536 23.5809951 35.1016219 20.9045881 35.1016219 20.9045881 38.5549915 23.4096797 38.5549915 23.4096797 42.0197819 20.9045881 42.0197819 20.9045881 46.0242059 23.8476821 46.0242059 23.8476821 49.6688742 16.8940397 49.6688742 16.8940397 31.4569536"
       style="fill:#016eb7;fill-rule:evenodd;stroke:none;stroke-width:0.0950705;fill-opacity:1"
       transform="matrix(10.518509,0,0,10.518509,-10.515557,-2.8252083)" />
    <path
       d="m 341.20992,385.38665 h -39.61307 v -14.44534 c 0,-6.74341 -0.50689,-11.03193 -1.52057,-12.88069 -1.01367,-1.84497 -2.70199,-2.76935 -5.06484,-2.76935 -2.56782,0 -4.50953,1.2464 -5.82512,3.7354 -1.31931,2.49279 -0.86094,6.26229 -0.86094,11.32365 0,6.50475 -0.37646,11.40321 1.10688,14.69536 1.41249,3.29215 5.43008,7.26244 12.05275,11.91086 18.98849,13.39214 34.28735,27.77305 39.21802,36.36145 4.93067,8.58839 4.05112,19.02934 4.05112,38.12687 0,13.88463 -1.36776,24.11342 -4.09957,30.69393 -2.73926,6.57674 -8.02399,12.09271 -15.8579,16.54791 -7.83763,4.45521 -16.9536,4.41354 -27.35534,4.41354 -11.41172,0 -21.15753,-0.30304 -29.22623,-5.43641 -8.07244,-5.13334 -13.35716,-11.67598 -15.85791,-19.62033 -2.50073,-7.94436 -3.74551,-19.21497 -3.74551,-33.82321 v -12.75567 h 39.61306 v 23.71185 c 0,7.30411 0.55527,11.99799 1.66965,14.08163 1.11434,2.08364 3.08959,3.12926 5.92574,3.12926 2.8399,0 4.94931,-1.32217 6.33571,-3.9703 1.38267,-2.64812 0.9615,-6.58051 0.9615,-11.7972 0,-11.47518 -0.20501,-18.9763 -2.83616,-22.50712 -2.70199,-3.53083 -9.35821,-9.42943 -19.9612,-17.6958 -10.60299,-8.34594 -17.62817,-14.39987 -21.07182,-18.17315 -3.44363,-3.77329 -7.41277,-8.98997 -9.67498,-15.64627 -2.26595,-6.66007 -2.28086,-15.16512 -2.28086,-25.51893 0,-14.92645 1.60256,-25.83716 4.81141,-32.7397 3.20885,-6.90254 8.39295,-12.29349 15.55229,-16.18801 7.15935,-3.89072 15.80572,-3.57249 25.9354,-3.57249 11.07631,0 20.52023,-0.14021 28.31688,4.11424 7.80037,4.25442 12.96955,9.61128 15.50384,16.06678 2.53055,6.46308 3.7977,17.4344 3.7977,32.92154 v 7.7057"
       id="Fill-13"
       style="fill:#016eb7;fill-rule:evenodd;stroke:none;stroke-width:1;fill-opacity:1" />
    <path
       d="m 452.66431,385.38665 h -39.61306 v -14.44534 c 0,-6.74341 -0.50688,-11.03193 -1.52056,-12.88069 -1.00999,-1.84497 -2.69827,-2.76935 -5.06484,-2.76935 -2.56783,0 -4.50581,1.2464 -5.82512,3.7354 -1.3156,2.49279 -0.86094,6.26229 -0.86094,11.32365 0,6.50475 -0.37646,11.40321 1.10688,14.69536 1.41622,3.29215 5.43008,7.26244 12.05275,11.91086 18.98849,13.39214 34.28735,25.51135 39.21802,34.09217 4.93067,8.59218 4.05113,21.29862 4.05113,40.39615 0,13.88463 -1.36778,24.11342 -4.09958,30.69393 -2.73926,6.57674 -8.02398,12.09271 -15.85789,16.54791 -7.83765,4.45521 -16.95361,4.41354 -27.35162,4.41354 -11.41545,0 -21.16125,-0.30304 -29.22997,-5.43641 -8.07243,-5.13334 -13.35715,-11.67598 -15.85789,-19.62033 -2.49701,-7.94436 -3.74553,-19.21497 -3.74553,-33.82321 v -12.75567 h 39.60934 v 23.71185 c 0,7.30411 0.55906,11.99799 1.67711,14.08163 1.11061,2.08364 3.08959,3.12926 5.92574,3.12926 2.83244,0 4.94559,-1.32217 6.33199,-3.9703 1.38267,-2.64812 0.9615,-6.58051 0.9615,-11.7972 0,-11.47518 -0.20501,-18.9763 -2.83616,-22.50712 -2.70572,-3.53083 -9.35821,-9.42943 -19.9612,-17.6958 -10.60299,-8.34594 -17.62444,-14.39987 -21.07181,-18.17315 -3.44737,-3.77329 -7.41277,-8.98997 -9.675,-15.64627 -2.26221,-6.66007 -2.28085,-15.16512 -2.28085,-25.51893 0,-14.92645 1.60629,-25.83716 4.81514,-32.7397 3.20511,-6.90254 8.38921,-12.29349 15.55229,-16.18801 7.15562,-3.89072 15.802,-3.57249 25.93539,-3.57249 11.07631,0 20.51651,-0.14021 28.31688,4.11424 7.79664,4.25442 12.96584,9.61128 15.50012,16.06678 2.53056,6.46308 3.79769,17.4344 3.79769,32.92154 v 7.7057"
       id="Fill-14"
       style="fill:#016eb7;fill-rule:evenodd;stroke:none;stroke-width:1;fill-opacity:1" />
    <path
       d="m 599.99999,327.77868 v 193.18258 h -37.36942 l -0.0526,-130.41755 -14.87923,130.41755 h -26.50469 l -15.69267,-127.43433 -0.0494,127.43433 H 468.07913 V 327.77868 h 55.32165 c 1.64195,11.61867 3.33286,25.30439 5.07272,41.06853 l 6.07446,49.13987 9.82534,-90.2084 h 55.62669"
       id="Fill-15"
       style="fill:#016eb7;fill-rule:evenodd;stroke:none;stroke-width:1;fill-opacity:1" />
  </g>
</svg>
