<?xml version="1.0" encoding="UTF-8" standalone="no"?>
<!-- Created with Inkscape (http://www.inkscape.org/) -->

<svg
   xmlns:dc="http://purl.org/dc/elements/1.1/"
   xmlns:cc="http://creativecommons.org/ns#"
   xmlns:rdf="http://www.w3.org/1999/02/22-rdf-syntax-ns#"
   xmlns:svg="http://www.w3.org/2000/svg"
   xmlns="http://www.w3.org/2000/svg"
   xmlns:sodipodi="http://sodipodi.sourceforge.net/DTD/sodipodi-0.dtd"
   xmlns:inkscape="http://www.inkscape.org/namespaces/inkscape"
   width="140.03867mm"
   height="33.360271mm"
   viewBox="0 0 496.2 118.20569"
   id="svg4798"
   version="1.1"
   inkscape:version="0.91 r13725"
   sodipodi:docname="SSI-logo_new.svg">
  <defs
     id="defs4800" />
  <sodipodi:namedview
     id="base"
     pagecolor="#ffffff"
     bordercolor="#666666"
     borderopacity="1.0"
     inkscape:pageopacity="0.0"
     inkscape:pageshadow="2"
     inkscape:zoom="1.4"
     inkscape:cx="278.79551"
     inkscape:cy="13.568228"
     inkscape:document-units="px"
     inkscape:current-layer="layer1"
     showgrid="false"
     fit-margin-top="0"
     fit-margin-left="0"
     fit-margin-right="0"
     fit-margin-bottom="0"
     inkscape:window-width="1600"
     inkscape:window-height="839"
     inkscape:window-x="0"
     inkscape:window-y="0"
     inkscape:window-maximized="1" />
  <metadata
     id="metadata4803">
    <rdf:RDF>
      <cc:Work
         rdf:about="">
        <dc:format>image/svg+xml</dc:format>
        <dc:type
           rdf:resource="http://purl.org/dc/dcmitype/StillImage" />
        <dc:title></dc:title>
      </cc:Work>
    </rdf:RDF>
  </metadata>
  <g
     inkscape:label="Layer 1"
     inkscape:groupmode="layer"
     id="layer1"
     transform="translate(-57.61428,-56.116506)">
    <path
       inkscape:connector-curvature="0"
       id="path4774"
       style="fill:#e32118;fill-opacity:1"
       d="m 206.3036,172.29436 c 0.4205,-1.11532 10.3534,-27.61035 22.073,-58.87785 11.7196,-31.267504 21.4018,-56.952564 21.5159,-57.077924 0.1142,-0.12535 6.7006,-0.19285 14.6364,-0.15 l 14.4288,0.0779 -22.106,58.950004 -22.1059,58.95 -14.6034,0.0779 -14.6034,0.0778 0.7646,-2.02784 z m -33.38996,-25.67359 c 2.45584,-1.21374 3.93128,-2.66225 5.07421,-4.98159 0.55843,-1.13321 0.67643,-1.87095 0.67643,-4.22898 0,-4.65163 -0.3111,-5.1207 -10.59185,-15.96993 -12.93269,-13.64782 -13.28928,-14.04994 -14.99254,-16.90714 -0.86936,-1.45833 -2.00928,-3.93741 -2.53317,-5.509064 -0.88902,-2.66704 -0.95244,-3.13758 -0.95121,-7.05756 0.001,-4.16955 0.3004,-5.73468 1.76297,-9.225 0.20794,-0.49624 -0.66509,-0.52488 -15.9371,-0.52273 -9.87486,10e-4 -16.9146,0.12516 -18.10529,0.31833 -5.01275,0.81327 -7.61756,3.36455 -7.58958,7.43362 0.025,3.63609 -0.18909,3.37693 22.88777,27.705884 25.71524,27.11049 25.7476,27.14312 28.18414,28.42252 2.9606,1.55459 4.0552,1.82057 7.10643,1.72685 2.47198,-0.0759 2.96286,-0.19405 5.00879,-1.20521 z M 94.2754,173.98593 c -7.58831,-1.02608 -14.49566,-4.1148 -21.40022,-9.56942 -2.32303,-1.8352 -15.2609,-15.09389 -15.2609,-15.63933 0,-0.40308 9.92086,-26.786 10.1687,-27.04199 0.12317,-0.12723 3.45435,3.17818 7.40262,7.34535 12.06942,12.73857 14.60907,15.28221 16.46622,16.49213 5.1984,3.3867 11.58689,3.07057 15.70015,-0.77691 3.83481,-3.58701 4.33149,-8.9496 1.26084,-13.61291 -0.6216,-0.94399 -5.58773,-6.39838 -11.03586,-12.12088 -5.44813,-5.72249 -10.30571,-10.98749 -10.79464,-11.7 -2.01746,-2.94003 -3.76256,-7.17912 -4.60882,-11.195464 -0.4891,-2.32129 -0.48915,-9.37839 -7e-5,-11.7 0.56056,-2.66096 1.80339,-6.35673 2.82478,-8.4 3.1544,-6.31033 8.70423,-11.75472 15.38585,-15.09353 4.26304,-2.13025 10.69642,-3.91051 16.39341,-4.53641 1.96571,-0.21597 22.42183,-0.32006 62.89634,-0.32006 l 59.9832,0 -5.1916,12.975 -5.1916,12.975 -21.1047,0.15917 c -23.19363,0.17493 -22.57806,0.12535 -25.44305,2.04949 -1.50895,1.01343 -2.91618,2.97675 -3.19362,4.45565 -0.31203,1.66322 0.0653,4.45469 0.81184,6.0064 0.44454,0.92395 2.38426,3.17933 5.48626,6.379074 4.9369,5.09244 12.9915,13.83832 14.98467,16.27072 1.7819,2.17455 3.7392,5.847 4.6792,8.7795 3.793,11.83305 -0.2826,25.40754 -10.76472,35.85341 -7.21598,7.19102 -15.28078,11.10718 -24.72736,12.00726 -11.84789,1.12888 -23.66869,-3.9095 -34.26125,-14.60316 l -3.62321,-3.65779 -1.91534,2.71372 c -5.50577,7.80075 -13.06076,12.83019 -22.48824,14.97066 -3.03461,0.68899 -10.19348,0.97416 -13.43888,0.53532 z" />
    <path
       inkscape:connector-curvature="0"
       id="path3890"
       style="fill:#000000"
       d="m 540.5223,81.391546 c -0.2157,-0.38066 -11.992,-20.32067 -12.043,-20.39141 -0.038,-0.0523 -11.63,19.50845 -12.0846,20.39141 -0.064,0.12375 5.3676,0.225 12.0696,0.225 6.702,0 12.1281,-0.10125 12.058,-0.225 z m -37.408,12.35003 c 0,-0.0962 4.9612,-8.53142 11.025,-18.74487 l 11.025,-18.5699 3.3,0.007 3.3,0.007 10.95,18.47508 c 6.0225,10.1613 10.995,18.59329 11.05,18.73775 0.055,0.14446 -1.244,0.26266 -2.8867,0.26266 l -2.9868,0 -2.2941,-3.9028 -2.2942,-3.90279 -14.9118,0.0778 -14.9119,0.0778 -2.2506,3.825 -2.2506,3.825 -2.9316,0 c -1.6125,0 -2.9317,-0.0787 -2.9317,-0.17497 z m -13.8213,-21.9505 c 1.7586,-0.89673 2.2203,-1.83555 2.3622,-4.80298 0.1647,-3.44457 -0.3011,-4.656 -2.1046,-5.47457 -1.2149,-0.55141 -2.0646,-0.58417 -15.3113,-0.59039 l -14.025,-0.007 0,5.7 0,5.7 14.025,-4.8e-4 c 12.7596,-4.2e-4 14.1178,-0.0478 15.0537,-0.525 z m 1.2897,17.26852 c 1.8843,-0.85407 2.3293,-1.96096 2.3293,-5.79305 0,-3.74094 -0.3961,-4.79771 -2.1594,-5.76044 -0.9065,-0.49489 -2.2116,-0.54726 -15.7633,-0.63251 l -14.775,-0.093 0,6.48129 0,6.4813 14.625,-0.0883 c 12.967,-0.0783 14.7518,-0.14581 15.7434,-0.59529 z m -35.7684,-13.90421 0,-18.76117 17.925,0.0862 17.925,0.0862 1.5,0.68981 c 2.0509,0.94313 3.6374,2.56647 4.2187,4.31647 0.3639,1.09551 0.4561,2.34171 0.3807,5.14428 -0.095,3.51796 -0.1405,3.75241 -0.9418,4.80176 -0.844,1.10539 -2.7137,2.27372 -3.7207,2.32505 -0.2953,0.0151 0.2281,0.26787 1.1632,0.56182 2.3585,0.74148 3.5005,1.64601 4.3317,3.43096 0.6438,1.38258 0.712,1.93417 0.7087,5.72985 0,3.42795 -0.1049,4.42272 -0.5541,5.41161 -0.8257,1.81795 -3.0652,3.63051 -5.362,4.33992 -1.8438,0.5695 -2.8003,0.59847 -19.756,0.59847 l -17.8184,0 0,-18.76116 z m -45.45,19.01636 c -2.661,-0.34074 -5.5128,-1.6532 -6.5517,-3.01518 -1.8271,-2.39553 -1.8117,-2.23427 -1.8308,-19.14002 l -0.017,-15.45 2.6144,-0.0865 2.6144,-0.0865 0.086,15.08652 c 0.098,17.21898 0,16.54439 2.5819,17.73782 1.3699,0.63312 1.7136,0.64871 14.3037,0.64871 12.8251,0 12.9073,-0.004 14.1706,-0.67886 2.4463,-1.30702 2.3186,-0.38001 2.4148,-17.53257 l 0.085,-15.23857 2.7044,0 2.7044,0 -0.09,15.675 -0.09,15.675 -0.7175,1.58805 c -1.2894,2.85365 -3.5319,4.21632 -7.9825,4.85072 -2.5685,0.36614 -24.0874,0.33938 -27,-0.0336 z m -52.1493,0.0418 c -2.8887,-0.50675 -4.4839,-1.27817 -6.2528,-3.02368 -1.4476,-1.42837 -1.8066,-2.01196 -2.4,-3.90148 -0.6715,-2.13794 -0.6979,-2.59582 -0.6979,-12.12187 0,-8.56375 0.071,-10.12773 0.5224,-11.58718 1.1563,-3.73481 3.6147,-6.07841 7.3313,-6.98922 1.7955,-0.44002 3.7586,-0.49117 15.8479,-0.41292 l 13.7984,0.0893 1.8742,0.86563 c 2.1736,1.00388 4.0681,2.89499 4.5863,4.57796 0.1958,0.63603 0.4242,2.47266 0.5076,4.08141 l 0.1517,2.925 -2.4349,0 -2.4349,0 0,-2.05281 c 0,-2.83744 -0.8345,-4.42594 -2.8614,-5.44719 l -1.4886,-0.75 -12.15,0 c -9.342,0 -12.4608,0.0937 -13.4948,0.40537 -1.7208,0.51868 -3.7217,2.48438 -4.169,4.09562 -0.211,0.7601 -0.3324,4.60339 -0.3316,10.49901 10e-4,9.20124 0.01,9.31652 0.7256,10.85569 0.8217,1.76488 2.2406,2.86663 4.3698,3.39317 0.9122,0.22559 5.29,0.30422 13.5,0.24249 l 12.15,-0.0913 1.4795,-0.75 c 2.0398,-1.03409 2.5705,-2.13245 2.5705,-5.32032 l 0,-2.47968 2.5918,0 2.5919,0 -0.1494,3.38582 c -0.2367,5.3641 -1.6792,7.5761 -5.8403,8.95632 -1.9839,0.65804 -2.4321,0.6799 -15.244,0.74355 -7.26,0.0361 -13.8522,-0.0488 -14.6493,-0.18866 z m -51.2547,-0.0313 c -3.0569,-0.39415 -5.2859,-1.34366 -6.8877,-2.93399 -1.705,-1.69275 -2.3583,-3.63141 -2.3583,-6.99831 l 0,-2.35769 2.475,0.0871 2.475,0.0871 0.15,2.41557 c 0.1761,2.83522 0.6452,3.72561 2.4794,4.70557 1.2612,0.67383 1.3628,0.67886 13.7206,0.67886 l 12.45,0 1.4844,-0.75 c 2.4013,-1.21326 2.7156,-1.87322 2.7156,-5.7023 0,-3.1976 -0.016,-3.27547 -0.883,-4.1799 -0.4856,-0.50688 -1.3631,-1.07176 -1.95,-1.2553 -0.6561,-0.2052 -5.8032,-0.41674 -13.367,-0.54937 -13.6472,-0.23929 -15.2186,-0.4298 -18.1818,-2.20428 -1.2848,-0.76945 -1.7806,-1.31021 -2.5097,-2.73764 -0.8753,-1.71383 -0.9083,-1.92199 -0.9038,-5.7 0,-2.97886 0.1228,-4.18361 0.4959,-5.01308 1.244,-2.76576 4.1783,-4.71166 8.0494,-5.33806 2.5319,-0.4097 22.0526,-0.41247 24.5732,-0.003 6.1883,1.00406 8.639,3.40217 8.9639,8.77118 l 0.1415,2.33776 -2.5143,-0.0878 -2.5143,-0.0878 -0.2034,-2.05764 c -0.3467,-3.50754 -1.4888,-4.22649 -7.5203,-4.73375 -5.2808,-0.44411 -18.3886,-0.17406 -20.5636,0.42366 -2.9061,0.79863 -3.9627,2.41797 -3.9627,6.07299 0,2.90727 0.4846,3.88676 2.3463,4.74264 1.339,0.61559 1.9773,0.65466 13.8537,0.84793 6.8475,0.11143 13.0594,0.33917 13.8041,0.50609 3.8244,0.8571 6.0622,2.3276 7.3779,4.84808 0.798,1.52884 0.9696,7.68092 0.2803,10.05191 -1.0156,3.49378 -4.1469,5.54195 -9.3911,6.14283 -3.1366,0.35939 -21.2821,0.33756 -24.1252,-0.029 z m 187.6914,44.959284 c -0.079,-0.20625 -0.1086,-6.585 -0.066,-14.175 l 0.078,-13.8 2.175,-0.0881 2.175,-0.0881 0,12.31315 0,12.31314 10.65,0 10.65,0 0,1.95 0,1.95 -12.7594,0 c -9.9309,0 -12.7913,-0.0831 -12.9032,-0.375 z m -121.0374,-13.875 0,-14.27629 2.175,0.0881 2.175,0.0881 0.081,5.925 0.081,5.925 11.9873,0 11.9873,0 0.081,-5.925 0.081,-5.925 2.1,0 2.1,0 0.078,14.175 0.078,14.175 -2.2529,0 -2.253,0 0,-6.45 0,-6.45 -11.994,0 -11.994,0 -0.081,6.375 -0.081,6.375 -2.175,0.0881 -2.175,0.0881 0,-14.27629 z m 156.3639,14.23904 c -2.8964,-0.30406 -5.2223,-1.43707 -6.3042,-3.07094 -0.6961,-1.05117 -0.8245,-1.59646 -0.9151,-3.88485 l -0.1054,-2.66205 2.0554,0.0894 2.0554,0.0894 0.15,1.99436 c 0.1781,2.3677 0.6732,3.05177 2.5513,3.52468 1.7016,0.42846 16.113,0.43951 18.0977,0.0139 2.1463,-0.4603 2.8438,-1.33198 2.9975,-3.74563 0.1459,-2.29001 -0.2697,-3.5019 -1.3918,-4.05896 -0.5886,-0.29225 -3.3015,-0.45251 -10.1047,-0.59695 -5.2994,-0.11251 -9.9241,-0.34758 -10.7508,-0.54645 -4.2531,-1.02318 -5.6415,-2.86792 -5.6562,-7.51536 -0.018,-5.56059 2.097,-7.51449 8.8341,-8.16252 3.974,-0.38225 14.3386,-0.16029 16.7229,0.35812 4.1759,0.90797 5.9937,3.01716 5.9983,6.95984 l 0,1.425 -2.1,0 -2.1,0 0,-1.00524 c 0,-1.72771 -0.5522,-2.80167 -1.7459,-3.39549 -0.991,-0.493 -1.9647,-0.54928 -9.5041,-0.54928 -9.0878,0 -10.1304,0.14485 -11.2453,1.56218 -0.4738,0.60229 -0.6047,1.21764 -0.6047,2.84192 0,1.78216 0.1,2.17317 0.7123,2.78551 0.9396,0.93959 1.6921,1.0136 11.8877,1.16926 7.4438,0.11365 8.7891,0.20691 10.3975,0.72081 3.8938,1.24409 4.9062,2.78258 4.8959,7.44004 -0.01,3.32692 -0.4701,4.77296 -1.9806,6.18937 -1.3137,1.23192 -2.8692,1.74401 -6.2138,2.04569 -3.5792,0.32285 -13.4992,0.31347 -16.6351,-0.0157 z m -47.5103,-4.33904 c 1.9788,-1.1831 2.1464,-1.95788 2.1464,-9.9222 0,-6.64671 -0.04,-7.1669 -0.6283,-8.21398 -1.2767,-2.2716 -1.2325,-2.26382 -12.8717,-2.26382 -9.8696,0 -10.3982,0.0283 -11.3894,0.61061 -0.5717,0.33585 -1.3142,1.07835 -1.65,1.65 -0.5683,0.9674 -0.6106,1.5381 -0.6106,8.23939 0,11.12979 -0.6095,10.67294 14.1,10.56957 9.2964,-0.0653 9.9612,-0.10615 10.9036,-0.66957 z m -21.8536,4.35804 c -3.2545,-0.4207 -5.5516,-1.95745 -6.6714,-4.46313 -0.8227,-1.84065 -1.2302,-6.81502 -1.0134,-12.3684 0.2462,-6.30644 0.9786,-8.51989 3.3585,-10.15063 2.1065,-1.4434 3.2985,-1.60545 12.8818,-1.75135 13.1375,-0.20001 15.8445,0.27658 18.0585,3.17946 1.593,2.08848 1.736,3.019 1.736,11.29601 0,8.27701 -0.143,9.20752 -1.736,11.296 -1.263,1.65593 -3.1295,2.58537 -5.914,2.94493 -2.5497,0.32925 -18.1854,0.34216 -20.7,0.0171 z M 439.28,135.60332 c 1.5594,-0.43309 2.7667,-1.54456 3.1815,-2.92884 0.4765,-1.59045 0.4765,-13.22546 0,-14.81592 -0.4148,-1.38427 -1.6221,-2.49575 -3.1815,-2.92884 -1.529,-0.42464 -18.7481,-0.41004 -20.3157,0.0172 -0.66,0.1799 -1.5212,0.6179 -1.9137,0.97333 -1.3984,1.26635 -1.5363,2.10512 -1.5363,9.34624 0,7.24025 0.1372,8.07513 1.5363,9.35055 0.3925,0.35781 1.1862,0.78438 1.7637,0.94795 1.4243,0.40341 19.0324,0.43636 20.4657,0.0383 z m -20.6445,3.8984 c -3.7053,-0.48366 -5.9758,-2.24134 -6.9565,-5.3852 -0.4261,-1.36608 -0.5147,-2.88893 -0.5147,-8.85 0,-8.53628 0.263,-9.87994 2.3401,-11.95411 2.1972,-2.19425 3.151,-2.36975 13.7179,-2.5241 10.6453,-0.15548 13.6719,0.0988 15.9533,1.34051 1.6145,0.87876 2.5803,2.08119 3.4436,4.2877 0.4548,1.16253 0.5273,2.39151 0.5221,8.85 -0.01,6.40074 -0.082,7.69787 -0.5281,8.85 -1.3069,3.37856 -3.3211,4.89882 -7.1488,5.39582 -2.6123,0.33918 -18.2101,0.33122 -20.8289,-0.0106 z m -77.1006,0.0323 c -2.4929,-0.39265 -3.7449,-0.92756 -5.1046,-2.1809 -2.2233,-2.04937 -2.366,-2.77834 -2.366,-12.08663 0,-9.32577 0.1398,-10.03456 2.3873,-12.10625 2.1659,-1.99645 3.2849,-2.20333 12.807,-2.36768 9.5438,-0.16472 12.4411,0.0976 14.7082,1.33146 2.1772,1.18499 3.0225,2.77141 3.1914,5.98984 l 0.1313,2.50263 -1.9456,0 -1.9457,0 -0.1668,-1.61624 c -0.092,-0.88894 -0.3691,-2.00746 -0.6163,-2.48561 -0.8789,-1.6995 -1.2009,-1.74815 -11.5716,-1.74815 -8.9937,0 -9.5324,0.0313 -10.5186,0.61061 -0.5717,0.33585 -1.3142,1.07835 -1.65,1.65 -0.5683,0.9674 -0.6106,1.5381 -0.6106,8.23939 0,6.70129 0.042,7.27199 0.6106,8.23939 0.3358,0.57165 1.0783,1.31415 1.65,1.65 0.9689,0.5692 1.6294,0.61732 9.7394,0.7096 12.3312,0.1403 12.8083,-0.0157 13.2117,-4.32085 l 0.2112,-2.25389 1.9885,0.0879 1.9886,0.0879 -0.052,2.28407 c -0.07,3.04741 -0.5215,4.56987 -1.7072,5.75553 -1.89,1.88994 -3.1192,2.08819 -13.5404,2.18364 -5.115,0.0469 -9.9882,-0.0232 -10.8294,-0.1557 z m -37.4516,-0.0166 c -2.8584,-0.36011 -4.4443,-1.02941 -5.68,-2.39721 -1.2414,-1.37405 -1.6851,-2.77528 -1.6873,-5.3287 l 0,-1.875 2.1,0 2.1,0 0,1.6649 c 0,0.91569 0.1961,2.04418 0.4358,2.50774 0.8096,1.56561 1.5701,1.67736 11.4142,1.67736 9.6212,0 10.4621,-0.11074 11.3706,-1.49733 0.6599,-1.00714 0.9127,-3.48953 0.4868,-4.78005 -0.6848,-2.07498 -0.8057,-2.0993 -11.544,-2.32189 -10.0767,-0.20887 -11.631,-0.40191 -13.7423,-1.70675 -1.5653,-0.96744 -2.4043,-2.76665 -2.5622,-5.49485 -0.3011,-5.20088 1.2777,-7.50844 5.9411,-8.6834 2.624,-0.66115 17.5078,-0.56116 20.1,0.13502 3.6749,0.987 5.1465,2.69518 5.5346,6.42425 l 0.1952,1.875 -2.2649,0 -2.2649,0 0,-1.43325 c 0,-1.7503 -0.5494,-2.59604 -2.026,-3.11879 -1.6177,-0.57275 -17.1483,-0.56616 -18.7722,0.008 -1.5284,0.54033 -2.2993,1.83191 -2.3007,3.85496 0,3.70355 0.704,3.98655 9.9799,3.99685 3.833,0.004 8.3029,0.13746 9.9333,0.296 6.3881,0.62121 8.6142,3.05337 8.2088,8.96847 -0.2652,3.86944 -1.6775,5.71596 -5.219,6.82388 -1.7226,0.5389 -16.2977,0.83787 -19.7351,0.40482 z m 233.531,25.64909 0,-8.85 1.5,0 1.5,0 0,7.5 0,7.5 6.6,0 6.6,0 0,1.35 0,1.35 -8.1,0 -8.1,0 0,-8.85 z m -9.9605,-0.075 c -0.8523,-1.44375 -1.9665,-3.31762 -2.476,-4.16415 l -0.9263,-1.53916 -2.4524,4.16416 -2.4524,4.16415 4.9284,0 4.9283,0 -1.5496,-2.625 z m -14.7393,7.46316 c 0.4674,-0.80402 2.8073,-4.78039 5.1998,-8.8364 l 4.35,-7.37455 1.8,-0.002 1.8,-0.002 4.35,7.37199 c 2.3925,4.0546 4.7324,8.03201 5.1997,8.8387 l 0.8498,1.4667 -1.813,0 -1.813,0 -0.9867,-1.79644 -0.9868,-1.79644 -6.6,0 -6.6,0 -0.9868,1.79644 -0.9867,1.79644 -1.813,0 -1.813,0 0.8497,-1.46184 z m -23.9002,-7.38816 0,-8.85 2.025,0.0105 2.025,0.0105 7.35,7.05205 7.35,7.05204 0.08,-7.06253 0.08,-7.06253 1.6446,0 1.6445,0 0,8.85 0,8.85 -2.175,-0.0146 -2.175,-0.0146 -7.35,-7.07888 -7.35,-7.07887 -0.08,7.09345 -0.08,7.09345 -1.4945,0 -1.4946,0 0,-8.85 z m -31.5,0 0,-8.85 1.5,0 1.5,0 0,8.85 0,8.85 -1.5,0 -1.5,0 0,-8.85 z m -13.2,1.35 0,-7.5 -4.35,0 -4.35,0 0,-1.35 0,-1.35 10.2,0 10.2,0 0,1.35 0,1.35 -4.35,0 -4.35,0 0,7.5 0,7.5 -1.5,0 -1.5,0 0,-7.5 z m -14.0942,0.075 c -3.2833,-5.65284 -4.0783,-6.96496 -4.2228,-6.96962 -0.1425,-0.005 -4.4472,7.13016 -4.733,7.84465 -0.055,0.13748 2.0846,0.24997 4.7546,0.24997 l 4.8547,0 -0.6535,-1.125 z m -13.3188,2.11414 c 1.7454,-2.93653 4.1145,-6.92539 5.2645,-8.86414 l 2.091,-3.525 1.7329,0 1.7328,0 5.1459,8.68322 c 2.8302,4.77577 5.1459,8.75827 5.1459,8.85 0,0.0917 -0.7788,0.16678 -1.7308,0.16678 l -1.7307,0 -0.9896,-1.8 -0.9895,-1.8 -6.5461,0 -6.546,0 -1.022,1.725 -1.022,1.725 -1.8549,0.0891 -1.8549,0.0891 3.1735,-5.33914 z m -26.287,-3.53914 0,-8.85 2.0495,0 2.0495,0 7.4755,7.15781 7.4755,7.15781 0.08,-7.15781 0.08,-7.15781 1.4947,0 1.4946,0 0,8.85 0,8.85 -2.07,0 -2.07,0 -7.305,-7.00773 -7.305,-7.00774 -0.08,7.00774 -0.08,7.00773 -1.6446,0 -1.6445,0 0,-8.85 z m -6.3308,-1.1715 c 0.4855,-0.43988 0.6308,-0.92756 0.6308,-2.11766 0,-2.73901 0.1091,-2.69727 -7.3253,-2.80237 l -6.4747,-0.0915 0,2.88338 0,2.88337 6.2692,-0.0918 c 5.6687,-0.083 6.3297,-0.14659 6.9,-0.66334 z m -16.4692,1.1715 0,-8.85 8.325,0.007 c 7.5291,0.006 8.445,0.0611 9.5801,0.57643 1.7272,0.78416 2.1949,1.81164 2.1949,4.82181 0,2.4163 -0.288,3.44283 -1.1428,4.07314 -0.3834,0.28274 -0.3456,0.46191 0.2741,1.29924 0.622,0.84063 0.7326,1.37153 0.8218,3.94703 l 0.1031,2.97576 -1.4982,0 -1.4983,0 -0.1049,-2.7267 c -0.153,-3.97913 0.056,-3.87331 -7.638,-3.87331 l -6.1168,0 0,3.3 0,3.3 -1.65,0 -1.65,0 0,-8.85 z m -19.8,0 0,-8.85 8.85,0 8.85,0 0,1.35 0,1.35 -7.2,0 -7.2,0 0,2.25 0,2.25 6.9,0 6.9,0 0,1.35 0,1.35 -6.9,0 -6.9,0 0,2.55 0,2.55 7.2,0 7.2,0 0,1.35 0,1.35 -8.85,0 -8.85,0 0,-8.85 z m -12.9,1.35 0,-7.5 -4.35,0 -4.35,0 0,-1.35 0,-1.35 10.2,0 10.2,0 0,1.35 0,1.35 -4.35,0 -4.35,0 0,7.5 0,7.5 -1.5,0 -1.5,0 0,-7.5 z m -32.1,-1.35 0,-8.85 2.025,0.008 2.025,0.008 7.35,7.03007 7.35,7.03008 0.08,-7.03837 0.08,-7.03836 1.6446,0 1.6445,0 0,8.85 0,8.85 -2.1306,0 -2.1307,0 -7.3943,-7.12498 -7.3944,-7.125 -0.08,7.125 -0.08,7.125 -1.4945,0 -1.4946,0 0,-8.85 z m -6.3,0 0,-8.85 1.5,0 1.5,0 0,8.85 0,8.85 -1.5,0 -1.5,0 0,-8.85 z m 185.5265,5.57271 c 0.7679,-0.72201 0.7735,-0.76168 0.7735,-5.45828 0,-4.5682 -0.025,-4.75993 -0.7238,-5.5727 l -0.7239,-0.84173 -6.4301,0 c -7.2736,0 -7.8207,0.12662 -8.3204,1.92563 -0.4077,1.4678 -0.3806,7.80866 0.038,9.01103 0.575,1.64942 1.3869,1.81693 8.4112,1.73536 6.1041,-0.0709 6.2137,-0.0835 6.975,-0.79931 z m -15.2765,3.12669 c -1.5188,-0.53697 -2.724,-1.8675 -3.1607,-3.48917 -0.2088,-0.77529 -0.3014,-3.06852 -0.2397,-5.93675 0.1091,-5.07778 0.3782,-6.02345 2.0736,-7.28704 1.2531,-0.93393 2.7862,-1.12173 9.219,-1.12928 6.9643,-0.008 8.3769,0.23194 9.8131,1.66816 1.2799,1.27984 1.6447,2.99571 1.6447,7.735 0,5.73474 -0.907,7.76348 -3.8343,8.57648 -1.7572,0.48802 -14.0548,0.37912 -15.5157,-0.1374 z m -193.7041,-8.6244 c -0.082,-0.57602 -0.3049,-0.68841 -1.5209,-0.76644 -1.352,-0.0867 -1.425,-0.0522 -1.425,0.675 0,0.72113 0.09,0.76644 1.5209,0.76644 1.4056,0 1.5136,-0.0512 1.425,-0.675 z m -5.0459,1.59401 0,-3.91901 2.7832,0 c 3.0949,0 3.9398,0.34006 4.1978,1.68952 0.2218,1.16028 -0.3387,2.50925 -1.1746,2.82707 l -0.72,0.27374 0.7029,1.12984 c 0.3866,0.62141 0.8026,1.29858 0.9245,1.50483 0.16,0.27075 -0.07,0.375 -0.8274,0.375 -0.9499,0 -1.1261,-0.14165 -1.8654,-1.5 -1.0953,-2.01253 -1.8534,-2.04125 -1.9796,-0.075 -0.088,1.36635 -0.1315,1.42887 -1.0664,1.51901 l -0.975,0.094 0,-3.91901 z m 5.5624,5.11709 c 1.4796,-0.67207 2.7099,-2.07807 3.1244,-3.57041 0.3862,-1.39065 0.3862,-1.74073 0,-3.13138 -0.8726,-3.14202 -4.4476,-4.91085 -7.4174,-3.66999 -2.3114,0.96577 -3.4663,2.71024 -3.4663,5.23568 0,2.49321 1.138,4.2416 3.399,5.22211 1.4058,0.6096 2.8935,0.58026 4.3603,-0.086 z m -4.9368,1.86708 c -3.0152,-1.1067 -5.1419,-4.66293 -4.7085,-7.87374 0.7318,-5.42177 6.6747,-8.33745 11.2404,-5.51471 4.7611,2.94358 4.7472,9.83553 -0.026,12.78643 -1.7576,1.08664 -4.4955,1.33998 -6.5062,0.60202 z" />
  </g>
</svg>
