<?xml version="1.0" encoding="UTF-8"?>
<svg xmlns="http://www.w3.org/2000/svg" xmlns:xlink="http://www.w3.org/1999/xlink" width="376.23pt" height="433pt" viewBox="0 0 376.23 433" version="1.1">
<defs>
<clipPath id="clip1">
  <path d="M 0 88 L 376.230469 88 L 376.230469 433 L 0 433 Z M 0 88 "/>
</clipPath>
</defs>
<g id="surface1">
<path style=" stroke:none;fill-rule:nonzero;fill:rgb(100%,100%,100%);fill-opacity:1;" d="M 376.234375 185.839844 C 376.234375 83.203125 292.011719 0 188.117188 0 C 84.222656 0 0 83.203125 0 185.839844 C 0 190.195313 0.203125 194.503906 0.503906 198.78125 C 0.1875 200.074219 0 201.417969 0 202.804688 L 0 416.039063 C 0 425.367188 7.632813 433 16.964844 433 L 359.269531 433 C 368.601563 433 376.234375 425.367188 376.234375 416.039063 L 376.234375 202.804688 C 376.234375 201.417969 376.046875 200.074219 375.726563 198.78125 C 376.023438 194.503906 376.234375 190.195313 376.234375 185.839844 "/>
<path style=" stroke:none;fill-rule:nonzero;fill:rgb(3.898621%,50.19989%,51.799011%);fill-opacity:1;" d="M 340.625 77.097656 C 306.453125 30.410156 250.894531 0 188.117188 0 C 84.222656 0 0 83.203125 0 185.839844 C 0 190.195313 0.207031 194.503906 0.503906 198.78125 C 0.1875 200.074219 0 201.417969 0 202.804688 L 0 253.074219 L 0.933594 252.730469 C 3.738281 249.367188 13.277344 240.390625 13.652344 236.460938 C 14.023438 232.535156 17.203125 226.179688 25.804688 225.058594 C 34.40625 223.933594 32.539063 231.039063 45.066406 229.355469 C 57.59375 227.671875 71.433594 208.601563 93.5 203.550781 C 115.566406 198.503906 117.433594 203.738281 125.851563 196.070313 C 134.265625 188.40625 136.695313 182.046875 147.914063 176.996094 C 159.136719 171.949219 163.625 160.914063 165.308594 155.679688 C 166.988281 150.441406 182.136719 117.71875 193.355469 110.613281 C 204.578125 103.507813 223.632813 94.296875 239.171875 96.027344 C 243.648438 96.523438 246.09375 95.785156 246.09375 95.785156 C 246.09375 95.785156 246.9375 75.738281 260.632813 71.953125 C 274.328125 68.164063 288.351563 74.519531 293.214844 78.824219 C 298.074219 83.121094 300.695313 87.050781 300.695313 87.050781 C 300.695313 87.050781 309.488281 73.410156 315.28125 72.472656 L 297.890625 63.675781 C 297.890625 63.675781 318.34375 70.226563 322.015625 70.453125 C 325.667969 70.675781 333.726563 73.746094 340.625 77.097656 "/>
<path style=" stroke:none;fill-rule:nonzero;fill:rgb(3.898621%,50.19989%,51.799011%);fill-opacity:1;" d="M 205.945313 139.390625 C 204.242188 142.722656 183.5625 154.503906 179.464844 159.371094 C 175.367188 164.242188 177.929688 165.007813 181.003906 163.984375 C 184.078125 162.960938 185.613281 161.421875 189.460938 160.910156 C 193.300781 160.398438 195.09375 159.371094 195.605469 154.503906 C 196.117188 149.636719 210.976563 143.488281 215.078125 141.695313 C 219.175781 139.902344 234.546875 126.535156 234.546875 126.535156 L 215.078125 126.535156 C 215.078125 126.535156 207.644531 136.058594 205.945313 139.390625 "/>
<path style=" stroke:none;fill-rule:nonzero;fill:rgb(3.898621%,50.19989%,51.799011%);fill-opacity:1;" d="M 297.058594 91.484375 C 292.441406 85.171875 277.84375 73.550781 266.058594 76.625 C 254.277344 79.699219 252.734375 94.558594 252.734375 94.558594 C 254.015625 94.300781 256.578125 90.714844 264.265625 90.457031 C 271.953125 90.199219 285.015625 101.21875 288.347656 105.316406 C 291.679688 109.414063 296.03125 108.390625 295.777344 106.34375 C 295.519531 104.292969 298.554688 93.53125 297.058594 91.484375 "/>
<path style=" stroke:none;fill-rule:nonzero;fill:rgb(100%,100%,100%);fill-opacity:1;" d="M 9.222656 194.179688 C 9.222656 173.304688 12.1875 154.476563 18.003906 137.753906 C 17.984375 139.164063 17.976563 140.585938 17.976563 142.03125 C 17.976563 147.175781 18.558594 152.234375 19.589844 157.195313 C 14.644531 168.417969 11.042969 180.726563 9.222656 194.191406 Z M 23.246094 124.878906 C 29.410156 111.804688 37.5625 100.21875 47.753906 90.238281 C 48.386719 89.617188 49.039063 89.039063 49.683594 88.4375 C 48.855469 92.34375 48.394531 96.25 48.394531 100.136719 C 48.394531 104.527344 48.90625 108.835938 49.839844 113.0625 C 39.476563 123.695313 30.179688 135.96875 22.976563 150.058594 C 22.671875 147.40625 22.460938 144.734375 22.460938 142.03125 C 22.460938 135.867188 22.578125 130.222656 23.246094 124.878906 M 60.003906 64.296875 C 56.574219 69.570313 53.882813 74.976563 51.953125 80.433594 C 49.460938 82.511719 47.015625 84.683594 44.640625 87.003906 C 39.863281 91.683594 35.527344 96.699219 31.601563 102.027344 C 39.453125 88.234375 49.003906 75.550781 60.003906 64.296875 M 84.640625 43.804688 L 84.675781 44.121094 C 91.554688 43.367188 97.800781 42.761719 103.519531 42.273438 C 100.847656 46.304688 98.789063 50.554688 97.453125 54.972656 C 84.761719 59.507813 71.511719 65.882813 59.140625 74.835938 C 64.484375 63.914063 73.140625 53.324219 84.640625 43.804688 M 91.152344 38.761719 C 98.777344 33.789063 106.789063 29.386719 115.140625 25.585938 L 115.078125 27.484375 C 115.792969 27.507813 116.476563 27.558594 117.179688 27.589844 C 113.355469 30.652344 109.960938 33.960938 107.066406 37.472656 C 102.113281 37.867188 96.726563 38.355469 90.890625 38.953125 C 90.976563 38.886719 91.0625 38.824219 91.152344 38.761719 M 127.886719 20.328125 C 126.160156 21.324219 124.488281 22.355469 122.878906 23.433594 C 122.070313 23.371094 121.265625 23.304688 120.441406 23.253906 C 122.898438 22.230469 125.378906 21.246094 127.886719 20.328125 M 153.480469 14.367188 C 159.859375 18.183594 168.464844 27.894531 172.34375 32.496094 C 171.425781 32.859375 170.535156 33.246094 169.679688 33.667969 C 165.792969 32.089844 151.089844 26.589844 130.085938 24.128906 C 137.003906 20.136719 144.890625 16.835938 153.480469 14.367188 M 183.460938 9.546875 C 183.851563 9.53125 184.25 9.527344 184.640625 9.515625 L 184.640625 29.609375 C 181.945313 29.878906 179.351563 30.324219 176.921875 30.96875 C 174.199219 27.664063 166.316406 18.398438 159.179688 12.867188 C 166.839844 11.066406 174.992188 9.933594 183.460938 9.546875 M 189.878906 33.820313 C 197.066406 33.820313 203.722656 35.488281 208.828125 38.179688 L 208.84375 38.210938 C 208.847656 38.210938 208.867188 38.199219 208.871094 38.199219 C 214.824219 41.347656 218.65625 45.882813 218.65625 50.847656 C 218.65625 60.082031 205.476563 67.882813 189.878906 67.882813 C 189.625 67.882813 189.382813 67.863281 189.128906 67.859375 L 184.640625 67.574219 C 171.441406 66.066406 161.097656 59.023438 161.097656 50.847656 C 161.097656 42.675781 171.441406 35.632813 184.640625 34.128906 L 189.128906 33.84375 C 189.382813 33.835938 189.625 33.820313 189.878906 33.820313 M 189.128906 9.402344 C 189.382813 9.402344 189.628906 9.382813 189.878906 9.382813 C 192.03125 9.382813 194.160156 9.472656 196.296875 9.546875 C 203.960938 9.898438 211.359375 10.871094 218.378906 12.386719 C 211.097656 18.164063 202.292969 27.84375 200.066406 30.328125 C 196.867188 29.683594 193.449219 29.328125 189.878906 29.328125 C 189.625 29.328125 189.382813 29.351563 189.128906 29.351563 Z M 249.335938 23.9375 C 229.09375 26.117188 214.429688 31.199219 209.179688 33.234375 C 207.847656 32.628906 206.4375 32.089844 204.964844 31.617188 C 209 27.214844 218.082031 17.652344 224.113281 13.765625 C 233.410156 16.246094 241.914063 19.703125 249.335938 23.9375 M 259.097656 23.167969 C 258.289063 23.210938 257.464844 23.234375 256.667969 23.285156 C 255.125 22.261719 253.515625 21.28125 251.867188 20.328125 C 254.308594 21.21875 256.710938 22.179688 259.097656 23.167969 M 262.589844 24.660156 C 271.019531 28.371094 279.113281 32.710938 286.828125 37.609375 L 286.558594 37.96875 C 287.035156 38.316406 287.507813 38.703125 287.984375 39.066406 C 282.539063 38.503906 277.515625 38.039063 272.839844 37.652344 C 269.878906 34.035156 266.394531 30.636719 262.453125 27.496094 C 262.527344 27.492188 262.601563 27.488281 262.679688 27.484375 Z M 216.984375 38.257813 C 216.171875 37.515625 215.285156 36.816406 214.335938 36.15625 C 221.886719 33.5625 236.738281 29.289063 255.601563 27.878906 C 259.710938 30.722656 263.390625 33.828125 266.546875 37.160156 C 235.390625 34.914063 222.359375 36.640625 216.984375 38.257813 M 277.222656 53.886719 C 251.476563 45.214844 228.691406 43.980469 221.351563 43.808594 C 221.039063 43.203125 220.695313 42.613281 220.304688 42.03125 C 226.039063 40.824219 239.667969 39.507813 270.632813 41.972656 C 273.476563 45.734375 275.6875 49.726563 277.222656 53.886719 M 156.523438 120.917969 C 148.371094 118.808594 140.808594 115.949219 134.035156 112.472656 C 150.257813 88.355469 164.515625 72.101563 168.644531 67.535156 C 170.90625 68.734375 173.433594 69.722656 176.152344 70.503906 C 173.910156 75.628906 165.242188 95.808594 156.523438 120.917969 M 130.078125 110.328125 C 123.117188 106.3125 117.140625 101.609375 112.386719 96.386719 C 135.953125 75.683594 156.652344 65.40625 162.144531 62.882813 C 162.949219 63.664063 163.847656 64.398438 164.800781 65.101563 C 159.949219 70.511719 145.910156 86.742188 130.078125 110.328125 M 98.878906 164.925781 C 87.871094 158.714844 78.46875 151.402344 71.078125 143.261719 C 83.160156 125.355469 96.441406 110.828125 109.089844 99.308594 C 114.109375 104.816406 120.390625 109.761719 127.648438 113.992188 C 118.019531 128.632813 107.898438 145.863281 98.878906 164.925781 M 156.855469 48.277344 C 156.707031 49.121094 156.609375 49.976563 156.609375 50.847656 C 156.609375 51.359375 156.671875 51.855469 156.722656 52.355469 C 150.535156 54.011719 127.304688 60.785156 100.960938 75.140625 C 100.40625 72.550781 100.097656 69.914063 100.097656 67.226563 C 100.097656 64.226563 100.457031 61.277344 101.144531 58.398438 C 127.085938 49.507813 150.171875 48.398438 156.855469 48.277344 M 159.191406 59.3125 C 152.160156 62.652344 132.117188 73.125 109.507813 92.964844 C 106.25 88.761719 103.765625 84.265625 102.171875 79.554688 C 128.453125 65.101563 151.789063 58.320313 157.84375 56.699219 C 158.21875 57.59375 158.648438 58.472656 159.191406 59.3125 M 113.359375 37.011719 C 116.429688 33.796875 119.976563 30.789063 123.933594 28.027344 C 143.085938 29.660156 157.929688 34.183594 164.769531 36.621094 C 163.855469 37.296875 162.984375 37.996094 162.207031 38.746094 C 157.984375 37.074219 146.089844 34.785156 113.359375 37.011719 M 159.15625 42.445313 C 158.878906 42.878906 158.652344 43.328125 158.417969 43.777344 C 154.875 43.785156 130.828125 44.121094 102.800781 53.15625 C 104.339844 49.199219 106.515625 45.402344 109.253906 41.8125 C 142.199219 39.308594 154.757813 41.207031 159.15625 42.445313 M 68.039063 139.730469 C 61.679688 131.914063 57.136719 123.410156 54.777344 114.445313 C 68.335938 100.914063 83.613281 90.160156 98.230469 81.773438 C 100.03125 86.738281 102.730469 91.464844 106.210938 95.890625 C 93.519531 107.429688 80.199219 121.910156 68.039063 139.730469 M 96.890625 77.402344 C 82.429688 85.621094 67.277344 96.117188 53.648438 109.277344 C 53.148438 106.273438 52.882813 103.226563 52.882813 100.136719 C 52.882813 94.484375 53.875 88.765625 55.753906 83.085938 C 68.53125 72.613281 82.644531 65.292969 96.234375 60.167969 C 95.835938 62.488281 95.613281 64.839844 95.613281 67.226563 C 95.613281 70.695313 96.0625 74.089844 96.890625 77.402344 M 41.15625 191.394531 C 32.820313 181.039063 27 169.722656 24.265625 157.761719 C 31.140625 142.585938 40.519531 129.449219 51.175781 118.148438 C 53.988281 127.179688 58.867188 135.738281 65.496094 143.601563 C 56.367188 157.527344 47.992188 173.386719 41.15625 191.394531 M 13.117188 238.132813 C 12.253906 234.675781 11.445313 231.195313 10.777344 227.660156 C 11.753906 231.851563 12.65625 234.625 12.746094 234.898438 L 14.070313 234.460938 C 14.453125 233.152344 15.125 231.757813 16.117188 230.429688 C 15.980469 229.921875 15.835938 229.382813 15.679688 228.765625 C 16.078125 229.355469 16.34375 229.726563 16.40625 229.816406 L 16.929688 229.429688 C 17.746094 228.539063 18.742188 227.722656 19.929688 227.023438 C 19.480469 226.390625 15.902344 221.238281 12.988281 213.519531 C 12.652344 209.914063 12.535156 206.136719 12.828125 202.453125 C 13.929688 188.628906 16.964844 176 21.4375 164.476563 C 24.960938 175.761719 31.105469 186.429688 39.410156 196.210938 C 36.113281 205.457031 33.183594 215.195313 30.804688 225.546875 C 30.878906 225.574219 30.945313 225.613281 31.019531 225.644531 L 35.164063 226.597656 C 37.308594 217.277344 39.910156 208.480469 42.816406 200.074219 C 49.027344 206.753906 56.328125 212.941406 64.464844 218.617188 C 65.707031 217.714844 66.976563 216.804688 68.285156 215.886719 C 59.160156 209.664063 51.113281 202.785156 44.472656 195.3125 C 51.179688 177.097656 59.492188 161.09375 68.582031 147.058594 C 76.246094 155.273438 85.878906 162.636719 97.023438 168.90625 C 91.507813 180.929688 86.460938 193.628906 82.285156 206.839844 L 83.15625 207.117188 C 84.570313 206.472656 86.027344 205.886719 87.519531 205.347656 C 91.414063 193.449219 95.980469 181.964844 100.96875 171.058594 C 111.699219 176.660156 123.71875 181.277344 136.6875 184.6875 C 137.933594 183.449219 139.265625 182.261719 140.789063 181.128906 C 126.910156 177.742188 114.105469 172.980469 102.816406 167.085938 C 111.828125 148.003906 121.960938 130.769531 131.585938 116.160156 C 138.671875 119.859375 146.566406 122.894531 155.074219 125.140625 C 149.203125 142.429688 143.480469 161.683594 139.871094 179.796875 L 142.0625 180.234375 C 142.882813 179.679688 143.761719 179.140625 144.707031 178.617188 C 148.316406 161.179688 153.808594 142.78125 159.449219 126.210938 C 165.546875 127.589844 171.945313 128.523438 178.523438 129.054688 C 179.394531 127.59375 180.285156 126.160156 181.1875 124.761719 C 174.164063 124.324219 167.367188 123.390625 160.910156 121.96875 C 170.070313 95.640625 179.144531 74.835938 180.601563 71.535156 C 181.914063 71.773438 183.265625 71.953125 184.640625 72.089844 L 184.640625 119.699219 C 186.144531 117.652344 187.652344 115.804688 189.128906 114.246094 L 189.128906 72.347656 C 189.382813 72.347656 189.625 72.367188 189.878906 72.367188 C 192.4375 72.367188 194.910156 72.175781 197.292969 71.839844 C 198.621094 74.867188 203.585938 86.324219 209.578125 102.039063 C 210.941406 101.453125 212.332031 100.890625 213.738281 100.355469 C 208.222656 85.890625 203.582031 75.035156 201.808594 70.96875 C 204.664063 70.277344 207.316406 69.347656 209.71875 68.207031 C 213.261719 72.160156 221.679688 81.878906 232.070313 95.960938 C 233.945313 95.820313 235.796875 95.804688 237.601563 95.921875 C 226.859375 81.148438 217.933594 70.699219 213.738281 65.972656 C 214.898438 65.203125 215.953125 64.371094 216.925781 63.496094 C 222.113281 65.976563 234.1875 72.277344 249.027344 83.222656 C 249.609375 81.863281 250.316406 80.511719 251.148438 79.230469 C 237.285156 69.058594 225.84375 62.878906 220.039063 60.027344 C 220.6875 59.113281 221.265625 58.175781 221.722656 57.199219 C 228.058594 58.984375 242.84375 63.601563 260.617188 71.957031 C 260.625 71.957031 260.628906 71.953125 260.632813 71.953125 C 263.265625 71.222656 265.910156 70.875 268.496094 70.8125 C 247.886719 60.503906 230.265625 54.957031 222.988281 52.894531 C 223.085938 52.222656 223.144531 51.539063 223.144531 50.847656 C 223.144531 49.992188 223.050781 49.15625 222.90625 48.328125 C 231.695313 48.636719 254.105469 50.339844 278.765625 59.15625 C 279.339844 61.796875 279.65625 64.488281 279.65625 67.226563 C 279.65625 68.875 279.527344 70.503906 279.3125 72.121094 C 280.832031 72.515625 282.277344 72.976563 283.640625 73.488281 C 283.960938 71.429688 284.144531 69.34375 284.144531 67.226563 C 284.144531 65.125 283.980469 63.046875 283.671875 60.992188 C 292.71875 64.550781 301.9375 69.128906 310.8125 74.941406 C 312.367188 73.644531 313.910156 72.695313 315.28125 72.472656 C 315.28125 72.46875 315.277344 72.46875 315.273438 72.464844 L 297.890625 63.675781 C 297.890625 63.675781 300.484375 64.507813 303.976563 65.582031 C 296.839844 61.652344 289.605469 58.410156 282.519531 55.769531 C 281.210938 51.132813 279.136719 46.675781 276.359375 42.457031 C 281.496094 42.910156 287.054688 43.460938 293.085938 44.121094 L 293.179688 43.277344 C 301.570313 50.496094 309.714844 59.488281 315.914063 69.085938 C 318.683594 69.835938 320.976563 70.382813 321.992188 70.449219 C 319.628906 66.40625 316.921875 62.441406 313.964844 58.640625 C 318.257813 62.664063 322.335938 66.914063 326.226563 71.335938 C 328.707031 72.054688 331.683594 73.148438 334.753906 74.441406 C 301.746094 33.664063 252.160156 7.011719 196.429688 5.0625 C 194.261719 4.964844 192.082031 4.894531 189.878906 4.894531 C 187.675781 4.894531 185.492188 4.964844 183.328125 5.0625 C 149.175781 6.257813 117.339844 16.71875 90.203125 34.03125 L 90.132813 33.933594 C 89.601563 34.308594 89.105469 34.699219 88.585938 35.074219 C 61.585938 52.695313 39.371094 77.121094 24.347656 105.949219 L 24.253906 105.898438 C 23.847656 106.683594 23.523438 107.476563 23.167969 108.265625 C 10.3125 133.789063 3.015625 162.617188 3.015625 193.144531 C 3.015625 210.414063 5.382813 227.128906 9.726563 243.023438 C 11.1875 241.257813 12.445313 239.546875 13.117188 238.132813 "/>
<g clip-path="url(#clip1)" clip-rule="nonzero">
<path style=" stroke:none;fill-rule:nonzero;fill:rgb(16.499329%,21.998596%,56.098938%);fill-opacity:1;" d="M 376.234375 185.839844 C 376.234375 150.117188 366.007813 116.761719 348.324219 88.4375 C 348.464844 89.617188 348.464844 90.695313 348.378906 91.539063 C 348.003906 95.09375 352.023438 102.300781 350.027344 107.578125 C 348.03125 112.855469 345.949219 121.460938 341.835938 121.644531 C 337.71875 121.832031 336.414063 122.019531 336.414063 122.019531 C 336.414063 122.019531 338.65625 133.613281 328.558594 133.238281 C 318.460938 132.867188 319.207031 125.199219 319.207031 125.199219 C 319.207031 125.199219 314.90625 136.230469 319.953125 144.648438 C 325.003906 153.0625 333.980469 164.09375 326.6875 175.316406 C 319.394531 186.535156 316.214844 184.664063 313.972656 190.273438 C 311.730469 195.882813 304.914063 227.144531 276.382813 237.398438 C 247.855469 247.652344 219.746094 243.007813 219.746094 243.007813 C 219.746094 243.007813 200.238281 276.296875 189.878906 281.15625 C 179.519531 286.019531 130.914063 269.179688 124.914063 271.058594 C 112.386719 274.984375 93.136719 301.539063 87.703125 306.402344 C 80.597656 312.761719 36.277344 308.644531 29.730469 306.402344 C 29.730469 306.402344 23.5625 301.539063 35.714844 296.117188 C 47.871094 290.695313 95.554688 265.449219 99.855469 260.585938 C 104.160156 255.726563 113.320313 240.015625 122.109375 243.007813 C 130.898438 246 127.71875 257.222656 136.882813 256.472656 C 146.046875 255.726563 158.6875 246.746094 174.285156 248.242188 C 174.285156 248.242188 172.601563 222.4375 182.136719 212.714844 C 182.136719 212.714844 159.898438 223.460938 150.160156 223.5625 C 132.210938 223.746094 129.402344 230.664063 115.191406 232.722656 C 100.980469 234.777344 66.199219 238.148438 48.246094 248.058594 C 30.292969 257.96875 11.21875 295.554688 0.933594 305.652344 C 0.640625 305.941406 0.308594 306.214844 0 306.496094 L 0 416.039063 C 0 425.367188 7.632813 433 16.960938 433 L 359.269531 433 C 368.601563 433 376.234375 425.367188 376.234375 416.039063 L 376.234375 202.804688 C 376.234375 201.417969 376.046875 200.074219 375.726563 198.78125 C 376.023438 194.503906 376.234375 190.195313 376.234375 185.839844 "/>
</g>
<path style=" stroke:none;fill-rule:nonzero;fill:rgb(16.499329%,21.998596%,56.098938%);fill-opacity:1;" d="M 264.519531 217.578125 C 269.132813 217.269531 273.742188 217.015625 274 215.222656 C 274.253906 213.429688 279.125 196.519531 283.734375 191.90625 C 283.734375 191.90625 247.355469 218.125 241.976563 219.492188 C 236.59375 220.855469 233.523438 217.269531 232.242188 215.734375 C 230.960938 214.199219 229.679688 221.117188 228.144531 224.445313 C 226.605469 227.773438 225.324219 230.078125 225.324219 230.078125 C 225.324219 230.078125 232.75 230.078125 236.339844 228.539063 C 239.925781 227.003906 259.910156 217.886719 264.519531 217.578125 "/>
<path style=" stroke:none;fill-rule:nonzero;fill:rgb(100%,100%,100%);fill-opacity:1;" d="M 8.070313 378.921875 C 9.957031 379.535156 11.699219 379.839844 13.292969 379.839844 C 15.480469 379.839844 17.210938 379.3125 18.488281 378.257813 C 19.769531 377.203125 20.40625 375.648438 20.40625 373.59375 C 20.40625 371.957031 20.164063 370.390625 19.683594 368.890625 C 18.757813 365.921875 17.054688 362.070313 14.570313 357.335938 C 12.089844 352.605469 10.253906 348.308594 9.070313 344.453125 C 8.402344 342.261719 8.070313 339.816406 8.070313 337.125 C 8.070313 331.296875 9.578125 327.050781 12.597656 324.386719 C 15.617188 321.71875 19.554688 320.386719 24.410156 320.386719 C 26.667969 320.386719 29.261719 320.734375 32.191406 321.429688 L 32.191406 330.464844 C 30.484375 329.851563 28.929688 329.546875 27.523438 329.546875 C 25.445313 329.546875 23.6875 330.1875 22.242188 331.460938 C 20.796875 332.738281 20.074219 334.597656 20.074219 337.039063 C 20.074219 338.652344 20.308594 340.234375 20.785156 341.785156 C 21.695313 344.699219 23.246094 348.324219 25.445313 352.652344 C 28.199219 358.066406 30.207031 362.910156 31.46875 367.183594 C 32.097656 369.347656 32.414063 371.664063 32.414063 374.136719 C 32.414063 379.023438 30.828125 382.777344 27.660156 385.398438 C 24.492188 388.019531 20.535156 389.332031 15.792969 389.332031 C 13.71875 389.332031 11.144531 388.972656 8.070313 388.25 "/>
<path style=" stroke:none;fill-rule:nonzero;fill:rgb(100%,100%,100%);fill-opacity:1;" d="M 62.203125 387.875 C 60.648438 388.847656 58.738281 389.332031 56.476563 389.332031 C 50.253906 389.332031 45.277344 386.265625 41.554688 380.132813 C 37.832031 373.996094 35.96875 365.421875 35.96875 354.402344 C 35.96875 342.078125 38.710938 332.765625 44.195313 326.464844 C 47.753906 322.414063 51.753906 320.386719 56.199219 320.386719 C 58.238281 320.386719 60.238281 320.816406 62.203125 321.679688 L 62.203125 330.296875 C 60.941406 329.796875 59.738281 329.546875 58.589844 329.546875 C 56.328125 329.546875 54.402344 330.601563 52.808594 332.710938 C 50.066406 336.375 48.695313 343.230469 48.695313 353.277344 C 48.695313 363.882813 49.613281 370.921875 51.449219 374.40625 C 53.28125 377.890625 55.71875 379.632813 58.757813 379.632813 C 59.90625 379.632813 61.054688 379.355469 62.203125 378.796875 "/>
<path style=" stroke:none;fill-rule:nonzero;fill:rgb(100%,100%,100%);fill-opacity:1;" d="M 66.816406 320.929688 L 79.042969 320.929688 L 79.042969 370.390625 C 79.042969 374.527344 80.0625 377.300781 82.097656 378.714844 C 83.878906 376.941406 84.769531 374.441406 84.769531 371.222656 L 84.769531 320.929688 L 97.050781 320.929688 L 97.050781 370.390625 C 97.050781 376.605469 95.214844 381.546875 91.546875 385.210938 C 88.769531 387.957031 85.621094 389.332031 82.097656 389.332031 C 79.691406 389.332031 77.273438 388.632813 74.847656 387.230469 C 72.417969 385.828125 70.574219 383.78125 69.316406 381.089844 C 67.648438 377.425781 66.816406 373.859375 66.816406 370.390625 "/>
<path style=" stroke:none;fill-rule:nonzero;fill:rgb(100%,100%,100%);fill-opacity:1;" d="M 115.558594 359.566406 L 115.558594 379.007813 C 117.59375 378.535156 119.300781 377.503906 120.671875 375.914063 C 122.039063 374.320313 122.726563 372.234375 122.726563 369.660156 C 122.726563 367.417969 122.089844 365.394531 120.808594 363.59375 C 119.53125 361.792969 117.78125 360.453125 115.558594 359.566406 M 115.558594 330.710938 L 115.558594 349.699219 C 119.597656 348.3125 121.617188 345.167969 121.617188 340.269531 C 121.617188 337.332031 120.855469 334.921875 119.335938 333.039063 C 118.226563 331.710938 116.964844 330.933594 115.558594 330.710938 M 103.328125 320.929688 L 111.054688 320.929688 C 118.058594 320.929688 123.617188 322.574219 127.730469 325.863281 C 131.84375 329.152344 133.898438 333.738281 133.898438 339.621094 C 133.898438 345.839844 131.210938 350.722656 125.839844 354.277344 C 128.804688 355.859375 130.988281 357.636719 132.398438 359.605469 C 134.433594 362.410156 135.453125 365.78125 135.453125 369.722656 C 135.453125 373.636719 134.472656 377.121094 132.507813 380.171875 C 131.027344 382.449219 128.554688 384.457031 125.089844 386.1875 C 121.625 387.921875 117.464844 388.792969 112.613281 388.792969 L 103.328125 388.792969 "/>
<path style=" stroke:none;fill-rule:nonzero;fill:rgb(100%,100%,100%);fill-opacity:1;" d="M 152.546875 331.628906 L 151.539063 331.628906 C 151.167969 341.121094 150.886719 347.199219 150.703125 349.863281 L 149.414063 367.726563 L 154.761719 367.726563 L 153.828125 353.945313 Z M 145.683594 320.386719 L 158.964844 320.386719 L 168.523438 388.789063 L 156.1875 388.789063 L 155.585938 376.59375 L 148.75 376.59375 L 147.535156 388.789063 L 135.398438 388.789063 "/>
<path style=" stroke:none;fill-rule:nonzero;fill:rgb(100%,100%,100%);fill-opacity:1;" d="M 203.429688 332.296875 L 203.429688 377.71875 C 204.761719 376.96875 205.726563 376.203125 206.316406 375.425781 C 207.539063 373.816406 208.484375 371.574219 209.152344 368.703125 C 209.820313 365.832031 210.152344 361.148438 210.152344 354.652344 C 210.152344 349.324219 209.78125 344.824219 209.039063 341.164063 C 208.523438 338.496094 207.652344 336.359375 206.429688 334.75 C 205.796875 333.890625 204.796875 333.070313 203.429688 332.296875 M 191.199219 320.929688 L 194.8125 320.929688 C 199.40625 320.929688 203.351563 321.539063 206.652344 322.761719 C 209.949219 323.980469 212.800781 326.003906 215.210938 328.816406 C 217.617188 331.636719 219.507813 335.175781 220.878906 339.433594 C 222.25 343.695313 222.9375 348.769531 222.9375 354.652344 C 222.9375 360.675781 222.230469 366.039063 220.824219 370.742188 C 219.414063 375.445313 217.359375 379.242188 214.65625 382.128906 C 212.652344 384.269531 210.503906 385.820313 208.207031 386.792969 C 205.09375 388.125 201.316406 388.789063 196.867188 388.789063 L 191.199219 388.789063 "/>
<path style=" stroke:none;fill-rule:nonzero;fill:rgb(100%,100%,100%);fill-opacity:1;" d="M 227.660156 388.789063 L 239.886719 388.789063 L 239.886719 320.929688 L 227.660156 320.929688 Z M 227.660156 388.789063 "/>
<path style=" stroke:none;fill-rule:nonzero;fill:rgb(100%,100%,100%);fill-opacity:1;" d="M 243.390625 320.929688 L 255.894531 320.929688 L 260.3125 360.105469 L 263.953125 320.929688 L 276.402344 320.929688 L 265.417969 389.332031 L 255.285156 389.332031 "/>
<path style=" stroke:none;fill-rule:nonzero;fill:rgb(100%,100%,100%);fill-opacity:1;" d="M 279.847656 388.789063 L 292.074219 388.789063 L 292.074219 320.929688 L 279.847656 320.929688 Z M 279.847656 388.789063 "/>
<path style=" stroke:none;fill-rule:nonzero;fill:rgb(100%,100%,100%);fill-opacity:1;" d="M 298.132813 320.929688 L 309.304688 320.929688 L 316.890625 356.359375 L 317.640625 356.359375 L 316.253906 320.929688 L 328.367188 320.929688 L 328.367188 388.789063 L 317.640625 388.789063 L 309.332031 351.113281 L 308.859375 351.113281 L 310.195313 388.789063 L 298.132813 388.789063 "/>
<path style=" stroke:none;fill-rule:nonzero;fill:rgb(100%,100%,100%);fill-opacity:1;" d="M 366.269531 388.789063 C 364.496094 389.152344 362.085938 389.332031 359.046875 389.332031 C 355.082031 389.332031 351.96875 388.929688 349.710938 388.125 C 346.5625 387.042969 343.808594 385.160156 341.457031 382.484375 C 339.105469 379.804688 337.214844 376.160156 335.789063 371.554688 C 334.363281 366.949219 333.648438 361.5625 333.648438 355.402344 C 333.648438 344.492188 335.722656 335.933594 339.871094 329.714844 C 344.019531 323.496094 349.433594 320.386719 356.101563 320.386719 C 357.621094 320.386719 359.058594 320.539063 360.410156 320.847656 C 361.761719 321.152344 363.714844 321.832031 366.269531 322.886719 L 366.269531 333.503906 C 363.496094 330.839844 360.695313 329.507813 357.878906 329.507813 C 354.246094 329.507813 351.414063 331.558594 349.378906 335.667969 C 347.339844 339.773438 346.320313 345.882813 346.320313 353.984375 C 346.320313 359.011719 346.671875 363.453125 347.375 367.308594 C 348.078125 371.167969 349.042969 374.066406 350.265625 376.011719 C 351.191406 377.453125 352.527344 378.730469 354.269531 379.839844 L 354.269531 363.769531 L 349.433594 363.769531 L 349.433594 354.941406 L 366.269531 354.941406 "/>
<path style=" stroke:none;fill-rule:nonzero;fill:rgb(100%,100%,100%);fill-opacity:1;" d="M 12.457031 421.921875 L 20.128906 421.921875 L 20.128906 397.140625 L 12.457031 397.140625 Z M 12.457031 421.921875 "/>
<path style=" stroke:none;fill-rule:nonzero;fill:rgb(100%,100%,100%);fill-opacity:1;" d="M 29.136719 397.140625 L 36.289063 397.140625 L 45.617188 410.851563 L 45.617188 397.140625 L 52.835938 397.140625 L 52.835938 421.921875 L 45.617188 421.921875 L 36.339844 408.316406 L 36.339844 421.921875 L 29.136719 421.921875 "/>
<path style=" stroke:none;fill-rule:nonzero;fill:rgb(100%,100%,100%);fill-opacity:1;" d="M 59.644531 397.140625 L 82.921875 397.140625 L 82.921875 403.261719 L 75.113281 403.261719 L 75.113281 421.921875 L 67.457031 421.921875 L 67.457031 403.261719 L 59.644531 403.261719 "/>
<path style=" stroke:none;fill-rule:nonzero;fill:rgb(100%,100%,100%);fill-opacity:1;" d="M 89.832031 397.140625 L 110.355469 397.140625 L 110.355469 402.433594 L 97.507813 402.433594 L 97.507813 406.371094 L 109.425781 406.371094 L 109.425781 411.425781 L 97.507813 411.425781 L 97.507813 416.308594 L 110.726563 416.308594 L 110.726563 421.921875 L 89.832031 421.921875 "/>
<path style=" stroke:none;fill-rule:nonzero;fill:rgb(100%,100%,100%);fill-opacity:1;" d="M 126.105469 407.183594 L 129.335938 407.183594 C 129.683594 407.183594 130.359375 407.070313 131.363281 406.84375 C 131.871094 406.742188 132.285156 406.484375 132.605469 406.066406 C 132.925781 405.652344 133.085938 405.171875 133.085938 404.628906 C 133.085938 403.828125 132.835938 403.214844 132.328125 402.785156 C 131.820313 402.359375 130.867188 402.144531 129.46875 402.144531 L 126.105469 402.144531 Z M 118.414063 421.921875 L 118.414063 397.140625 L 131.175781 397.140625 C 133.542969 397.140625 135.351563 397.34375 136.605469 397.75 C 137.855469 398.15625 138.863281 398.910156 139.628906 400.007813 C 140.394531 401.105469 140.777344 402.445313 140.777344 404.023438 C 140.777344 405.398438 140.484375 406.582031 139.898438 407.578125 C 139.3125 408.578125 138.503906 409.386719 137.480469 410.003906 C 136.828125 410.402344 135.929688 410.726563 134.789063 410.988281 C 135.703125 411.289063 136.367188 411.59375 136.785156 411.898438 C 137.066406 412.101563 137.472656 412.535156 138.007813 413.203125 C 138.542969 413.867188 138.902344 414.378906 139.082031 414.742188 L 142.789063 421.921875 L 134.136719 421.921875 L 130.046875 414.347656 C 129.527344 413.371094 129.0625 412.730469 128.660156 412.441406 C 128.105469 412.054688 127.480469 411.867188 126.78125 411.867188 L 126.105469 411.867188 L 126.105469 421.921875 "/>
<path style=" stroke:none;fill-rule:nonzero;fill:rgb(100%,100%,100%);fill-opacity:1;" d="M 148.753906 397.140625 L 155.902344 397.140625 L 165.234375 410.851563 L 165.234375 397.140625 L 172.453125 397.140625 L 172.453125 421.921875 L 165.234375 421.921875 L 155.953125 408.316406 L 155.953125 421.921875 L 148.753906 421.921875 "/>
<path style=" stroke:none;fill-rule:nonzero;fill:rgb(100%,100%,100%);fill-opacity:1;" d="M 194.3125 412.472656 L 191.578125 403.566406 L 188.871094 412.472656 Z M 195.902344 417.832031 L 187.207031 417.832031 L 185.996094 421.921875 L 178.179688 421.921875 L 187.496094 397.140625 L 195.847656 397.140625 L 205.160156 421.921875 L 197.140625 421.921875 "/>
<path style=" stroke:none;fill-rule:nonzero;fill:rgb(100%,100%,100%);fill-opacity:1;" d="M 206.929688 397.140625 L 230.207031 397.140625 L 230.207031 403.261719 L 222.398438 403.261719 L 222.398438 421.921875 L 214.742188 421.921875 L 214.742188 403.261719 L 206.929688 403.261719 "/>
<path style=" stroke:none;fill-rule:nonzero;fill:rgb(100%,100%,100%);fill-opacity:1;" d="M 237.4375 421.921875 L 245.113281 421.921875 L 245.113281 397.140625 L 237.4375 397.140625 Z M 237.4375 421.921875 "/>
<path style=" stroke:none;fill-rule:nonzero;fill:rgb(100%,100%,100%);fill-opacity:1;" d="M 260.761719 409.582031 C 260.761719 412.085938 261.226563 413.882813 262.15625 414.976563 C 263.085938 416.066406 264.351563 416.613281 265.949219 416.613281 C 267.597656 416.613281 268.871094 416.082031 269.773438 415.007813 C 270.675781 413.9375 271.125 412.019531 271.125 409.246094 C 271.125 406.910156 270.65625 405.207031 269.714844 404.132813 C 268.773438 403.054688 267.496094 402.515625 265.886719 402.515625 C 264.339844 402.515625 263.101563 403.0625 262.164063 404.15625 C 261.230469 405.25 260.761719 407.058594 260.761719 409.582031 M 253.105469 409.546875 C 253.105469 405.503906 254.234375 402.355469 256.488281 400.101563 C 258.742188 397.847656 261.878906 396.71875 265.902344 396.71875 C 270.027344 396.71875 273.203125 397.828125 275.4375 400.039063 C 277.664063 402.253906 278.78125 405.355469 278.78125 409.347656 C 278.78125 412.242188 278.296875 414.617188 277.320313 416.472656 C 276.347656 418.324219 274.9375 419.769531 273.09375 420.796875 C 271.253906 421.832031 268.953125 422.347656 266.203125 422.347656 C 263.410156 422.347656 261.097656 421.898438 259.265625 421.011719 C 257.4375 420.121094 255.949219 418.710938 254.8125 416.785156 C 253.675781 414.855469 253.105469 412.445313 253.105469 409.546875 "/>
<path style=" stroke:none;fill-rule:nonzero;fill:rgb(100%,100%,100%);fill-opacity:1;" d="M 286.421875 397.140625 L 293.570313 397.140625 L 302.898438 410.851563 L 302.898438 397.140625 L 310.117188 397.140625 L 310.117188 421.921875 L 302.898438 421.921875 L 293.621094 408.316406 L 293.621094 421.921875 L 286.421875 421.921875 "/>
<path style=" stroke:none;fill-rule:nonzero;fill:rgb(100%,100%,100%);fill-opacity:1;" d="M 331.980469 412.472656 L 329.242188 403.566406 L 326.535156 412.472656 Z M 333.566406 417.832031 L 324.871094 417.832031 L 323.664063 421.921875 L 315.847656 421.921875 L 325.160156 397.140625 L 333.515625 397.140625 L 342.824219 421.921875 L 334.808594 421.921875 "/>
<path style=" stroke:none;fill-rule:nonzero;fill:rgb(100%,100%,100%);fill-opacity:1;" d="M 348.722656 397.140625 L 356.378906 397.140625 L 356.378906 415.820313 L 368.328125 415.820313 L 368.328125 421.921875 L 348.722656 421.921875 "/>
</g>
</svg>
