<?xml version="1.0" encoding="UTF-8"?>
<svg xmlns="http://www.w3.org/2000/svg" xmlns:xlink="http://www.w3.org/1999/xlink" width="194pt" height="194pt" viewBox="0 0 194 194" version="1.1">
<g id="surface1">
<path style=" stroke:none;fill-rule:evenodd;fill:rgb(100%,100%,100%);fill-opacity:1;" d="M 0.257813 0.675781 L 193.015625 0.675781 L 193.015625 193.433594 L 0.257813 193.433594 L 0.257813 0.675781 "/>
<path style="fill:none;stroke-width:30.1798;stroke-linecap:butt;stroke-linejoin:miter;stroke:rgb(16.099548%,36.099243%,66.699219%);stroke-opacity:1;stroke-miterlimit:2.6131;" d="M 964.79504 431.917518 C 1260.651456 431.917518 1500.375621 671.606935 1500.375621 967.468677 C 1500.375621 1263.369482 1260.651456 1503.058899 964.79504 1503.058899 C 669.719865 1503.058899 429.9957 1263.369482 429.9957 967.468677 C 429.9957 671.606935 669.719865 431.917518 964.79504 431.917518 Z M 964.79504 431.917518 " transform="matrix(0.100001,0,0,-0.0999992,0,194)"/>
<path style=" stroke:none;fill-rule:evenodd;fill:rgb(100%,100%,100%);fill-opacity:1;" d="M 69.976563 47.335938 L 72.667969 52.636719 L 119.265625 52.636719 L 122.980469 47.335938 C 122.980469 47.335938 101.621094 32.304688 69.976563 47.335938 "/>
<path style=" stroke:none;fill-rule:evenodd;fill:rgb(16.099548%,36.099243%,66.699219%);fill-opacity:1;" d="M 145.527344 93.535156 C 145.527344 93.535156 145.132813 88.867188 144.183594 85.703125 L 48.539063 85.703125 C 48.539063 85.703125 47.90625 86.492188 47.273438 93.535156 L 145.527344 93.535156 "/>
<path style=" stroke:none;fill-rule:evenodd;fill:rgb(16.099548%,36.099243%,66.699219%);fill-opacity:1;" d="M 47.113281 96.382813 L 145.6875 96.382813 C 145.6875 96.382813 145.605469 106.113281 143.3125 112.046875 L 49.410156 112.046875 C 49.09375 111.570313 46.558594 101.601563 47.113281 96.382813 "/>
<path style=" stroke:none;fill-rule:evenodd;fill:rgb(16.099548%,36.099243%,66.699219%);fill-opacity:1;" d="M 50.199219 114.183594 L 142.601563 114.183594 C 142.601563 114.183594 136.746094 135.066406 111.589844 144.007813 C 111.589844 144.007813 96.242188 149.78125 78.839844 143.214844 C 78.839844 143.214844 57.636719 136.015625 50.199219 114.183594 "/>
<path style=" stroke:none;fill-rule:evenodd;fill:rgb(16.099548%,36.099243%,66.699219%);fill-opacity:1;" d="M 51.464844 77.078125 L 141.253906 77.078125 C 141.253906 77.078125 142.441406 79.53125 142.996094 81.589844 L 49.726563 81.589844 C 49.726563 81.589844 50.28125 79.691406 51.464844 77.078125 "/>
<path style=" stroke:none;fill-rule:evenodd;fill:rgb(16.099548%,36.099243%,66.699219%);fill-opacity:1;" d="M 56.054688 69.011719 L 136.824219 69.089844 C 136.824219 69.089844 138.328125 71.304688 139.039063 72.648438 L 53.761719 72.648438 C 53.761719 72.648438 55.027344 70.515625 56.054688 69.011719 "/>
<path style="fill:none;stroke-width:48.2877;stroke-linecap:butt;stroke-linejoin:miter;stroke:rgb(16.099548%,36.099243%,66.699219%);stroke-opacity:1;stroke-miterlimit:2.6131;" d="M 966.357524 189.02495 C 1396.704783 189.02495 1746.388786 538.715247 1746.388786 969.851509 C 1746.388786 1400.206514 1396.704783 1749.857749 966.357524 1749.857749 C 535.229023 1749.857749 186.365324 1400.206514 186.365324 969.851509 C 186.365324 538.715247 535.229023 189.02495 966.357524 189.02495 Z M 966.357524 189.02495 " transform="matrix(0.100001,0,0,-0.0999992,0,194)"/>
<path style=" stroke:none;fill-rule:evenodd;fill:rgb(16.099548%,36.099243%,66.699219%);fill-opacity:1;" d="M 63.171875 60.941406 L 129.628906 60.941406 C 129.628906 60.941406 131.84375 62.917969 132.554688 63.871094 L 60.167969 63.871094 C 60.167969 63.871094 61.988281 61.8125 63.171875 60.941406 "/>
<path style=" stroke:none;fill-rule:evenodd;fill:rgb(16.099548%,36.099243%,66.699219%);fill-opacity:1;" d="M 37.464844 54.851563 L 57.003906 54.851563 C 57.003906 54.851563 56.292969 55.640625 56.054688 56.117188 L 36.832031 56.117188 C 36.832031 56.117188 36.832031 55.402344 37.464844 54.851563 "/>
<path style="fill:none;stroke-width:6.16371;stroke-linecap:butt;stroke-linejoin:miter;stroke:rgb(16.099548%,36.099243%,66.699219%);stroke-opacity:1;stroke-miterlimit:2.6131;" d="M 374.644691 1391.495507 L 570.033362 1391.495507 C 570.033362 1391.495507 562.924058 1383.604819 560.54127 1378.839156 L 368.316629 1378.839156 C 368.316629 1378.839156 368.316629 1385.98765 374.644691 1391.495507 Z M 374.644691 1391.495507 " transform="matrix(0.100001,0,0,-0.0999992,0,194)"/>
<path style=" stroke:none;fill-rule:evenodd;fill:rgb(16.099548%,36.099243%,66.699219%);fill-opacity:1;" d="M 73.855469 54.851563 L 118.789063 54.851563 C 118.789063 54.851563 120.289063 55.484375 121.082031 56.117188 L 71.796875 56.117188 C 71.796875 56.117188 72.273438 55.5625 73.855469 54.851563 "/>
<path style="fill:none;stroke-width:6.16371;stroke-linecap:butt;stroke-linejoin:miter;stroke:rgb(16.099548%,36.099243%,66.699219%);stroke-opacity:1;stroke-miterlimit:2.6131;" d="M 738.547302 1391.495507 L 1187.878746 1391.495507 C 1187.878746 1391.495507 1202.917658 1385.167331 1210.808204 1378.839156 L 717.96157 1378.839156 C 717.96157 1378.839156 722.727148 1384.386075 738.547302 1391.495507 Z M 738.547302 1391.495507 " transform="matrix(0.100001,0,0,-0.0999992,0,194)"/>
<path style=" stroke:none;fill-rule:evenodd;fill:rgb(16.099548%,36.099243%,66.699219%);fill-opacity:1;" d="M 135.324219 54.851563 L 155.339844 54.851563 C 155.339844 54.851563 156.128906 55.402344 156.445313 56.035156 L 136.90625 56.035156 C 136.90625 56.035156 136.191406 55.402344 135.324219 54.851563 "/>
<path style="fill:none;stroke-width:6.16371;stroke-linecap:butt;stroke-linejoin:miter;stroke:rgb(16.099548%,36.099243%,66.699219%);stroke-opacity:1;stroke-miterlimit:2.6131;" d="M 1353.228655 1391.495507 L 1553.343842 1391.495507 C 1553.343842 1391.495507 1561.27345 1385.98765 1564.437481 1379.659475 L 1369.04881 1379.659475 C 1369.04881 1379.659475 1361.939506 1385.98765 1353.228655 1391.495507 Z M 1353.228655 1391.495507 " transform="matrix(0.100001,0,0,-0.0999992,0,194)"/>
<path style=" stroke:none;fill-rule:evenodd;fill:rgb(16.099548%,36.099243%,66.699219%);fill-opacity:1;" d="M 38.570313 79.613281 C 40.152344 80.007813 41.734375 79.453125 42.527344 77.394531 C 43 76.132813 42.921875 75.183594 42.605469 74.390625 C 42.289063 73.601563 41.734375 73.046875 40.945313 72.808594 C 39.914063 72.410156 39.125 72.492188 38.414063 72.730469 C 37.78125 72.96875 37.148438 73.441406 36.277344 74.074219 C 35.40625 74.628906 35.011719 74.945313 34.617188 75.101563 C 34.21875 75.339844 33.746094 75.339844 33.191406 75.183594 C 32.875 75.023438 32.558594 74.785156 32.402344 74.46875 C 32.164063 74.152344 32.082031 73.757813 32.242188 73.203125 C 32.558594 72.335938 33.351563 72.253906 34.0625 72.410156 L 34.851563 70.117188 C 33.191406 69.722656 31.609375 70.277344 30.738281 72.648438 C 30.183594 74.074219 30.421875 75.101563 30.738281 75.894531 C 31.132813 76.765625 31.847656 77.316406 32.558594 77.632813 C 33.585938 78.027344 34.457031 77.871094 35.089844 77.632813 C 35.644531 77.394531 36.199219 77 37.066406 76.367188 C 37.78125 75.8125 38.175781 75.578125 38.652344 75.261719 C 39.203125 74.945313 39.757813 74.945313 40.230469 75.101563 C 40.546875 75.261719 40.785156 75.421875 40.945313 75.65625 C 41.023438 75.972656 41.101563 76.367188 40.945313 76.765625 C 40.707031 77.476563 39.914063 77.554688 39.363281 77.476563 L 38.570313 79.613281 "/>
<path style=" stroke:none;fill-rule:evenodd;fill:rgb(16.099548%,36.099243%,66.699219%);fill-opacity:1;" d="M 30.5 86.019531 L 27.101563 86.179688 L 26.546875 88.710938 L 39.363281 87.523438 L 40.074219 84.28125 L 28.917969 77.949219 L 28.367188 80.480469 L 31.371094 81.984375 Z M 32.242188 85.859375 L 32.875 82.855469 L 35.566406 84.199219 C 36.433594 84.59375 37.304688 85.070313 38.335938 85.546875 L 38.335938 85.621094 C 37.226563 85.621094 36.277344 85.703125 35.25 85.78125 L 32.242188 85.859375 "/>
<path style=" stroke:none;fill-rule:evenodd;fill:rgb(16.099548%,36.099243%,66.699219%);fill-opacity:1;" d="M 26.308594 93.453125 L 31.769531 93.691406 L 31.53125 97.175781 L 33.191406 97.253906 L 33.351563 93.851563 L 36.910156 94.007813 L 36.671875 98.519531 L 38.253906 98.597656 L 38.652344 91.636719 L 26.46875 91.003906 L 26.308594 93.453125 "/>
<path style=" stroke:none;fill-rule:evenodd;fill:rgb(16.099548%,36.099243%,66.699219%);fill-opacity:1;" d="M 33.429688 102.238281 L 36.832031 101.921875 L 37.226563 106.351563 L 38.808594 106.191406 L 38.335938 99.390625 L 26.152344 100.339844 L 26.625 107.300781 L 28.285156 107.140625 L 27.972656 102.632813 L 31.769531 102.316406 L 32.082031 105.640625 L 33.667969 105.558594 L 33.429688 102.238281 "/>
<path style=" stroke:none;fill-rule:evenodd;fill:rgb(16.099548%,36.099243%,66.699219%);fill-opacity:1;" d="M 40.707031 115.132813 L 38.808594 106.507813 L 37.226563 106.824219 L 37.9375 109.988281 L 27.574219 112.28125 L 28.128906 114.65625 L 38.414063 112.363281 L 39.125 115.527344 L 40.707031 115.132813 "/>
<path style=" stroke:none;fill-rule:evenodd;fill:rgb(16.099548%,36.099243%,66.699219%);fill-opacity:1;" d="M 44.269531 124.230469 L 43.316406 121.777344 L 40.152344 121.777344 C 39.046875 121.777344 37.9375 121.777344 36.753906 121.855469 L 36.671875 121.777344 C 37.621094 120.984375 38.414063 120.273438 39.28125 119.480469 L 41.578125 117.34375 L 40.546875 114.816406 L 34.851563 121.222656 L 30.660156 122.964844 L 31.53125 125.175781 L 35.800781 123.515625 L 44.269531 124.230469 "/>
<path style=" stroke:none;fill-rule:evenodd;fill:rgb(16.099548%,36.099243%,66.699219%);fill-opacity:1;" d="M 51.230469 134.910156 L 46.164063 127.628906 L 44.820313 128.5 L 46.71875 131.191406 L 37.9375 137.203125 L 39.363281 139.179688 L 48.0625 133.167969 L 49.882813 135.78125 L 51.230469 134.910156 "/>
<path style=" stroke:none;fill-rule:evenodd;fill:rgb(16.099548%,36.099243%,66.699219%);fill-opacity:1;" d="M 59.21875 143.058594 L 57.476563 141.316406 L 53.917969 144.953125 L 49.726563 140.839844 L 53.363281 137.203125 L 51.625 135.460938 L 43 144.164063 L 44.742188 145.90625 L 48.617188 141.949219 L 52.730469 146.0625 L 48.855469 150.019531 L 50.59375 151.757813 L 59.21875 143.058594 "/>
<path style=" stroke:none;fill-rule:evenodd;fill:rgb(16.099548%,36.099243%,66.699219%);fill-opacity:1;" d="M 61.199219 153.105469 C 62.621094 153.65625 64.203125 153.578125 65.390625 151.835938 C 67.128906 149.304688 65.46875 147.328125 63.492188 145.984375 L 60.328125 143.847656 L 53.445313 153.972656 L 55.421875 155.320313 L 58.109375 151.363281 L 59.140625 152.074219 L 58.742188 157.535156 L 61.199219 159.273438 Z M 58.980469 150.019531 L 61.433594 146.539063 L 62.542969 147.328125 C 63.964844 148.277344 64.125 149.304688 63.332031 150.414063 C 62.542969 151.601563 61.511719 151.757813 60.328125 150.96875 L 58.980469 150.019531 "/>
<path style=" stroke:none;fill-rule:evenodd;fill:rgb(16.099548%,36.099243%,66.699219%);fill-opacity:1;" d="M 65.546875 154.84375 C 63.808594 158.800781 65.546875 161.726563 68.871094 163.148438 C 72.273438 164.574219 75.515625 163.785156 77.257813 159.75 C 78.917969 155.792969 77.257813 152.867188 73.855469 151.441406 C 70.453125 150.019531 67.210938 150.808594 65.546875 154.765625 Z M 73.222656 152.945313 C 75.042969 153.65625 76.304688 155.636719 74.964844 158.800781 C 73.535156 162.042969 71.324219 162.4375 69.503906 161.726563 C 67.683594 160.933594 66.496094 158.957031 67.84375 155.792969 C 69.1875 152.628906 71.402344 152.152344 73.222656 152.867188 L 73.222656 152.945313 "/>
<path style=" stroke:none;fill-rule:evenodd;fill:rgb(16.099548%,36.099243%,66.699219%);fill-opacity:1;" d="M 91.101563 156.269531 L 88.804688 155.792969 L 87.382813 163.230469 C 86.984375 165.445313 86.195313 166.394531 83.902344 165.996094 C 81.605469 165.601563 81.210938 164.335938 81.605469 162.121094 L 82.953125 154.765625 L 80.65625 154.289063 L 79.3125 161.570313 C 78.601563 165.367188 80.105469 166.867188 83.664063 167.582031 C 87.222656 168.214844 89.121094 167.265625 89.835938 163.464844 L 91.101563 156.269531 "/>
<path style=" stroke:none;fill-rule:evenodd;fill:rgb(16.099548%,36.099243%,66.699219%);fill-opacity:1;" d="M 103.835938 162.121094 L 98.929688 162.199219 L 98.929688 163.863281 L 101.542969 163.785156 L 101.621094 166.316406 C 101.066406 166.710938 100.039063 167.027344 98.773438 167.027344 C 96.480469 167.105469 94.898438 165.523438 94.816406 162.359375 C 94.738281 158.957031 96.71875 157.535156 98.457031 157.535156 C 99.722656 157.453125 100.433594 158.007813 101.148438 159.273438 L 103.601563 158.71875 C 102.414063 156.902344 100.515625 155.871094 98.378906 155.953125 C 94.816406 156.03125 92.207031 158.007813 92.285156 162.4375 C 92.445313 166.394531 94.5 168.765625 98.613281 168.6875 C 101.066406 168.609375 102.964844 167.660156 103.996094 166.789063 L 103.835938 162.121094 "/>
<path style=" stroke:none;fill-rule:evenodd;fill:rgb(16.099548%,36.099243%,66.699219%);fill-opacity:1;" d="M 115.386719 153.339844 L 113.015625 153.894531 L 114.199219 158.878906 L 108.585938 160.222656 L 107.316406 155.238281 L 104.945313 155.871094 L 107.871094 167.738281 L 110.246094 167.183594 L 108.898438 161.804688 L 114.59375 160.382813 L 115.941406 165.761719 L 118.234375 165.207031 L 115.386719 153.339844 "/>
<path style=" stroke:none;fill-rule:evenodd;fill:rgb(16.099548%,36.099243%,66.699219%);fill-opacity:1;" d="M 124.960938 154.449219 L 123.378906 151.441406 L 127.253906 149.386719 L 126.460938 147.960938 L 120.449219 151.125 L 126.144531 161.964844 L 132.316406 158.71875 L 131.523438 157.214844 L 127.570313 159.351563 L 125.75 155.953125 L 128.675781 154.367188 L 127.886719 152.945313 L 124.960938 154.449219 "/>
<path style=" stroke:none;fill-rule:evenodd;fill:rgb(16.099548%,36.099243%,66.699219%);fill-opacity:1;" d="M 138.882813 154.132813 C 142.601563 151.285156 142.601563 148.4375 140.226563 145.351563 C 137.773438 142.1875 134.925781 141.710938 131.367188 144.480469 L 127.648438 147.40625 L 135.085938 157.058594 Z M 136.035156 154.289063 L 130.496094 147.167969 L 132.238281 145.90625 C 134.609375 144.007813 136.589844 144.71875 138.25 146.933594 C 140.226563 149.464844 139.832031 151.363281 137.773438 152.945313 L 136.035156 154.289063 "/>
<path style=" stroke:none;fill-rule:evenodd;fill:rgb(16.099548%,36.099243%,66.699219%);fill-opacity:1;" d="M 144.105469 131.664063 L 142.519531 133.484375 L 148.296875 138.308594 C 150.035156 139.8125 150.433594 141 148.929688 142.738281 C 147.425781 144.558594 146.160156 144.242188 144.5 142.820313 L 138.722656 137.914063 L 137.222656 139.734375 L 142.839844 144.558594 C 145.765625 147.011719 147.820313 146.539063 150.117188 143.769531 C 152.566406 140.921875 152.648438 138.863281 149.722656 136.410156 L 144.105469 131.664063 "/>
<path style=" stroke:none;fill-rule:evenodd;fill:rgb(16.099548%,36.099243%,66.699219%);fill-opacity:1;" d="M 155.652344 128.105469 C 156.683594 128.898438 157.394531 130.160156 156.683594 131.429688 C 155.96875 132.773438 154.308594 133.328125 151.222656 131.585938 C 148.136719 129.925781 147.664063 128.183594 148.453125 126.761719 C 149.089844 125.652344 150.117188 125.496094 151.539063 125.890625 L 152.566406 123.675781 C 150.035156 122.882813 148.136719 123.914063 147.03125 125.96875 C 146.320313 127.3125 146.082031 128.660156 146.476563 129.925781 C 146.871094 131.429688 147.980469 132.691406 149.878906 133.722656 C 152.09375 134.988281 153.753906 135.144531 155.101563 134.75 C 156.445313 134.433594 157.472656 133.40625 158.105469 132.21875 C 159.214844 130.242188 158.976563 127.789063 157.078125 126.046875 L 155.652344 128.105469 "/>
<path style=" stroke:none;fill-rule:evenodd;fill:rgb(16.099548%,36.099243%,66.699219%);fill-opacity:1;" d="M 160.402344 117.820313 L 163.800781 117.980469 L 164.671875 115.527344 L 151.855469 115.289063 L 150.828125 118.375 L 161.113281 125.96875 L 161.980469 123.515625 L 159.132813 121.617188 Z M 158.738281 117.742188 L 157.710938 120.667969 L 155.179688 119.007813 C 154.386719 118.453125 153.597656 117.902344 152.648438 117.34375 L 152.648438 117.265625 C 153.753906 117.34375 154.703125 117.425781 155.734375 117.503906 L 158.738281 117.742188 "/>
<path style=" stroke:none;fill-rule:evenodd;fill:rgb(16.099548%,36.099243%,66.699219%);fill-opacity:1;" d="M 154.308594 103.1875 L 152.886719 111.96875 L 154.546875 112.203125 L 155.019531 109.039063 L 165.542969 110.78125 L 165.859375 108.328125 L 155.414063 106.667969 L 155.96875 103.421875 L 154.308594 103.1875 "/>
<path style=" stroke:none;fill-rule:evenodd;fill:rgb(16.099548%,36.099243%,66.699219%);fill-opacity:1;" d="M 166.570313 100.023438 L 154.386719 99.46875 L 154.308594 101.921875 L 166.492188 102.472656 L 166.570313 100.023438 "/>
<path style=" stroke:none;fill-rule:evenodd;fill:rgb(16.099548%,36.099243%,66.699219%);fill-opacity:1;" d="M 160.796875 97.253906 C 165.148438 96.777344 166.808594 93.851563 166.414063 90.210938 C 166.015625 86.574219 163.722656 84.121094 159.371094 84.59375 C 155.019531 85.070313 153.359375 87.996094 153.753906 91.636719 C 154.230469 95.273438 156.445313 97.726563 160.796875 97.253906 Z M 155.339844 91.398438 C 155.179688 89.5 156.207031 87.441406 159.6875 87.046875 C 163.089844 86.652344 164.59375 88.394531 164.832031 90.371094 C 165.066406 92.347656 163.960938 94.324219 160.558594 94.722656 C 157.078125 95.117188 155.574219 93.378906 155.339844 91.476563 L 155.339844 91.398438 "/>
<path style=" stroke:none;fill-rule:evenodd;fill:rgb(16.099548%,36.099243%,66.699219%);fill-opacity:1;" d="M 159.609375 73.125 C 158.183594 74.390625 155.574219 77 151.855469 81.035156 L 152.964844 84.28125 L 164.515625 80.324219 L 163.800781 78.1875 C 159.214844 79.769531 156.050781 80.878906 154.46875 81.511719 L 154.46875 81.429688 C 155.8125 80.164063 158.34375 77.476563 162.140625 73.519531 L 161.03125 70.195313 L 149.484375 74.230469 L 150.273438 76.367188 C 154.863281 74.785156 157.949219 73.679688 159.53125 73.046875 L 159.609375 73.125 "/>
<path style="fill:none;stroke-width:12.3149;stroke-linecap:butt;stroke-linejoin:miter;stroke:rgb(100%,100%,100%);stroke-opacity:1;stroke-miterlimit:2.6131;" d="M 964.013797 464.339652 C 1241.667271 464.339652 1466.352524 689.810206 1466.352524 967.468677 C 1466.352524 1245.166211 1241.667271 1469.816446 964.013797 1469.816446 C 686.321262 1469.816446 461.636009 1245.166211 461.636009 967.468677 C 461.636009 689.810206 686.321262 464.339652 964.013797 464.339652 Z M 964.013797 464.339652 " transform="matrix(0.100001,0,0,-0.0999992,0,194)"/>
<path style=" stroke:none;fill-rule:evenodd;fill:rgb(100%,100%,100%);fill-opacity:1;" d="M 69.425781 65.6875 L 69.425781 126.363281 L 125.117188 126.363281 L 107.160156 96.777344 L 124.722656 65.6875 L 69.425781 65.6875 "/>
<path style=" stroke:none;fill-rule:evenodd;fill:rgb(16.099548%,36.099243%,66.699219%);fill-opacity:1;" d="M 120.371094 124.703125 L 103.441406 96.777344 L 120.371094 67.664063 L 71.164063 67.664063 L 71.164063 124.703125 L 120.371094 124.703125 "/>
<path style=" stroke:none;fill-rule:evenodd;fill:rgb(100%,100%,100%);fill-opacity:1;" d="M 73.0625 122.09375 L 90.152344 122.09375 L 90.152344 70.117188 L 73.0625 70.117188 L 73.0625 122.09375 "/>
<path style=" stroke:none;fill-rule:evenodd;fill:rgb(16.099548%,36.099243%,66.699219%);fill-opacity:1;" d="M 81.210938 40.453125 C 80.105469 38.792969 77.652344 35.628906 73.773438 30.882813 L 67.605469 32.777344 L 72.351563 48.679688 L 76.386719 47.414063 C 74.804688 42.035156 73.695313 38.476563 72.984375 36.65625 L 73.140625 36.65625 C 74.25 38.238281 76.703125 41.480469 80.578125 46.148438 L 86.75 44.328125 L 82.003906 28.429688 L 77.890625 29.695313 C 79.550781 34.996094 80.65625 38.632813 81.289063 40.453125 L 81.210938 40.453125 "/>
<path style=" stroke:none;fill-rule:evenodd;fill:rgb(16.099548%,36.099243%,66.699219%);fill-opacity:1;" d="M 96.164063 40.375 L 97.03125 43.933594 L 101.9375 43.695313 L 96.402344 27.320313 L 90.070313 27.636719 L 86.039063 44.40625 L 90.941406 44.171875 L 91.574219 40.609375 Z M 95.214844 37.050781 L 92.128906 37.210938 L 92.761719 33.730469 C 92.917969 32.699219 93.078125 31.671875 93.234375 30.246094 L 93.472656 30.246094 C 93.789063 31.59375 94.027344 32.621094 94.34375 33.648438 L 95.214844 37.050781 "/>
<path style=" stroke:none;fill-rule:evenodd;fill:rgb(16.099548%,36.099243%,66.699219%);fill-opacity:1;" d="M 117.996094 30.011719 L 113.566406 29.21875 L 111.746094 39.109375 C 111.273438 41.480469 110.402344 42.429688 108.1875 42.035156 C 105.894531 41.640625 105.496094 40.296875 105.894531 38 L 107.714844 28.113281 L 103.28125 27.320313 L 101.464844 36.972656 C 100.515625 42.191406 102.492188 44.40625 107.554688 45.355469 C 112.695313 46.308594 115.308594 44.804688 116.257813 39.742188 L 117.996094 30.011719 "/>
<path style=" stroke:none;fill-rule:evenodd;fill:rgb(16.099548%,36.099243%,66.699219%);fill-opacity:1;" d="M 118.867188 48.203125 L 124.40625 32.542969 L 120.132813 31.039063 L 114.59375 46.703125 L 118.867188 48.203125 "/>
<path style=" stroke:none;fill-rule:evenodd;fill:rgb(16.099548%,36.099243%,66.699219%);fill-opacity:1;" d="M 122.03125 45.832031 L 122.507813 46.070313 L 122.742188 45.59375 L 122.742188 46.148438 L 123.21875 46.386719 L 123.21875 45.753906 C 123.378906 45.753906 123.535156 45.59375 123.613281 45.515625 C 123.613281 45.355469 123.613281 45.277344 123.613281 45.199219 C 123.535156 45.039063 123.453125 44.960938 123.140625 44.804688 L 122.664063 44.566406 Z M 122.902344 45.039063 L 122.980469 45.121094 C 123.058594 45.121094 123.140625 45.199219 123.140625 45.277344 C 123.058594 45.355469 122.980469 45.4375 122.902344 45.355469 L 122.824219 45.355469 Z M 123.378906 44.328125 C 122.742188 44.011719 121.953125 44.25 121.714844 44.960938 C 121.398438 45.59375 121.714844 46.308594 122.347656 46.621094 C 122.980469 46.941406 123.773438 46.621094 124.007813 45.988281 C 124.324219 45.355469 124.007813 44.644531 123.378906 44.328125 Z M 123.21875 44.566406 C 123.773438 44.804688 123.929688 45.355469 123.691406 45.832031 C 123.535156 46.386719 122.980469 46.542969 122.507813 46.308594 C 121.953125 46.148438 121.796875 45.59375 122.03125 45.039063 C 122.1875 44.566406 122.742188 44.40625 123.21875 44.566406 "/>
</g>
</svg>
