<?xml version="1.0" encoding="UTF-8" standalone="no"?>
<!-- Created with Inkscape (http://www.inkscape.org/) -->
<svg
   xmlns:svg="http://www.w3.org/2000/svg"
   xmlns="http://www.w3.org/2000/svg"
   version="1.0"
   width="900"
   height="215"
   id="svg2"
   xml:space="preserve"><defs
     id="defs5" /><g
     transform="matrix(1.25,0,0,-1.25,374.5,787.0333)"
     id="g11"><path
       d="M -281.32853,625.0538 L -76.491203,625.0538 L -76.491203,462.74543 L -281.32853,462.74543 L -281.32853,625.0538 z"
       id="path47"
       style="fill:#ed1733;fill-opacity:1;fill-rule:nonzero;stroke:none" /><path
       d="M -98.033935,462.30554 L -282.12527,601.05217 L -282.63353,624.55381 L -261.29341,624.55381 L -77.608224,487.59729 L -77.608224,462.30554 L -98.033935,462.30554 z"
       id="path53"
       style="fill:#ffffff;fill-opacity:1;fill-rule:nonzero;stroke:none" /><path
       d="M -76.563147,625.05122 L -281.32851,625.05122 L -281.32851,462.20207 L -76.563147,462.20207 L -76.563147,625.05122 z"
       id="path65"
       style="fill:none;stroke:#ed1733;stroke-width:4.09786177;stroke-linecap:butt;stroke-linejoin:miter;stroke-miterlimit:4;stroke-dasharray:none;stroke-opacity:1" /><path
       d="M -124.46064,611.25625 L -106.13296,611.25625 L -106.13296,556.07607 L -124.46064,556.07607 L -124.46064,611.25625 z"
       id="path69"
       style="fill:#ffffff;fill-opacity:1;fill-rule:nonzero;stroke:none" /><path
       d="M -140.8713,593.55303 L -89.719985,593.55303 L -89.719985,573.77929 L -140.8713,573.77929 L -140.8713,593.55303 z"
       id="path73"
       style="fill:#ffffff;fill-opacity:1;fill-rule:nonzero;stroke:none" /><path
       d="M -12.422565,492.83883 L 7.4298978,492.83883 C 30.450307,492.83883 52.205858,509.24016 52.205858,543.18951 C 52.205858,577.13634 30.450307,593.54268 7.4298978,593.54268 L -12.422565,593.54268 L -12.422565,492.83883 z M 9.7553792,625.43903 C 62.129769,625.43903 96.557105,604.02291 96.557105,543.18951 C 96.557105,482.35359 62.129769,460.93998 9.7553792,460.93998 L -54.664168,460.93998 L -54.664168,625.43903 L 9.7553792,625.43903"
       id="path87"
       style="fill:#ed1733;fill-opacity:1;fill-rule:nonzero;stroke:none" /><path
       d="M 183.31241,524.96152 L 163.88002,593.31335 L 163.24643,593.31335 L 142.54918,524.96152 L 183.31241,524.96152 z M 79.610335,460.93847 L 139.80131,625.44002 L 191.33555,625.44002 L 251.52885,460.93847 L 203.79614,460.93847 L 193.66103,493.06266 L 131.77817,493.06266 L 121.85193,460.93847 L 79.610335,460.93847 z"
       id="path93"
       style="fill:#ed1733;fill-opacity:1;fill-rule:nonzero;stroke:none" /><path
       d="M 255.49052,625.43978 L 314.63016,625.43978 L 365.73969,502.86164 L 366.1644,503.31731 L 366.1644,625.43978 L 404.17744,625.43978 L 404.17744,460.93822 L 345.67604,460.93822 L 293.92827,586.93381 L 293.5082,586.93381 L 293.5082,460.93822 L 255.49052,460.93822 L 255.49052,625.43978 z"
       id="path99"
       style="fill:#ed1733;fill-opacity:1;fill-rule:nonzero;stroke:none" /></g></svg>