<?xml version="1.0" encoding="utf-8"?>
<!-- Generator: Adobe Illustrator 19.1.1, SVG Export Plug-In . SVG Version: 6.00 Build 0)  -->
<svg version="1.1" id="Lager_1" xmlns="http://www.w3.org/2000/svg" xmlns:xlink="http://www.w3.org/1999/xlink" x="0px" y="0px"
	 viewBox="0 0 2624 850" style="enable-background:new 0 0 2624 850;" xml:space="preserve">
<style type="text/css">
	.st0{fill-rule:evenodd;clip-rule:evenodd;}
	.st1{fill-rule:evenodd;clip-rule:evenodd;fill:#FFFFFF;}
	.st2{fill-rule:evenodd;clip-rule:evenodd;fill:#D52C1C;}
</style>
<path class="st0" d="M537.1,560.9c28.8,15.4,48.3,44.9,48.3,78.9c0,49.8-42,90.1-93.8,90.1s-93.8-40.4-93.8-90.1
	c0-49.8,42-90.1,93.8-90.1c0.4,0,0.7,0,1.1,0.1c-8.8-4.5-16-10.1-21.6-16.8c-7.3-8.8-12.3-18.4-15.1-28.9c-1-4-1.9-8.9-2.5-14.3
	c-7.7,6.5-16.5,11.7-26.1,15.6l-6.1,51.1h-90.9l-0.6-4.9c-2.8-19.6-6-43.3-9.6-71.4c-0.4-0.4-0.7-0.9-1.1-1.2
	c-0.9,6.1-1.7,12.2-2.7,18.4l-8.8,59.2h-18.9C345.8,726.6,510.1,850,706.5,850c244.4,0,442.5-190.4,442.5-425.2
	C1149,189.9,950.9-0.4,706.5-0.4C509.1-0.4,344.2,123.2,288,294.4l66.5,0l4.5,42.7c3.8-1.4,7.8-2.5,11.8-3.4
	c1.7-11.2,3.5-22.8,5.5-34.6l0.8-4.8h75.3l-6.4,53.7c3,2,5.8,4.2,8.5,6.6c1.6-8.4,3.7-15.7,6.6-22c6.3-13.8,16.6-24.4,31-31.8
	c14-7.1,30-10.7,48-10.7c18.9,0,35,3.2,48.4,9.6c30.8-27.4,72.1-44.2,117.4-44.2c12.5,0,24.7,1.2,36.4,3.7v-19.9h86.1v65.2
	c31.2,30,50.4,71.5,50.4,117.3c0,45.7-19.2,87.2-50.4,117.3v17.2h-21c-28.5,19.9-63.6,31.7-101.6,31.7c-42,0-80.5-14.4-110.5-38.3
	c-2.3,1.3-4.8,2.8-7.3,3.9c-11.5,5-25.8,7.5-42.8,7.5C542.6,561,539.8,561,537.1,560.9z"/>
<path class="st0" d="M446.1,300.1l-29.8,250.4h-80.9c-4.3-30.6-9.6-71-15.8-121.3c-2.4,22.2-5.3,44.5-8.7,66.9l-8.1,54.4h-80.9
	l-31.4-250.4h63.9c0.8,6.6,6.3,54.6,16.5,143.8c1.1-9.3,6.7-57.2,16.8-143.8h61.8l15.3,143.8c2.5-42,8.3-89.9,17.3-143.8H446.1z"/>
<path class="st0" d="M629,430.1h-96.5V484c0,11.3,0.8,18.6,2.4,21.8c1.6,3.3,4.7,4.9,9.3,4.9c5.7,0,9.5-2.1,11.4-6.5
	c1.9-4.3,2.9-12.6,2.9-25v-32.8H629V465c0,15.4-1,27.3-2.9,35.6c-1.9,8.3-6.4,17.1-13.4,26.5c-7,9.4-15.9,16.5-26.7,21.2
	c-10.8,4.7-24.3,7-40.6,7c-15.8,0-29.7-2.3-41.8-7c-12.1-4.7-21.5-11-28.2-19.2c-6.7-8.1-11.4-17.1-14-26.8
	c-2.6-9.8-3.9-23.9-3.9-42.6v-73c0-21.9,2.9-39.2,8.7-51.8c5.8-12.7,15.3-22.3,28.5-29.1c13.2-6.7,28.3-10.1,45.5-10.1
	c20.9,0,38.2,4.1,51.8,12.2c13.6,8.1,23.2,18.9,28.6,32.3c5.5,13.4,8.2,32.2,8.2,56.5V430.1z"/>
<path class="st0" d="M822.9,244.9v305.6h-74.8v-18.2c-7.1,7.7-14.6,13.4-22.5,17.3c-7.9,3.8-16.1,5.7-24.7,5.7
	c-11.6,0-21.6-3.1-30-9.3c-8.5-6.2-13.9-13.4-16.3-21.6c-2.4-8.2-3.6-21.5-3.6-40V367.2c0-19.3,1.2-32.9,3.6-41
	c2.4-8,7.9-15.1,16.5-21.2c8.6-6.1,18.8-9.1,30.8-9.1c9.2,0,17.6,1.7,25.3,5.2c7.7,3.4,14.6,8.6,20.9,15.5v-71.6H822.9z"/>
<path class="st1" d="M748.1,363.6c0-9.2-0.8-15.3-2.3-18.5c-1.5-3.1-4.5-4.7-9-4.7c-4.4,0-7.3,1.4-8.8,4.2
	c-1.5,2.8-2.3,9.1-2.3,18.9v122.3c0,10.2,0.7,16.8,2.2,20c1.4,3.2,4.2,4.8,8.3,4.8c4.7,0,7.9-1.8,9.4-5.4c1.6-3.6,2.4-12.3,2.4-26.3
	V363.6z"/>
<path class="st1" d="M548.6,383.6V371c0-12.2-0.6-19.9-1.7-23c-0.4-1.2-1.4-1.9-3-1.9c-2.6,0-4,0.4-4.3,1.1
	c-1,2.5-1.5,10.5-1.5,23.8v12.5H548.6z"/>
<path class="st1" d="M1101.5,429.4c0,49.8-42,90.1-93.8,90.1c-51.8,0-93.8-40.4-93.8-90.1c0-49.8,42-90.1,93.8-90.1
	C1059.5,339.3,1101.5,379.6,1101.5,429.4z"/>
<path class="st1" d="M581,206c0,49.8-42,90.1-93.8,90.1c-51.8,0-93.8-40.4-93.8-90.1c0-49.8,42-90.1,93.8-90.1
	C539,115.9,581,156.2,581,206z"/>
<path class="st1" d="M804.8,119.3c0,49.8-42,90.1-93.8,90.1c-51.8,0-93.8-40.4-93.8-90.1c0-49.8,42-90.2,93.8-90.2
	C762.8,29.1,804.8,69.5,804.8,119.3z"/>
<path class="st1" d="M1021.3,206c0,49.8-42,90.1-93.8,90.1c-51.8,0-93.8-40.4-93.8-90.1c0-49.8,42-90.1,93.8-90.1
	C979.3,115.9,1021.3,156.2,1021.3,206z"/>
<path class="st1" d="M1019.4,639.9c0,49.8-42,90.1-93.8,90.1c-51.8,0-93.8-40.4-93.8-90.1c0-49.8,42-90.1,93.8-90.1
	C977.4,549.7,1019.4,590.1,1019.4,639.9z"/>
<path class="st1" d="M804.8,724.5c0,49.8-42,90.1-93.8,90.1c-51.8,0-93.8-40.4-93.8-90.1c0-49.8,42-90.2,93.8-90.2
	C762.8,634.3,804.8,674.7,804.8,724.5z"/>
<path class="st0" d="M170.8,337.9H98.7V315c0-10.7-0.9-17.5-2.8-20.4c-1.8-2.9-4.9-4.4-9.1-4.4c-4.6,0-8.2,2-10.5,5.9
	c-2.4,3.9-3.6,9.9-3.6,17.8c0,10.2,1.3,17.9,4,23.1c2.5,5.2,9.8,11.4,21.9,18.7c34.5,20.9,56.3,38.1,65.3,51.6
	c8.9,13.5,13.4,35.2,13.4,65.2c0,21.8-2.5,37.9-7.5,48.2c-5,10.3-14.6,19-28.9,26c-14.3,7-30.9,10.5-49.8,10.5
	c-20.8,0-38.5-4.1-53.2-12.1c-14.7-8.1-24.3-18.4-28.9-30.8c-4.5-12.5-6.8-30.2-6.8-53.2v-20.1h72.2v37.5c0,11.6,1,19,3,22.3
	c2,3.3,5.6,5,10.8,5c5.2,0,9-2.1,11.5-6.3c2.5-4.2,3.8-10.4,3.8-18.6c0-18.1-2.4-29.9-7.1-35.5c-4.8-5.6-16.9-14.8-36.3-27.6
	c-19.3-13-32.1-22.5-38.4-28.4c-6.3-5.9-11.4-14.1-15.5-24.6C2.1,354.2,0,340.9,0,324.6c0-23.4,2.9-40.5,8.8-51.4
	c5.8-10.8,15.3-19.3,28.3-25.4c13-6.1,28.7-9.1,47.2-9.1c20.1,0,37.3,3.3,51.5,10c14.2,6.7,23.6,15.1,28.2,25.3
	c4.6,10.2,6.9,27.4,6.9,51.8V337.9z"/>
<polygon class="st2" points="1012.4,245.1 1012.4,306.1 966.2,306.1 966.2,550.7 888.2,550.7 888.2,306.1 842.1,306.1 842.1,245.1 
	"/>
<path class="st2" d="M1199.8,430.2h-96.5v53.9c0,11.3,0.8,18.6,2.4,21.8c1.6,3.3,4.7,4.9,9.3,4.9c5.7,0,9.5-2.1,11.4-6.5
	c1.9-4.3,2.9-12.6,2.9-25v-32.8h70.5v18.4c0,15.4-1,27.3-2.9,35.6c-1.9,8.3-6.4,17.1-13.4,26.5c-7,9.4-15.9,16.5-26.7,21.2
	c-10.8,4.7-24.3,7-40.6,7c-15.8,0-29.7-2.3-41.8-7c-12.1-4.7-21.5-11-28.2-19.2c-6.7-8.1-11.4-17.1-14-26.8
	c-2.6-9.8-3.9-23.9-3.9-42.6v-73c0-21.9,2.9-39.2,8.7-51.8c5.8-12.7,15.3-22.3,28.5-29.1c13.2-6.7,28.3-10.1,45.5-10.1
	c20.9,0,38.2,4.1,51.8,12.2c13.6,8.1,23.2,18.9,28.6,32.3c5.5,13.4,8.2,32.2,8.2,56.5V430.2z M1125,389.4v-18.2
	c0-12.9-0.7-21.2-2-25c-1.4-3.7-4.1-5.6-8.3-5.6c-5.2,0-8.4,1.6-9.6,4.8c-1.2,3.2-1.8,11.8-1.8,25.8v18.2H1125z"/>
<path class="st2" d="M1388.9,395.2h-70.6v-28.8c0-10-0.8-16.8-2.3-20.4c-1.6-3.6-4.5-5.4-8.7-5.4c-4.2,0-7.1,1.6-8.5,4.7
	c-1.4,3.1-2.2,10.2-2.2,21.1v117.8c0,8.9,1.1,15.6,3.2,20c2.2,4.5,5.4,6.7,9.6,6.7c4.9,0,8.3-2.3,10-7c1.8-4.6,2.6-13.4,2.6-26.4
	v-29.8h66.8c-0.1,20-0.8,35-2.1,45.1c-1.3,10-5.4,20.3-12.4,30.8c-6.9,10.5-16,18.4-27.2,23.8c-11.2,5.4-25.1,8-41.5,8
	c-21.1,0-37.7-3.7-50.1-11c-12.3-7.4-21-17.7-26.1-30.9c-5.1-13.3-7.7-32.1-7.7-56.5v-71.1c0-21.2,2.1-37.3,6.3-48.1
	c4.2-10.8,13.1-20.5,26.8-29c13.7-8.5,30.3-12.8,49.9-12.8c19.4,0,36.1,4.2,49.8,12.7c13.8,8.4,23,19.1,27.5,31.9
	C1386.6,353.5,1388.9,371.7,1388.9,395.2z"/>
<path class="st2" d="M1485.7,245.1v69.3c6.4-6.1,13.3-10.7,20.8-13.8c7.5-3.1,15.5-4.6,24-4.6c13.1,0,24.2,3.4,33.4,10.2
	c9.2,6.8,14.8,14.6,16.8,23.5c2,8.8,3.1,25,3.1,48.5v172.5h-74.8V374.8c0-14.5-0.7-23.9-2.1-28c-1.4-4.2-4.6-6.2-9.5-6.2
	c-4.6,0-7.7,2.1-9.3,6.4c-1.6,4.3-2.4,12.7-2.4,25.4v178.3h-74.8V245.1H1485.7z"/>
<path class="st0" d="M1677.8,245.1h58.3c37.6,0,63.1,1.8,76.3,5.3c13.3,3.5,23.3,9.3,30.3,17.4c6.9,8.1,11.2,17,13,26.9
	c1.7,9.9,2.6,29.3,2.6,58.2v107c0,27.4-1.3,45.8-3.8,55c-2.5,9.3-6.9,16.5-13.2,21.7c-6.3,5.2-14,8.9-23.3,10.9
	c-9.2,2.1-23.2,3.1-41.8,3.1h-98.2V245.1z M1755.8,297.1v201.6c11.1,0,18-2.3,20.5-6.9c2.6-4.6,3.9-17.1,3.9-37.6V335.1
	c0-13.9-0.4-22.8-1.3-26.7c-0.9-3.9-2.8-6.8-5.9-8.6C1770,298,1764.3,297.1,1755.8,297.1z"/>
<path class="st0" d="M1961.7,245.1v39.8h-76.9v-39.8H1961.7z M1961.7,300.3v250.4h-76.9V300.3H1961.7z"/>
<path class="st0" d="M2142.7,300.3l-35,250.4h-97.1l-37.7-250.4h66.6l21.2,183.2c1.5-13.6,4.3-46.5,8.3-98.5
	c2.1-29,4.5-57.3,7.1-84.7H2142.7z"/>
<path class="st0" d="M2230.5,245.1v39.8h-76.9v-39.8H2230.5z M2230.5,300.3v250.4h-76.9V300.3H2230.5z"/>
<path class="st0" d="M2333,300.3l-1.1,23.5c5.4-9.2,12-16.2,19.9-20.8c7.8-4.6,16.9-6.9,27.1-6.9c12.8,0,23.3,3.1,31.4,9.2
	c8.1,6.2,13.4,13.9,15.7,23.3c2.3,9.4,3.5,25,3.5,46.8v175.3h-74.8v-173c0-17.2-0.6-27.7-1.7-31.4c-1.1-3.8-4.2-5.6-9.2-5.6
	c-5.3,0-8.6,2.2-9.9,6.5c-1.3,4.3-2,15.9-2,34.7v168.9h-74.8V300.3H2333z"/>
<path class="st0" d="M2624.7,300.3V493c0,26-0.6,42.8-1.8,50.4c-1.2,7.6-5.3,15.6-12.5,24.1c-7.2,8.5-17.1,15-29.8,19.4
	c-12.8,4.4-28.8,6.7-48.1,6.7c-23.8,0-42.9-4.1-57.3-12.4c-14.4-8.3-21.9-24.5-22.4-48.6h72.2c0,11,4,16.4,11.9,16.4
	c5.7,0,9.5-1.7,11.3-5.1c1.9-3.4,2.8-10.5,2.8-21.3V504c-6.4,6-13.1,10.5-20.2,13.5c-7.1,3-14.5,4.6-22.2,4.6
	c-13.4,0-24.4-2.8-33.1-8.3c-8.7-5.5-14.6-12.8-17.8-21.7c-3.2-9-4.8-21.8-4.8-38.3v-90.8c0-23.7,4.2-40.8,12.6-51.2
	c8.4-10.4,21.1-15.6,38.3-15.6c9.4,0,17.9,2,25.6,5.9c7.7,3.9,14.6,9.8,20.6,17.6l5.3-19.3H2624.7z M2549.9,367.1
	c0-11.4-0.7-18.6-1.9-21.8c-1.3-3.1-4.2-4.7-8.6-4.7c-4.3,0-7.4,1.8-9.1,5.3c-1.8,3.6-2.7,10.6-2.7,21.1v83.8
	c0,11.1,0.7,18.4,2,21.7c1.4,3.3,4.2,5,8.5,5c4.9,0,8.1-2,9.6-6c1.5-4,2.2-13.1,2.2-27.2V367.1z"/>
<polyline class="st0" points="1112.7,623.8 2624.7,623.8 2624.7,611.3 1112.7,611.3 1112.7,623.8 "/>
<g>
	<path d="M1117.8,648.9h19.2c12.4,0,20.8,0.6,25.2,1.9c4.4,1.3,7.7,3.3,10,6.2c2.3,2.9,3.7,6,4.3,9.6c0.6,3.5,0.9,10.4,0.9,20.7v38
		c0,9.8-0.4,16.3-1.3,19.6c-0.8,3.3-2.3,5.9-4.4,7.7c-2.1,1.9-4.6,3.2-7.7,3.9c-3,0.7-7.6,1.1-13.8,1.1h-32.4V648.9z M1143.5,667.5
		v71.4c3.7,0,6-0.8,6.8-2.4c0.9-1.6,1.3-6.1,1.3-13.3V681c0-4.9-0.1-8.1-0.4-9.5c-0.3-1.4-0.9-2.4-2-3.1
		C1148.2,667.8,1146.3,667.5,1143.5,667.5z"/>
	<path d="M1217.7,648.9v14.2h-25.4v-14.2H1217.7z M1217.7,668.5v89h-25.4v-89H1217.7z"/>
	<path d="M1283.8,668.5l-11.5,89H1240l-12.4-89h22l6.9,65c0.5-4.8,1.5-16.4,2.8-34.9c0.7-10.3,1.5-20.4,2.4-30.1H1283.8z"/>
	<path d="M1349.4,714.6h-31.9v19.3c0,4,0.3,6.6,0.8,7.8c0.5,1.2,1.5,1.7,3,1.7c1.9,0,3.1-0.8,3.8-2.3c0.6-1.5,0.9-4.5,0.9-9v-11.7
		h23.4v6.6c0,5.5-0.3,9.7-0.9,12.7c-0.6,3-2.1,6.1-4.4,9.5c-2.3,3.4-5.3,5.9-8.8,7.5c-3.6,1.7-8,2.5-13.4,2.5
		c-5.2,0-9.8-0.8-13.8-2.5c-4-1.7-7.1-3.9-9.3-6.8c-2.2-2.9-3.8-6.1-4.6-9.5c-0.9-3.5-1.3-8.5-1.3-15.1v-26c0-7.8,1-13.9,2.9-18.4
		c1.9-4.5,5-7.9,9.4-10.3c4.4-2.4,9.4-3.6,15-3.6c6.9,0,12.6,1.4,17.1,4.3s7.6,6.7,9.5,11.5c1.8,4.8,2.7,11.5,2.7,20.1V714.6z
		 M1324.7,700.1v-6.5c0-4.6-0.2-7.6-0.7-8.9c-0.4-1.3-1.4-2-2.7-2c-1.7,0-2.8,0.6-3.2,1.7s-0.6,4.2-0.6,9.2v6.5H1324.7z"/>
	<path d="M1444.4,648.9v21.7h-15.2v86.9h-25.7v-86.9h-15.2v-21.7H1444.4z"/>
	<path d="M1480.4,668.5l-1,11.7c3.6-8.4,8.8-12.8,15.6-13.3v31.3c-4.5,0-7.8,0.7-9.9,2c-2.1,1.3-3.4,3.2-3.9,5.6
		c-0.5,2.4-0.7,7.9-0.7,16.5v35.2h-24.6v-89H1480.4z"/>
	<path d="M1528.8,703h-23.1v-6c0-6.9,0.7-12.2,2.2-15.9c1.4-3.7,4.3-7,8.7-9.9s10-4.3,17-4.3c8.3,0,14.6,1.6,18.8,4.9
		c4.2,3.2,6.8,7.2,7.6,11.9c0.9,4.7,1.3,14.4,1.3,29.1v44.7h-24v-7.9c-1.5,3.2-3.4,5.6-5.8,7.2c-2.4,1.6-5.2,2.4-8.5,2.4
		c-4.3,0-8.3-1.3-11.9-4c-3.6-2.7-5.4-8.5-5.4-17.5v-7.3c0-6.7,1-11.2,2.9-13.6s6.6-5.2,14.2-8.5c8.1-3.5,12.4-5.8,13-7
		c0.6-1.2,0.9-3.7,0.9-7.4c0-4.7-0.3-7.7-0.9-9.1c-0.6-1.4-1.7-2.1-3.1-2.1c-1.7,0-2.7,0.6-3.1,1.8c-0.4,1.2-0.6,4.3-0.6,9.2V703z
		 M1536.6,715.2c-3.9,3.2-6.2,5.8-6.9,8c-0.6,2.1-0.9,5.2-0.9,9.3c0,4.6,0.3,7.6,0.8,8.9c0.5,1.3,1.6,2,3.3,2c1.5,0,2.6-0.5,3-1.6
		c0.5-1,0.7-3.8,0.7-8.3V715.2z"/>
	<path d="M1601.3,648.9v14.2h-25.4v-14.2H1601.3z M1601.3,668.5v89h-25.4v-89H1601.3z"/>
	<path d="M1641.4,668.5l-0.4,8.2c1.8-3.3,4-5.7,6.6-7.4c2.6-1.6,5.6-2.5,8.9-2.5c4.2,0,7.7,1.1,10.4,3.3c2.7,2.2,4.4,5,5.2,8.3
		c0.8,3.3,1.2,8.9,1.2,16.7v62.4h-24.6v-61.7c0-6.1-0.2-9.9-0.5-11.2s-1.4-2-3-2c-1.7,0-2.8,0.8-3.3,2.3s-0.7,5.7-0.7,12.4v60.2
		h-24.6v-89H1641.4z"/>
	<path d="M1713.3,648.9v14.2h-25.4v-14.2H1713.3z M1713.3,668.5v89h-25.4v-89H1713.3z"/>
	<path d="M1753.5,668.5l-0.4,8.2c1.8-3.3,4-5.7,6.6-7.4c2.6-1.6,5.6-2.5,8.9-2.5c4.2,0,7.7,1.1,10.4,3.3c2.7,2.2,4.4,5,5.2,8.3
		c0.8,3.3,1.2,8.9,1.2,16.7v62.4h-24.6v-61.7c0-6.1-0.2-9.9-0.5-11.2s-1.4-2-3-2c-1.7,0-2.8,0.8-3.3,2.3s-0.7,5.7-0.7,12.4v60.2
		h-24.6v-89H1753.5z"/>
	<path d="M1855.9,668.5v68.6c0,9.3-0.2,15.2-0.6,17.9c-0.4,2.7-1.8,5.6-4.1,8.6c-2.4,3-5.6,5.3-9.8,6.9s-9.5,2.4-15.9,2.4
		c-7.8,0-14.1-1.5-18.9-4.4c-4.8-2.9-7.2-8.7-7.4-17.3h23.9c0,3.9,1.3,5.9,3.9,5.9c1.9,0,3.1-0.6,3.7-1.8c0.6-1.2,0.9-3.7,0.9-7.6
		V741c-2.1,2.1-4.3,3.7-6.7,4.8c-2.3,1.1-4.8,1.6-7.3,1.6c-4.4,0-8.1-1-10.9-3c-2.9-2-4.8-4.5-5.9-7.7c-1.1-3.2-1.6-7.7-1.6-13.7
		v-32.3c0-8.5,1.4-14.5,4.1-18.2c2.8-3.7,7-5.6,12.6-5.6c3.1,0,5.9,0.7,8.4,2.1c2.5,1.4,4.8,3.5,6.8,6.3l1.8-6.7H1855.9z
		 M1831.2,692.1c0-4.1-0.2-6.7-0.6-7.8c-0.4-1.1-1.4-1.7-2.8-1.7c-1.4,0-2.4,0.6-3,1.9c-0.6,1.3-0.9,3.8-0.9,7.5V722
		c0,4,0.2,6.6,0.7,7.7c0.4,1.2,1.4,1.8,2.8,1.8c1.6,0,2.7-0.7,3.2-2.1c0.5-1.4,0.7-4.7,0.7-9.7V692.1z"/>
	<path d="M1958.6,712.5c0,10.9-0.2,18.6-0.7,23.2c-0.5,4.5-1.9,8.7-4.4,12.4s-5.8,6.6-10,8.7c-4.2,2-9.1,3-14.6,3
		c-5.3,0-10-1-14.2-2.9c-4.2-1.9-7.6-4.8-10.2-8.6c-2.6-3.8-4.1-7.9-4.6-12.4c-0.5-4.5-0.7-12.3-0.7-23.5v-18.6
		c0-10.9,0.2-18.6,0.7-23.2c0.5-4.5,1.9-8.7,4.4-12.4c2.5-3.8,5.8-6.6,10-8.7c4.2-2,9.1-3,14.6-3c5.3,0,10,1,14.2,2.9
		c4.2,1.9,7.6,4.8,10.2,8.6c2.6,3.8,4.1,7.9,4.6,12.4c0.5,4.5,0.7,12.3,0.7,23.5V712.5z M1933,676.8c0-5.1-0.3-8.3-0.8-9.7
		c-0.5-1.4-1.6-2.1-3.1-2.1c-1.3,0-2.4,0.6-3.1,1.7c-0.7,1.1-1.1,4.5-1.1,10.1v50.7c0,6.3,0.2,10.2,0.7,11.7
		c0.5,1.5,1.6,2.2,3.3,2.2c1.7,0,2.9-0.8,3.4-2.5c0.5-1.7,0.7-5.7,0.7-12.1V676.8z"/>
	<path d="M1998.4,668.5l-1,11.7c3.6-8.4,8.8-12.8,15.6-13.3v31.3c-4.5,0-7.8,0.7-9.9,2c-2.1,1.3-3.4,3.2-3.9,5.6
		c-0.5,2.4-0.7,7.9-0.7,16.5v35.2h-24.6v-89H1998.4z"/>
	<path d="M2080.7,668.5v68.6c0,9.3-0.2,15.2-0.6,17.9c-0.4,2.7-1.8,5.6-4.1,8.6c-2.4,3-5.6,5.3-9.8,6.9s-9.5,2.4-15.9,2.4
		c-7.8,0-14.1-1.5-18.9-4.4c-4.8-2.9-7.2-8.7-7.4-17.3h23.9c0,3.9,1.3,5.9,3.9,5.9c1.9,0,3.1-0.6,3.7-1.8c0.6-1.2,0.9-3.7,0.9-7.6
		V741c-2.1,2.1-4.3,3.7-6.7,4.8c-2.3,1.1-4.8,1.6-7.3,1.6c-4.4,0-8.1-1-10.9-3c-2.9-2-4.8-4.5-5.9-7.7c-1.1-3.2-1.6-7.7-1.6-13.7
		v-32.3c0-8.5,1.4-14.5,4.1-18.2c2.8-3.7,7-5.6,12.6-5.6c3.1,0,5.9,0.7,8.4,2.1c2.5,1.4,4.8,3.5,6.8,6.3l1.8-6.7H2080.7z
		 M2056,692.1c0-4.1-0.2-6.7-0.6-7.8c-0.4-1.1-1.4-1.7-2.8-1.7c-1.4,0-2.4,0.6-3,1.9c-0.6,1.3-0.9,3.8-0.9,7.5V722
		c0,4,0.2,6.6,0.7,7.7c0.4,1.2,1.4,1.8,2.8,1.8c1.6,0,2.7-0.7,3.2-2.1c0.5-1.4,0.7-4.7,0.7-9.7V692.1z"/>
	<path d="M2117.7,703h-23.1v-6c0-6.9,0.7-12.2,2.2-15.9c1.4-3.7,4.3-7,8.7-9.9s10-4.3,17-4.3c8.3,0,14.6,1.6,18.8,4.9
		c4.2,3.2,6.8,7.2,7.6,11.9c0.9,4.7,1.3,14.4,1.3,29.1v44.7h-24v-7.9c-1.5,3.2-3.4,5.6-5.8,7.2c-2.4,1.6-5.2,2.4-8.5,2.4
		c-4.3,0-8.3-1.3-11.9-4c-3.6-2.7-5.4-8.5-5.4-17.5v-7.3c0-6.7,1-11.2,2.9-13.6s6.6-5.2,14.2-8.5c8.1-3.5,12.4-5.8,13-7
		c0.6-1.2,0.9-3.7,0.9-7.4c0-4.7-0.3-7.7-0.9-9.1c-0.6-1.4-1.7-2.1-3.1-2.1c-1.7,0-2.7,0.6-3.1,1.8c-0.4,1.2-0.6,4.3-0.6,9.2V703z
		 M2125.5,715.2c-3.9,3.2-6.2,5.8-6.9,8c-0.6,2.1-0.9,5.2-0.9,9.3c0,4.6,0.3,7.6,0.8,8.9c0.5,1.3,1.6,2,3.3,2c1.5,0,2.6-0.5,3-1.6
		c0.5-1,0.7-3.8,0.7-8.3V715.2z"/>
	<path d="M2189.9,668.5l-0.4,8.2c1.8-3.3,4-5.7,6.6-7.4c2.6-1.6,5.6-2.5,8.9-2.5c4.2,0,7.7,1.1,10.4,3.3c2.7,2.2,4.4,5,5.2,8.3
		c0.8,3.3,1.2,8.9,1.2,16.7v62.4h-24.6v-61.7c0-6.1-0.2-9.9-0.5-11.2s-1.4-2-3-2c-1.7,0-2.8,0.8-3.3,2.3s-0.7,5.7-0.7,12.4v60.2
		h-24.6v-89H2189.9z"/>
	<path d="M2261.8,648.9v14.2h-25.4v-14.2H2261.8z M2261.8,668.5v89h-25.4v-89H2261.8z"/>
	<path d="M2327.2,697h-21.8v-4.8c0-4.1-0.2-6.7-0.6-7.8c-0.4-1.1-1.5-1.6-3.2-1.6c-1.4,0-2.4,0.5-3.1,1.5s-1,2.5-1,4.5
		c0,2.7,0.2,4.7,0.5,6s1.4,2.7,3.1,4.2c1.7,1.5,5.3,3.7,10.6,6.6c7.2,3.8,11.9,7.5,14.1,10.9c2.2,3.4,3.4,8.3,3.4,14.8
		c0,7.2-0.9,12.7-2.6,16.4c-1.7,3.7-4.6,6.5-8.6,8.5s-8.8,3-14.5,3c-6.3,0-11.6-1.1-16.1-3.2c-4.5-2.1-7.5-5.1-9.2-8.7
		c-1.7-3.7-2.5-9.2-2.5-16.6v-4.3h21.8v5.6c0,4.8,0.3,7.9,0.8,9.3c0.5,1.4,1.6,2.1,3.3,2.1c1.7,0,3-0.5,3.7-1.4c0.7-1,1-3,1-6.1
		c0-4.2-0.4-6.9-1.3-8c-0.9-1.1-5.7-4.2-14.3-9.5c-7.2-4.5-11.6-8.5-13.2-12.2c-1.6-3.6-2.4-8-2.4-13c0-7.1,0.9-12.4,2.6-15.7
		c1.7-3.4,4.6-6,8.7-7.8s8.8-2.8,14.2-2.8c5.4,0,9.9,0.8,13.7,2.2c3.8,1.5,6.6,3.5,8.7,5.9c2,2.5,3.2,4.7,3.7,6.8
		c0.4,2.1,0.6,5.4,0.6,9.9V697z"/>
	<path d="M2363.9,703h-23.1v-6c0-6.9,0.7-12.2,2.2-15.9c1.4-3.7,4.3-7,8.7-9.9s10-4.3,17-4.3c8.3,0,14.6,1.6,18.8,4.9
		c4.2,3.2,6.8,7.2,7.6,11.9c0.9,4.7,1.3,14.4,1.3,29.1v44.7h-24v-7.9c-1.5,3.2-3.4,5.6-5.8,7.2c-2.4,1.6-5.2,2.4-8.5,2.4
		c-4.3,0-8.3-1.3-11.9-4c-3.6-2.7-5.4-8.5-5.4-17.5v-7.3c0-6.7,1-11.2,2.9-13.6s6.6-5.2,14.2-8.5c8.1-3.5,12.4-5.8,13-7
		c0.6-1.2,0.9-3.7,0.9-7.4c0-4.7-0.3-7.7-0.9-9.1c-0.6-1.4-1.7-2.1-3.1-2.1c-1.7,0-2.7,0.6-3.1,1.8c-0.4,1.2-0.6,4.3-0.6,9.2V703z
		 M2371.7,715.2c-3.9,3.2-6.2,5.8-6.9,8c-0.6,2.1-0.9,5.2-0.9,9.3c0,4.6,0.3,7.6,0.8,8.9c0.5,1.3,1.6,2,3.3,2c1.5,0,2.6-0.5,3-1.6
		c0.5-1,0.7-3.8,0.7-8.3V715.2z"/>
	<path d="M2437.1,656.6v14h6.6v14.1h-6.6v47.6c0,5.9,0.3,9.1,0.8,9.8s2.8,1,6.9,1v14.4h-9.9c-5.6,0-9.6-0.3-12-0.8
		c-2.4-0.5-4.5-1.7-6.3-3.6c-1.8-1.9-3-4-3.4-6.4c-0.4-2.4-0.7-8-0.7-16.9v-45.2h-5.3v-14.1h5.3v-14H2437.1z"/>
	<path d="M2480.8,648.9v14.2h-25.4v-14.2H2480.8z M2480.8,668.5v89h-25.4v-89H2480.8z"/>
	<path d="M2551.6,699.8v21.8c0,8-0.4,13.9-1.1,17.6c-0.7,3.7-2.3,7.2-4.7,10.5c-2.4,3.2-5.5,5.6-9.2,7.2c-3.8,1.5-8.1,2.3-13,2.3
		c-5.4,0-10.1-0.7-13.8-2s-6.7-3.3-8.8-6c-2.1-2.7-3.6-5.9-4.5-9.7c-0.9-3.8-1.3-9.4-1.3-17v-22.8c0-8.3,0.8-14.7,2.4-19.4
		c1.6-4.7,4.6-8.4,8.8-11.2c4.2-2.8,9.6-4.2,16.2-4.2c5.5,0,10.3,0.9,14.2,2.7c4,1.8,7,4.2,9.2,7.1s3.6,5.9,4.4,9
		S2551.6,693.5,2551.6,699.8z M2527,693.1c0-4.6-0.2-7.4-0.7-8.6c-0.4-1.2-1.4-1.8-2.9-1.8s-2.4,0.6-2.9,1.8
		c-0.5,1.2-0.7,4.1-0.7,8.6v40.2c0,4.2,0.2,6.9,0.7,8.2c0.5,1.3,1.4,1.9,2.9,1.9c1.5,0,2.4-0.6,2.9-1.7c0.5-1.2,0.7-3.7,0.7-7.5
		V693.1z"/>
	<path d="M2591,668.5l-0.4,8.2c1.8-3.3,4-5.7,6.6-7.4c2.6-1.6,5.6-2.5,8.9-2.5c4.2,0,7.7,1.1,10.4,3.3c2.7,2.2,4.4,5,5.2,8.3
		c0.8,3.3,1.2,8.9,1.2,16.7v62.4h-24.6v-61.7c0-6.1-0.2-9.9-0.5-11.2s-1.4-2-3-2c-1.7,0-2.8,0.8-3.3,2.3s-0.7,5.7-0.7,12.4v60.2
		H2566v-89H2591z"/>
</g>
</svg>
