<?xml version="1.0" encoding="utf-8"?>
<!-- Generator: Adobe Illustrator 14.0.0, SVG Export Plug-In . SVG Version: 6.00 Build 43363)  -->
<!DOCTYPE svg PUBLIC "-//W3C//DTD SVG 1.1//EN" "http://www.w3.org/Graphics/SVG/1.1/DTD/svg11.dtd">
<svg version="1.1" id="Layer_1" xmlns="http://www.w3.org/2000/svg" xmlns:xlink="http://www.w3.org/1999/xlink" x="0px" y="0px"
	 width="180px" height="200px" viewBox="0 0 180 200" enable-background="new 0 0 180 200" xml:space="preserve">
<g>
	<path fill="#ED1C24" d="M123.249,100.585c6.001,2.303,12.781,3.073,19.675,3.402c-0.001,0.004,0.38-0.122,0.557,0.549
		c0.175,0.67-0.778,0.771-0.778,0.771c-9.451,0.217-23.733-2.176-26.336-3.691c-2.309-4.745-6.233-4.436-9.456-6.303
		c-0.111-1.208,0.773-1.537,1.666-2.084C114.133,93.992,117.911,98.936,123.249,100.585"/>
	<path fill="#ED1C24" d="M81.563,96.083c1.11,2.744-1.892,6.642,2.663,7.738c2.001,0.578,2.918,1.186,5.118-0.603
		c0.975-0.806,1.182-2.078,0.555-3.184c-0.834-1.144-1.332-2.411-1.112-3.404l0.223-0.222c1.517,0.02,1.888,3.847,4,5.274
		c3.116-4.942,9.449-0.111,12.896-4.285c2.558,0.88,6.004,1.317,7.114,3.953c-2,0.88-4.557,0.549-6.669,1.32
		c-6.893,2.635-15.741,10.186-22.678,3.183l-7.669-9.771C77.449,94.982,79.673,96.083,81.563,96.083"/>
	<path fill="#ED1C24" d="M50.044,40.157c-2.357,1.111-2.943,4.203-5.275,5.854c-4.47-1.535-7.784-1.138-11.453,1.646
		c-0.889-1.869,0.223-3.624,1.336-5.053c3.78-4.06,9.67,1.649,13.34-2.856C49.123,38.758,50.929,39.473,50.044,40.157"/>
	<path fill="#ED1C24" d="M57.886,40.3c0.727,1.49-0.198,4.294-1.337,4.72c-3.61,1.009-6.667,3.734-10.449,2.089
		c1.892-2.749,3.895-5.287,8.009-4.52C55.441,42.37,57.341,39.791,57.886,40.3"/>
	<path fill="#ED1C24" d="M50.326,48.425c1.111,1.977-0.731,3.448-1.988,4.915c-2.45,1.719-5.573,2.334-8.684,1.675
		c-1.445-0.55-3.001-2.198-4.782-1.32c-2.556,2.528,2.452,3.749,1.563,6.273c-2.377,0.099-3.924,0.312-5.915,1.379
		c-1.558-3.73,2.577-5.425,2.239-9.188c-0.109-0.962,2.813-4.544,6.117-5.05C43.545,45.462,46.1,52.925,50.326,48.425"/>
	<path fill="#ED1C24" d="M36.987,63.14c0.558,1.766,1.111,3.844-0.781,4.831c-2.421,0.611-3.922-1.318-4.7-3.185
		c-0.109-1.536,0.536-2.638,2.033-3.287C35.097,61.171,36.763,61.711,36.987,63.14"/>
	<path fill="#ED1C24" d="M63.998,63.688c2.002,1.646,2.556,3.953,2.667,6.37c-0.443,2.413-1.11,4.83-3.222,6.588
		c-2.557,2.526-7.002,0.877-9.894,2.854c-0.89,0.222-1.911-0.317-2.591-0.824c1.163-0.667,1.369,0.162,3.371-3.349
		c4.112,0.549,4.756-3.596,6.447-6.367c0.554-3.952-10.228-5.054-3.445-7.579C59.774,61.494,62.22,61.821,63.998,63.688"/>
	<path fill="#ED1C24" d="M136.03,74.562c5.448,4.828,9.672,10.209,12.784,16.03c-2.667,1.426-5,4.721-8.558,3.4
		c-1.557-1.423-4.111,0.771-4.78-1.862c-0.332-4.61-2.001-8.676-4.78-12.299c1.557-0.55,2.667-3.076,0.776-4.285
		c-2.666-2.415-5.333-4.831-8.557-6.039c0.333-2.086,2.779-2.086,4.334-1.537L136.03,74.562"/>
	<path fill="#ED1C24" d="M45.879,84.223c-0.779,1.536-2.892,1.536-4.333,1.097c-7.005-2.964-3.893-10.982-7.672-15.813
		c1.445-0.11,3.779,0.551,4.78-1.537C39.208,73.9,48.436,77.083,45.879,84.223"/>
	<path fill="#ED1C24" d="M75.228,69.288c7.445,3.076,14.893,6.369,22.12,9.993c-0.002,0,0.764,0.914,0,0.989
		c-0.768,0.073-6.44,1.187-8.212-1.81c-0.358-0.138-10.55-3.628-16.355-2.777c-1.222-1.539-2.669-2.109-4.225-2.442
		C66.222,68.738,72.559,67.971,75.228,69.288"/>
	<path fill="#ED1C24" d="M114.876,80.594c-5.539,4.834-15.073,12.279-24.409,12.976c1.312-3.187,1.846-7.318,1.185-11.433
		c7.558,1.098,12.378-0.422,17.545-5.615c3.254-3.516,9.605-0.976,12.159-4.929c1.829-0.963,5.956,1.518,8.228,4.284
		c0.556,1.098-0.665,1.647-1.557,1.537C122.966,76.153,118.598,77.856,114.876,80.594"/>
	<path fill="#ED1C24" d="M70.893,76.098c-1.111,2.441-1.226,4.938,0.554,6.807c2.668,2.966,6.449,3.185,10.116,3.732
		c0.218,2.53,0.948,4.944,0.498,7.356c-3.667,0.225-7.474-0.206-11.392-0.312c-6.302-0.172-9.868-1.633-15.871-3.678
		c-3.217-1.325-6.982-1.752-7.642-3.146c-0.435-0.917,1.229-6.257,1.229-6.257c3.114-1.758,5.943,2.417,8.945-0.548
		c4.446,0.328,7.782-2.197,10.116-5.488C68.778,74.669,69.889,75.216,70.893,76.098"/>
	<path fill="#ED1C24" d="M88.787,80.036c2.399,2.109,0.891,6.053,0.78,9.018c-0.557,2.417-1.001,4.831-1.56,7.356
		c-1.767,0.481-2.887,0-4-0.551L83.451,85.54c-4.002-1.753-10.179-0.22-11.846-5.27c-0.111-1.319,0.843-2.525,1.953-3.075
		C79.076,76.701,88.35,79.564,88.787,80.036"/>
	<path fill="#ED1C24" d="M83.509,102.091c-1.261-0.775-0.849-1.946-0.216-3.382c0.494-1.188,2.187-0.977,3.301-0.759
		c1,0.33,2.074,1.64,2.109,3.101C88.703,101.051,87.429,104.491,83.509,102.091"/>
	<path fill="#ED1C24" d="M48.75,78.042c1.718,0,3.113-1.419,3.113-3.168c0-1.748-1.396-3.167-3.113-3.167
		c-1.719,0-3.112,1.419-3.112,3.167C45.637,76.623,47.03,78.042,48.75,78.042"/>
	<path fill="#ED1C24" d="M51.914,63.189l6.741,4.415c-0.002,0,0.961,0.827,0,2.343c-0.964,1.517-2.063,3.172-2.063,3.172
		c-0.001,0.002-0.55,1.099-1.995,0c-1.445-1.104-6.946-4.48-6.946-4.48c-0.001,0-1.17-0.623-0.345-1.865
		c0.826-1.24,2.474-3.446,2.474-3.446C49.78,63.33,50.744,62.295,51.914,63.189"/>
	<path fill-rule="evenodd" clip-rule="evenodd" fill="#034EA2" d="M95.876,119.262H80.717c-1.743,0-2.505,1.313-1.692,2.924
		l6.274,11.829c1.391,2.881,3.956,3.062,5.875,0.189l6.395-12.019C98.383,120.575,97.621,119.262,95.876,119.262"/>
	<path fill-rule="evenodd" clip-rule="evenodd" fill="#034EA2" d="M72.827,66.739c3.196,0.384,7.646,2.224,12.738,4.395h20.906
		c1.744,0,3.089-1.428,2.995-3.172l-1.347-13.721c-0.252-1.727-1.883-3.142-3.627-3.142h-32.39c-1.743,0-3.377,1.415-3.625,3.142
		l-0.923,9.376c0.761,1.509,0.553,2.964,0.67,3.477C68.313,67.479,69.976,66.396,72.827,66.739"/>
	<path fill-rule="evenodd" clip-rule="evenodd" fill="#034EA2" d="M80.246,26.045h16.103c1.743,0,2.516-1.32,1.716-2.935
		l-6.575-12.545c-1.502-3.076-4.987-2.892-6.54,0.241L78.526,23.11C77.73,24.725,78.502,26.045,80.246,26.045"/>
	<path fill-rule="evenodd" clip-rule="evenodd" fill="#034EA2" d="M104.315,94.111c0.67-0.39,1.518-1.016,1.992-1.239
		c1.035-0.486,1.623-1.669,1.66-1.903c0,0,0.956-1.858,0.257-2.459c-0.215-0.187-10.902,5.165-11.266,5.601
		C96.326,94.866,102.802,94.994,104.315,94.111"/>
	<path fill="#034EA2" d="M100.793,79.831c2.273,0.492,5.224-2.958,7.802-5.058c-0.54-0.545-1.288-0.882-2.133-0.882H92.115
		c0.887,0.358,1.78,0.718,2.685,1.071C99.811,76.9,99.996,79.655,100.793,79.831"/>
	<path fill="#034EA2" d="M97.569,28.395H79.02c-1.744,0-3.666,1.34-4.277,2.977l-4.424,13.9c-0.453,1.687,0.602,3.068,2.347,3.068
		h31.262c1.742,0,2.802-1.381,2.348-3.068l-4.425-13.9C101.24,29.735,99.315,28.395,97.569,28.395"/>
	<path fill-rule="evenodd" clip-rule="evenodd" fill="#034EA2" d="M93.096,99.198c0.625,0.271,0.285-0.533,6.414-1.532
		c2.949,0.354,3.686-0.474,3.925-0.796H93.094C91.994,98.177,92.561,98.967,93.096,99.198"/>
	<path fill-rule="evenodd" clip-rule="evenodd" fill="#034EA2" d="M82.8,108.101c-3.211-2.388-8.286-9.994-9.005-10.74
		c-0.119-0.123-0.521-0.292-1.096-0.485c-1.644,0.089-2.605,1.424-2.153,3.05l4.61,14.012c0.627,1.631,2.562,2.963,4.306,2.963
		h17.671c1.742,0,3.678-1.332,4.305-2.963l2.61-7.927c-1.175,0.518-2.524,1.175-4.104,1.992
		C90.037,113.151,86.073,110.542,82.8,108.101"/>
	<path fill-rule="evenodd" clip-rule="evenodd" fill="#034EA2" d="M138.435,50.924c-2.475-0.002-1.859,2.5-1.859,2.5
		c1.247,4.795,2.022,9.781,2.275,14.907c-0.002,0.004,0.409,2.571,2.608,2.63h14.721c2.819-0.092,3.003-3.187,3.003-3.187
		c-0.278-5.131-1.105-9.013-2.431-13.787c-0.002,0.001-1.261-2.995-4.423-3.062H138.435"/>
	<path fill-rule="evenodd" clip-rule="evenodd" fill="#034EA2" d="M156.042,73.716h-14.583c-1.142,0.005-1.791,0.596-2.165,1.211
		c3.319,3.214,6.615,6.893,9.166,10.427c3.486,4.842,2.224,5.649,1.375,6.622c-0.217,0.245-1.137,1.039-3.078,1.963h5.572
		c3.368-0.037,4.32-3.241,4.32-3.241c1.352-4.784,2.21-8.673,2.514-13.822C159.163,76.878,159.275,73.729,156.042,73.716"/>
	<path fill-rule="evenodd" clip-rule="evenodd" fill="#034EA2" d="M126.192,30.694c3.872,5.209,5.791,9.094,7.846,14.748
		c0,0,1.062,2.657,3.848,2.723h13.755c3.746,0,2.375-3.313,2.375-3.313c-2.356-5.879-4.955-9.287-9.118-14.433
		c-1.647-1.793-4.979-2.198-4.979-2.198h-11.57C124.733,28.232,126.192,30.694,126.192,30.694"/>
	<path fill="#034EA2" d="M99.232,6.784c8.366,4.29,14.626,9.17,20.814,16.303c3.35,3.398,6.146,2.78,6.146,2.78h11.005
		c0,0.002,4.218,0.035,1.763-2.713C128.931,12.664,115.977,7.56,101.342,5"/>
	<path fill-rule="evenodd" clip-rule="evenodd" fill="#034EA2" d="M94.505,8.925c2.694,3.911,4.773,10.245,6.835,14.182
		c-0.002,0.001,0.507,2.772,4.082,2.76h10.591c3.647,0.012,0.536-2.859,0.536-2.859c-5.97-6.537-11.87-10.91-19.783-14.828"/>
	<path fill-rule="evenodd" clip-rule="evenodd" fill="#034EA2" d="M113.261,48.165h16.095c3.027,0.105,1.741-2.754,1.741-2.754
		c-2.071-5.195-4.736-10.088-7.911-14.595c0,0.002-0.708-2.583-4.421-2.595h-12.242c-2.819,0.012-1.421,2.573-1.421,2.573
		c1.924,4.723,3.524,9.612,4.777,14.638C109.879,45.432,110.51,48.129,113.261,48.165"/>
	<path fill-rule="evenodd" clip-rule="evenodd" fill="#034EA2" d="M129.082,96.696h-9.016c0.921,0.496,1.668,0.87,2.07,1.036
		c1.122,0.446,4.403,1.646,8.149,2.47c0.139-0.314,0.276-0.621,0.408-0.937C130.691,99.265,131.902,96.659,129.082,96.696"/>
	<path fill-rule="evenodd" clip-rule="evenodd" fill="#034EA2" d="M108.209,104.48c-1.021,3.281-2.188,6.497-3.502,9.635
		c0,0.004-2.034,2.626,1.541,2.615h11.279c3.093,0.011,4.738-2.585,4.738-2.585c1.798-2.437,3.438-4.995,4.92-7.658
		c-3.932-0.805-9.564-2.02-12.898-2.139C112.215,104.276,111.02,103.749,108.209,104.48"/>
	<path fill-rule="evenodd" clip-rule="evenodd" fill="#034EA2" d="M111.471,91.731c0.181,0.667,2.344,2.194,3.732,2.209
		c1.389,0.009,14.98,0,14.98,0c1.549-0.021,2.383-0.766,2.822-1.467c0-0.164-0.003-0.308-0.008-0.411
		c-0.048-1.085,0.239-3.216-1.756-8.102c-2.188-5.371-6.398-5.522-9.883-4.561c-3.95,1.086-8.525,4.733-9.038,5.838
		c-0.51,1.1-1.024,5.563-1.024,5.563C111.297,90.802,111.284,91.064,111.471,91.731"/>
	<path fill-rule="evenodd" clip-rule="evenodd" fill="#034EA2" d="M126.346,65.498c1.729,0.314,4.834,2.34,8.333,5.262
		c1.735-0.611,1.389-2.434,1.389-2.434c-0.252-5.108-1.032-10.083-2.302-14.854c-0.001,0-0.281-2.448-3.172-2.549h-16.92
		c-2.337-0.035-2.116,2.517-2.116,2.517c0.827,4.861,1.335,9.829,1.502,14.886c0,0.001,0.736,3.208,3.21,3.196h2.34
		c1.239-0.411,1.888-1.392,2.001-1.939C120.95,67.982,122.312,64.765,126.346,65.498"/>
	<path fill-rule="evenodd" clip-rule="evenodd" fill="#034EA2" d="M136.468,119.159h-11.003c0,0.002-2.795-0.618-6.143,2.78
		c-6.191,7.134-12.451,12.012-20.82,16.302c-2.739,1.431-1.684,2.287,2.114,1.786c14.636-2.559,27.585-7.662,37.616-18.156
		C140.688,119.124,136.468,119.159,136.468,119.159"/>
	<path fill-rule="evenodd" clip-rule="evenodd" fill="#034EA2" d="M115.825,122.021c-0.002,0,3.104-2.868-0.54-2.862h-10.59
		c-3.58-0.006-4.085,2.762-4.085,2.762c-2.061,3.935-4.141,10.27-6.837,14.18c-0.896,1.512,0.109,1.608,2.265,0.752
		C103.951,132.928,109.85,128.554,115.825,122.021"/>
	<path fill-rule="evenodd" clip-rule="evenodd" fill="#034EA2" d="M51.531,114.35c-3.249-4.621-5.979-9.631-8.105-14.953
		c-0.002,0-0.315-2.565-3.34-2.527H25.641c-3.164,0.101-2.237,3.357-2.237,3.357c2.227,5.237,5.073,9.595,8.446,14.085
		c0,0,0.875,2.601,4.796,2.589h14.305C53.221,116.913,51.531,114.35,51.531,114.35"/>
	<path fill-rule="evenodd" clip-rule="evenodd" fill="#034EA2" d="M29.511,65.121c-0.709-0.911,0.376-1.868,0.025-2.202
		c-3.071-2.909-0.859-5.175-0.155-7.046c0.446-1.19,1.074-3.052,1.377-4.773h-5.942c-3.165,0.066-4.425,3.059-4.425,3.059
		c-1.324,4.778-2.152,8.656-2.427,13.788c0,0.002,0.181,3.094,3.001,3.188h11.664c-0.032-0.12-0.065-0.226-0.081-0.299
		C32.363,70.098,31.26,67.381,29.511,65.121"/>
	<path fill-rule="evenodd" clip-rule="evenodd" fill="#034EA2" d="M34.292,78.692c-0.223-1.84-0.568-3.484-0.894-4.801H21.101
		c-3.23,0.01-3.122,3.159-3.122,3.159c0.303,5.147,1.164,9.036,2.517,13.824c-0.001,0,0.948,3.202,4.321,3.237h14.167
		c2.819-0.036,2.229-3.586,2.229-3.586c-0.138-1.482-0.432-1.87-1.488-3.458C38,85.962,34.813,83.059,34.292,78.692"/>
	<path fill-rule="evenodd" clip-rule="evenodd" fill="#034EA2" d="M32.687,41.79c1.907-2.89,7.862-2.287,9.708-2.303
		c1.515-0.018,2.608-0.306,3.546-0.624c1.307-2.608,2.857-5.099,5.009-7.997c0,0.002,1.461-2.458-2.159-2.471H37.225
		c-0.001,0.001-2.808,0.049-4.981,2.196c-4.16,5.147-6.757,8.553-9.113,14.431c-0.002,0-1.376,3.317,2.374,3.317h5.356
		C30.512,46.355,30.741,44.735,32.687,41.79"/>
	<path fill-rule="evenodd" clip-rule="evenodd" fill="#034EA2" d="M75.799,5.181c-14.632,2.558-27.586,7.666-37.617,18.154
		c-2.452,2.747,2.315,2.71,2.315,2.71h10.454c0,0,2.795,0.618,6.143-2.78c6.192-7.131,12.453-12.011,20.818-16.3"/>
	<path fill-rule="evenodd" clip-rule="evenodd" fill="#034EA2" d="M80.377,8.357c-7.914,3.921-13.812,8.294-19.785,14.831
		c-0.001,0-3.108,2.871,0.537,2.857h10.593c3.577,0.014,4.083-2.76,4.083-2.76c2.062-3.935,4.14-10.267,6.835-14.177"/>
	<path fill-rule="evenodd" clip-rule="evenodd" fill="#034EA2" d="M53.176,40.994c4.416-2.083,5.402-4.14,5.918-2.558
		c2.301,7.036-2.54,8.454-3.767,9.067c-0.542,0.271-0.901,0.436-1.272,0.836h9.824c2.751-0.035,3.387-2.735,3.387-2.735
		c1.252-5.027,2.854-9.913,4.775-14.638c-0.001,0,1.4-2.56-1.42-2.572H58.378c-3.714,0.013-4.422,2.594-4.422,2.594
		c-1.587,2.252-3.043,4.6-4.364,7.032c0.004,0,0.009,0,0.013,0C53.093,38.224,51.299,41.883,53.176,40.994"/>
	<path fill-rule="evenodd" clip-rule="evenodd" fill="#034EA2" d="M59.616,116.901h11.279c3.579,0.012,1.542-2.607,1.542-2.607
		c-2.01-4.809-3.687-9.789-5.002-14.917c-0.001,0-0.116-2.545-3.278-2.507H48.062c-2.818-0.038-1.614,2.566-1.614,2.566
		c2.218,5.321,5.058,10.313,8.431,14.884C54.877,114.32,56.521,116.913,59.616,116.901"/>
	<path fill-rule="evenodd" clip-rule="evenodd" fill="#034EA2" d="M43.292,88.15c-0.08,1.125,0.061,2.165,0.367,3.257
		c0,0,0.346,2.668,3.304,2.704h14.732c-2.565-0.709-11.746-3.302-14.896-5.039C44.585,87.855,43.38,87.666,43.292,88.15"/>
	<path fill-rule="evenodd" clip-rule="evenodd" fill="#034EA2" d="M43.167,57.346c-0.287,0.022-0.505,0.037-0.677,0.062
		c-0.735,3.53-1.205,7.155-1.396,10.857c0.227,0.653,0.555,1.251,1.006,1.762c0.403,0.456,3.515,2.782,4.648,1.107
		c0.474-0.701,0.259-0.52,0.242-0.76c-0.094-1.288-1.607-1.564-1.667-2.403c-0.042-0.558,1.868-4.643,3.815-6.233
		c0.983-0.801,1.786-0.667,2.743,0.245c1.033,0.979,3.744-2.789,7.248-2.445c2.415,0.24,4.177,0.735,5.466,1.364
		c0.25-2.455,0.582-4.885,0.992-7.291c-0.002,0.001,0.217-2.548-2.121-2.511H52.465c-0.078,0.167-0.163,0.344-0.25,0.532
		C49.61,57.233,44.59,57.229,43.167,57.346"/>
	<path fill-rule="evenodd" clip-rule="evenodd" fill="#034EA2" d="M78.637,138.422c-8.364-4.29-14.625-9.17-20.816-16.304
		c-3.347-3.398-6.144-2.778-6.144-2.778H40.674c-0.001,0-4.215-0.037-1.764,2.715c10.029,10.489,22.984,15.593,37.617,18.153
		C80.326,140.709,81.379,139.851,78.637,138.422"/>
	<path fill="#034EA2" d="M76.533,122.102c0,0.002-0.505-2.77-4.084-2.762H61.856c-3.645-0.008-0.534,2.858-0.534,2.858
		c5.971,6.536,11.871,10.91,19.785,14.835c2.151,0.854,3.162,0.76,2.259-0.752C80.671,132.369,78.595,126.036,76.533,122.102"/>
	<path fill-rule="evenodd" clip-rule="evenodd" fill="#034EA2" d="M38.499,63.276c0,0.001,2.75-6.341,0.275-7.238
		c-1.827-0.657-2.315,0.128-1.79,1.091c0.521,0.958,1.896,1.798,0.894,4.252C37.466,62.381,38.499,63.276,38.499,63.276"/>
	<path fill="#034EA2" d="M137.019,96.692l14.483,0.004c3.164,0.101,2.235,3.358,2.235,3.358c-2.224,5.238-5.068,9.045-8.442,13.532
		c0,0-1.426,3.154-5.347,3.144h-13.756c-2.27,0.011-0.582-2.554-0.582-2.554c1.607-2.285,3.087-4.664,4.429-7.132
		c0.355,0.063,0.658,0.11,0.904,0.138c8.024,0.918,13.026,0.482,13.649-0.23c0.84-0.964,4.645-6.248-7.013-5.921
		c-1.438,0.042-2.967-0.082-4.486-0.309c0.211-0.5,0.25-1.043,0.45-1.548C133.544,99.174,133.992,96.659,137.019,96.692"/>
</g>
<path d="M153.373,149.187c0.389,0.393,0.583,0.865,0.583,1.422c0,0.562-0.194,1.038-0.583,1.433
	c-0.391,0.396-0.861,0.592-1.42,0.592c-0.555,0-1.027-0.195-1.417-0.592c-0.388-0.395-0.583-0.871-0.583-1.433
	c0-0.557,0.196-1.029,0.584-1.422c0.392-0.393,0.865-0.592,1.416-0.592C152.508,148.595,152.981,148.794,153.373,149.187z
	 M153.602,148.963c-0.454-0.456-1.003-0.681-1.648-0.681c-0.639,0-1.186,0.225-1.64,0.681c-0.455,0.456-0.683,1.005-0.683,1.646
	c0,0.651,0.226,1.202,0.676,1.658c0.453,0.46,1.002,0.688,1.646,0.688c0.646,0,1.194-0.229,1.648-0.688
	c0.458-0.458,0.685-1.009,0.685-1.658C154.286,149.966,154.06,149.415,153.602,148.963z M152.301,150.502
	c-0.098,0.037-0.237,0.058-0.429,0.058h-0.406v-0.929h0.383c0.251,0,0.433,0.03,0.545,0.094c0.112,0.064,0.17,0.189,0.17,0.377
	C152.563,150.296,152.475,150.43,152.301,150.502z M151.014,151.885h0.452v-1.009h0.352c0.242,0,0.409,0.026,0.505,0.082
	c0.162,0.095,0.241,0.292,0.241,0.586v0.205l0.009,0.082c0,0.013,0.005,0.021,0.008,0.029c0,0.008,0.002,0.016,0.004,0.024h0.421
	l-0.013-0.033c-0.011-0.021-0.018-0.063-0.022-0.132c-0.005-0.067-0.009-0.131-0.009-0.19v-0.189c0-0.127-0.044-0.261-0.139-0.396
	c-0.093-0.138-0.24-0.218-0.439-0.251c0.157-0.024,0.282-0.067,0.371-0.123c0.167-0.108,0.251-0.279,0.251-0.507
	c0-0.321-0.135-0.541-0.396-0.647c-0.149-0.063-0.383-0.093-0.699-0.093h-0.896V151.885"/>
<path d="M80.188,148.771l15.124,43.907l-42.226-0.006l8.474-26.336c3.351-0.021,7.355,0.042,11.036-0.012l-5.07,16.4H80.48
	l-11.432-33.927L80.188,148.771"/>
<path d="M117.171,148.799H97.7l-0.021,10.458h13.629v0.002c6.464,0,11.618,4.904,11.618,11.385c0,6.477-5.344,11.425-11.809,11.425
	h-3.024v-15.976H97.7v26.393h19.471c9.991-0.908,17.197-11.141,17.197-21.842C134.368,159.933,126.403,149.709,117.171,148.799"/>
<path d="M58.982,162.51c0-7.621-6.324-13.576-13.853-13.83h-0.011c-0.064,0-16.218,0-16.218,0v10.417h14.817
	c1.879,0.115,3.377,1.498,3.377,3.413c0,1.949-1.543,3.538-3.471,3.616H28.917v26.395h10.393v-15.978l5.861-0.024
	C52.753,176.122,58.982,170.116,58.982,162.51"/>
<rect x="136.971" y="148.799" width="10.759" height="43.699"/>
</svg>
